<svg xmlns="http://www.w3.org/2000/svg" width="194.184" height="61.998" viewBox="0 0 194.184 61.998">
  <g id="yuumi-logo" transform="translate(-116.857 -404.902)">
    <g id="Group_62" data-name="Group 62" transform="translate(116.857 423.669)">
      <g id="Group_57" data-name="Group 57" transform="translate(0 0)">
        <path id="Path_67" data-name="Path 67" d="M154.7,486.691a3.174,3.174,0,0,1,3.1,3.835l-1.26,5.924a24.992,24.992,0,0,1-20.415,18.86l-2.571,12.046a3.174,3.174,0,0,1-3.1,2.512h0a3.174,3.174,0,0,1-3.1-3.838l2.31-10.8a14.576,14.576,0,0,1-9.929-6.111,15.272,15.272,0,0,1-2.867-9.048,20.056,20.056,0,0,1,.461-4.172l1.421-6.69a3.174,3.174,0,0,1,3.105-2.515h0a3.174,3.174,0,0,1,3.1,3.835l-1.26,5.924a13.459,13.459,0,0,0-.321,2.834,9.531,9.531,0,0,0,2.1,6.1,9.732,9.732,0,0,0,8.1,3.681h.667a15.5,15.5,0,0,0,10.083-3.885,16.091,16.091,0,0,0,5.851-9.288l1.421-6.69a3.174,3.174,0,0,1,3.105-2.515Z" transform="translate(-116.857 -486.691)" fill="#fff"/>
      </g>
      <g id="Group_58" data-name="Group 58" transform="translate(39.543 11.798)">
        <path id="Path_68" data-name="Path 68" d="M324.068,541.945l-3.04,14.2a20.56,20.56,0,0,1-7.192,9.485,18.3,18.3,0,0,1-11.054,3.861h-.594a12.4,12.4,0,0,1-10.306-4.732,12.253,12.253,0,0,1-2.69-7.8,16.4,16.4,0,0,1,.381-3.418l2.746-12.914a3.172,3.172,0,0,1,3.1-2.512h0a3.172,3.172,0,0,1,3.1,3.832l-2.586,12.151a9.452,9.452,0,0,0-.24,2.046,6.668,6.668,0,0,0,1.5,4.312,6.912,6.912,0,0,0,5.8,2.607h.594a11.077,11.077,0,0,0,7.239-2.83,11.663,11.663,0,0,0,4.282-6.692l2.749-12.914a3.172,3.172,0,0,1,3.1-2.512h0A3.172,3.172,0,0,1,324.068,541.945Z" transform="translate(-289.191 -538.109)" fill="#fff"/>
      </g>
      <g id="Group_59" data-name="Group 59" transform="translate(75.511 11.798)">
        <path id="Path_69" data-name="Path 69" d="M480.864,541.771l-3.077,14.371a20.606,20.606,0,0,1-7.193,9.485,18.3,18.3,0,0,1-11.054,3.861h-.594a12.4,12.4,0,0,1-10.306-4.732,12.237,12.237,0,0,1-2.694-7.8,16.654,16.654,0,0,1,.38-3.418l2.774-13.029a3.028,3.028,0,0,1,2.962-2.4h.3a3.028,3.028,0,0,1,2.962,3.658L452.7,554.092a9.289,9.289,0,0,0-.244,2.046,6.672,6.672,0,0,0,1.5,4.312,6.912,6.912,0,0,0,5.8,2.607h.594a11.076,11.076,0,0,0,7.239-2.83,11.662,11.662,0,0,0,4.282-6.692l2.771-13.028a3.028,3.028,0,0,1,2.962-2.4h.3A3.028,3.028,0,0,1,480.864,541.771Z" transform="translate(-445.947 -538.109)" fill="#fff"/>
      </g>
      <g id="Group_60" data-name="Group 60" transform="translate(109.842 11.798)">
        <path id="Path_70" data-name="Path 70" d="M651.521,549.78a15.112,15.112,0,0,1-.354,3.177l-3.015,14.186a3.028,3.028,0,0,1-2.962,2.4h0a3.028,3.028,0,0,1-2.962-3.657l2.867-13.484a9.7,9.7,0,0,0,.187-1.836,6.225,6.225,0,0,0-6.591-6.321h-.3a10.136,10.136,0,0,0-6.618,2.586,10.616,10.616,0,0,0-3.9,6.121l-3.018,14.192a3.028,3.028,0,0,1-2.962,2.4h0a3.028,3.028,0,0,1-2.962-3.657L621.8,552.4a9.978,9.978,0,0,0,.187-1.836,6.226,6.226,0,0,0-6.595-6.321h-.3a10.143,10.143,0,0,0-6.618,2.586,10.634,10.634,0,0,0-3.9,6.121l-3.014,14.141a3.028,3.028,0,0,1-2.961,2.4h0a3.028,3.028,0,0,1-2.961-3.659l3.323-15.6.043-.107a19.562,19.562,0,0,1,6.725-8.534,17.036,17.036,0,0,1,10.126-3.478h.3a12.332,12.332,0,0,1,7.082,2.073,10.985,10.985,0,0,1,3.328,3.548,19.318,19.318,0,0,1,4.819-3.624,16.688,16.688,0,0,1,7.773-2h.3a11.587,11.587,0,0,1,12.075,11.671Z" transform="translate(-595.564 -538.109)" fill="#fff"/>
      </g>
      <g id="Group_61" data-name="Group 61" transform="translate(166.964 11.798)">
        <path id="Path_71" data-name="Path 71" d="M856.2,541.768,850.8,567.091a3.028,3.028,0,0,1-2.962,2.4h-.3a3.028,3.028,0,0,1-2.962-3.659l5.395-25.324a3.028,3.028,0,0,1,2.961-2.4h.3A3.028,3.028,0,0,1,856.2,541.768Z" transform="translate(-844.51 -538.109)" fill="#fff"/>
      </g>
    </g>
    <g id="Group_65" data-name="Group 65" transform="translate(279.376 404.902)">
      <g id="Group_63" data-name="Group 63">
        <path id="Path_72" data-name="Path 72" d="M848.369,429.308h0a2.459,2.459,0,0,0,2.358-2.067l.582-4.144c4.417-2.191,7.018-7.6,4.528-12.536A5.17,5.17,0,0,0,852.8,408a9.583,9.583,0,0,0-4.774-.407,7.1,7.1,0,0,0-5.751-2.694,9.553,9.553,0,0,0-6.442,2.632,7.891,7.891,0,0,0-1.132-.078,9.9,9.9,0,0,0-9.48,8.312,7.1,7.1,0,0,0,3.274,7.285l-.675,4.8a2.648,2.648,0,0,0,2.68,3.119h6.872a2.454,2.454,0,0,0,2.352-2.063h0a1.751,1.751,0,0,0-1.773-2.062h-5.866l.722-5.14a1.746,1.746,0,0,0-1.148-1.959,3.542,3.542,0,0,1-2.316-3.981,4.985,4.985,0,0,1,4.775-4.187,3.931,3.931,0,0,1,1.286.21,2.316,2.316,0,0,0,2.494-.842,4.9,4.9,0,0,1,3.793-1.922,3.522,3.522,0,0,1,3.294,2.009,1.85,1.85,0,0,0,2.41.841,4.447,4.447,0,0,1,1.6-.3,3.558,3.558,0,0,1,3.6,4.187,5,5,0,0,1-3.5,4,2.469,2.469,0,0,0-1.724,1.968l-.782,5.5A1.755,1.755,0,0,0,848.369,429.308Z" transform="translate(-825.139 -404.902)" fill="#fff"/>
      </g>
      <g id="Group_64" data-name="Group 64" transform="translate(15.564 8.667)">
        <path id="Path_73" data-name="Path 73" d="M898.433,447.572a1.3,1.3,0,0,1-1.247,1.093.929.929,0,0,1-.939-1.093,2.3,2.3,0,0,0-2.328-2.714.928.928,0,0,1-.94-1.093,1.3,1.3,0,0,1,1.247-1.093A4.161,4.161,0,0,1,898.433,447.572Z" transform="translate(-892.968 -442.672)" fill="#fff"/>
      </g>
    </g>
  </g>
</svg>
