<?xml version="1.0" encoding="utf-8"?>
<!-- Generator: Adobe Illustrator 26.2.1, SVG Export Plug-In . SVG Version: 6.00 Build 0)  -->
<svg version="1.1" id="Capa_1" xmlns="http://www.w3.org/2000/svg" xmlns:xlink="http://www.w3.org/1999/xlink" x="0px" y="0px"
	 viewBox="0 0 30 50" style="enable-background:new 0 0 30 50;" xml:space="preserve">
<style type="text/css">
	.st0{fill:#FC4343;}
</style>
<g>
	<path id="Path_635" class="st0" d="M22.7,0.7H7.3C3.8,0.6,1,3.3,0.9,6.8c0,0.1,0,0.2,0,0.4v35.7c-0.1,3.5,2.6,6.4,6.1,6.5
		c0.1,0,0.3,0,0.4,0c5.1,0,10.2,0,15.3,0c3.5,0.1,6.4-2.6,6.5-6.1c0-0.2,0-0.3,0-0.5V25.1c0-6,0-12,0-18c0.1-3.5-2.7-6.3-6.1-6.4
		C22.9,0.6,22.8,0.6,22.7,0.7z M2.4,6.4C2.7,4,4.7,2.2,7.1,2.2c5.2,0,10.5,0,15.7,0c2.4,0,4.4,1.8,4.7,4.2c0,0.3,0,0.5-0.4,0.5
		c-4,0-8.1,0-12.1,0c-4,0-8.1,0-12.1,0C2.5,6.9,2.4,6.9,2.4,6.4L2.4,6.4z M27.5,43.9c-0.4,2.2-2.2,3.8-4.4,3.9c-5.4,0-10.7,0-16.1,0
		c-2.5-0.1-4.5-2.1-4.5-4.5c0-0.9,0-1.9,0-2.8c0-0.4,0.1-0.5,0.4-0.5c3.7,0,7.3,0,11,0H15c4,0,8,0,12.1,0c0.4,0,0.5,0.1,0.5,0.4
		C27.6,41.5,27.6,42.7,27.5,43.9L27.5,43.9z M27.6,37.9c0,0.4-0.1,0.5-0.5,0.5c-8.1,0-16.1,0-24.1,0c-0.4,0-0.5-0.1-0.5-0.5
		c0-4.8,0-9.6,0-14.4s0-9.6,0-14.4c0-0.4,0.1-0.5,0.5-0.5c8.1,0,16.1,0,24.1,0c0.4,0,0.5,0.1,0.5,0.5C27.6,18.6,27.6,28.2,27.6,37.9
		L27.6,37.9z"/>
	<path id="Trazado_635_-_Contorno" class="st0" d="M7.3,0.1h15.4c3.8-0.1,6.9,2.9,7,6.7c0,0.1,0,0.2,0,0.3c0,4,0,8.1,0,12
		c0,2,0,4,0,6v17.8c0.1,3.8-2.8,7-6.6,7.1c-0.2,0-0.3,0-0.5,0c-2.5,0-5.1,0-7.6,0s-5.1,0-7.6,0c-3.8,0.1-7-2.8-7.1-6.6
		c0-0.1,0-0.3,0-0.4V7.1c-0.1-3.8,2.9-7,6.7-7.1C7.1,0.1,7.2,0.1,7.3,0.1L7.3,0.1z M15,48.8c2.5,0,5.1,0,7.6,0
		c3.2,0.1,5.8-2.3,5.9-5.5c0-0.2,0-0.3,0-0.5V25.1c0-2,0-4,0-6c0-3.9,0-8,0-12c0.1-3.1-2.4-5.8-5.5-5.9c-0.1,0-0.2,0-0.3,0H7.3
		C4.2,1.1,1.5,3.6,1.4,6.8c0,0.1,0,0.3,0,0.4v35.7c-0.1,3.1,2.3,5.8,5.5,5.9c0.1,0,0.3,0,0.4,0C9.9,48.8,12.5,48.8,15,48.8L15,48.8z
		 M15,1.6c2.6,0,5.3,0,7.9,0c1.3,0,2.6,0.5,3.5,1.3c1,0.9,1.6,2.1,1.7,3.4c0.1,0.3,0,0.6-0.2,0.9c-0.2,0.2-0.5,0.3-0.8,0.3l0,0
		c-2.8,0-5.5,0-8.1,0h-8.9c-2.1,0-4.7,0-7.2,0h0c-0.3,0-0.6-0.1-0.8-0.3C1.9,7,1.8,6.7,1.9,6.4c0.3-2.7,2.6-4.7,5.3-4.7
		C9.7,1.6,12.4,1.6,15,1.6L15,1.6z M26.9,6.4c-0.1-1-0.6-1.9-1.3-2.5c-0.8-0.7-1.7-1.1-2.8-1c-2.6,0-5.2,0-7.9,0s-5.2,0-7.9,0
		c-1,0-2,0.4-2.8,1.1C3.7,4.5,3.2,5.4,3,6.4c2.5,0,5,0,7.1,0H19C21.6,6.4,24.2,6.4,26.9,6.4L26.9,6.4z M2.9,7.9c4,0,8.1,0,12.1,0
		s8.1,0,12.1,0c0.3,0,0.6,0.1,0.8,0.3c0.2,0.2,0.3,0.5,0.3,0.8c0,9.6,0,19.3,0,28.9c0.1,0.5-0.3,1-0.8,1.1c-0.1,0-0.2,0-0.3,0
		c-4,0-8.1,0-12.1,0s-8.1,0-12.1,0c-0.5,0.1-1-0.3-1.1-0.8c0-0.1,0-0.2,0-0.3c0-4,0-8.1,0-12c0-0.8,0-1.6,0-2.4c0-0.8,0-1.6,0-2.4
		c0-3.9,0-8,0-12C1.8,8.5,2.1,8,2.6,7.9C2.7,7.9,2.8,7.9,2.9,7.9L2.9,7.9z M27,37.8c0-9.5,0-19.2,0-28.7c-4,0-8,0-12,0s-8,0-12,0
		c0,4,0,8,0,11.9c0,0.8,0,1.6,0,2.4c0,0.8,0,1.6,0,2.4c0,3.9,0,8,0,11.9c4,0,8,0,12,0S23,37.8,27,37.8L27,37.8z M2.9,39.3
		c2.3,0,4.6,0,6.6,0h10.5c2.1,0,4.7,0,7.2,0c0.3,0,0.6,0.1,0.8,0.3c0.2,0.2,0.3,0.5,0.2,0.8c0,0.4,0,0.9,0,1.3c0,0.8,0,1.5-0.1,2.3
		c-0.4,2.5-2.5,4.3-5,4.4c-2.7,0-5.4,0-8.1,0s-5.4,0-8.1,0c-2.8-0.1-5-2.3-5.1-5.1c0-0.5,0-0.9,0-1.4c0-0.5,0-1,0-1.4
		c0-0.3,0.1-0.6,0.2-0.8C2.3,39.4,2.6,39.3,2.9,39.3L2.9,39.3z M15,47.2c2.7,0,5.4,0,8,0c1.9-0.1,3.6-1.5,3.9-3.4
		c0.1-0.7,0.1-1.4,0.1-2.1c0-0.4,0-0.8,0-1.2c-2.5,0-5,0-7.1,0H9.4c-1.9,0-4.2,0-6.4,0c0,0.5,0,0.9,0,1.4c0,0.4,0,0.9,0,1.4
		c0,1,0.5,2,1.2,2.8c0.7,0.7,1.7,1.2,2.7,1.2C9.6,47.2,12.3,47.2,15,47.2L15,47.2z"/>
	<path id="Path_636" class="st0" d="M15,41.5c-1.3,0-2.4,1.1-2.4,2.4c0,1.3,1.1,2.4,2.4,2.4c1.3,0,2.4-1.1,2.4-2.4c0,0,0,0,0,0
		C17.3,42.5,16.3,41.5,15,41.5z M14.9,44.6c-0.4,0-0.8-0.4-0.7-0.8c0-0.4,0.4-0.8,0.8-0.7c0.4,0,0.7,0.4,0.7,0.8
		C15.8,44.3,15.4,44.6,14.9,44.6C15,44.6,15,44.6,14.9,44.6z"/>
	<path id="Trazado_636_-_Contorno" class="st0" d="M15,40.9c1.6,0,2.9,1.3,2.9,2.9c0,0.8-0.3,1.5-0.9,2.1c-1.2,1.1-3,1.1-4.2,0
		c-0.5-0.6-0.9-1.3-0.9-2.1C12.1,42.2,13.4,40.9,15,40.9L15,40.9z M15,45.6c0.5,0,0.9-0.2,1.3-0.5c0.7-0.7,0.7-1.8,0-2.5
		c-0.3-0.3-0.8-0.5-1.3-0.5h0c-1,0-1.8,0.8-1.8,1.8C13.2,44.8,14,45.6,15,45.6C15,45.6,15,45.6,15,45.6L15,45.6z M15,42.5L15,42.5
		c0.8,0,1.4,0.6,1.4,1.4v0c0,0.7-0.6,1.3-1.4,1.3c0,0-0.1,0-0.1,0c-0.7,0-1.3-0.7-1.3-1.4v0C13.7,43.1,14.3,42.5,15,42.5L15,42.5z
		 M15,43.6L15,43.6c-0.1,0-0.2,0.1-0.2,0.2c0,0.1,0.1,0.2,0.2,0.2h0c0.1,0,0.2-0.1,0.2-0.2C15.2,43.7,15.1,43.7,15,43.6L15,43.6z"/>
	<path id="Path_637" class="st0" d="M17.3,3.8c-1.5,0-3,0-4.6,0c-0.4,0-0.8,0.3-0.9,0.7c0,0,0,0.1,0,0.1c0,0.4,0.4,0.8,0.8,0.8
		c0,0,0.1,0,0.1,0c0.7,0,1.5,0,2.2,0c0.8,0,1.5,0,2.3,0c0.4,0.1,0.8-0.3,0.9-0.7c0,0,0,0,0-0.1C18.1,4.2,17.8,3.8,17.3,3.8
		C17.3,3.8,17.3,3.8,17.3,3.8z"/>
	<path id="Trazado_637_-_Contorno" class="st0" d="M15,3.2c0.8,0,1.5,0,2.3,0c0.4,0,0.8,0.1,1.1,0.4c0.3,0.3,0.4,0.6,0.4,1v0
		c0,0.8-0.6,1.4-1.4,1.3c0,0,0,0-0.1,0c-0.3,0-0.7,0-1.2,0h-1.2h-1.1c-0.4,0-0.8,0-1.1,0c-0.8,0-1.4-0.5-1.5-1.3c0,0,0,0,0-0.1v0
		c0-0.4,0.1-0.7,0.4-1c0.3-0.3,0.7-0.4,1.1-0.4C13.5,3.2,14.2,3.2,15,3.2z M17.6,4.6c0,0,0-0.1,0-0.1c-0.1-0.1-0.2-0.1-0.2-0.1
		c-0.8,0-1.5,0-2.3,0s-1.5,0-2.3,0c-0.1,0-0.2,0-0.2,0.1c0,0,0,0.1,0,0.1c0,0.1,0,0.2,0.3,0.2c0.3,0,0.7,0,1.1,0h1.1h1.2
		c0.5,0,0.8,0,1.1,0C17.5,4.8,17.6,4.6,17.6,4.6z"/>
	<path id="Path_638" class="st0" d="M15,41.5c-1.3,0-2.4,1.1-2.4,2.4c0,1.3,1.1,2.4,2.4,2.4c1.3,0,2.4-1.1,2.4-2.4c0,0,0,0,0,0
		C17.3,42.5,16.3,41.5,15,41.5z M14.9,44.6c-0.4,0-0.8-0.4-0.7-0.8c0-0.4,0.4-0.8,0.8-0.7c0.4,0,0.7,0.4,0.7,0.8
		C15.8,44.3,15.4,44.6,14.9,44.6C15,44.6,15,44.6,14.9,44.6z"/>
	<path id="Trazado_638_-_Contorno" class="st0" d="M15,40.9c1.6,0,2.9,1.3,2.9,2.9c0,0.8-0.3,1.5-0.9,2.1c-1.2,1.1-3,1.1-4.2,0
		c-0.5-0.6-0.9-1.3-0.9-2.1C12.1,42.2,13.4,40.9,15,40.9L15,40.9z M15,45.6c0.5,0,0.9-0.2,1.3-0.5c0.7-0.7,0.7-1.8,0-2.5
		c-0.3-0.3-0.8-0.5-1.3-0.5h0c-1,0-1.8,0.8-1.8,1.8C13.2,44.8,14,45.6,15,45.6C15,45.6,15,45.6,15,45.6L15,45.6z M15,42.5L15,42.5
		c0.8,0,1.4,0.6,1.4,1.4v0c0,0.7-0.6,1.3-1.4,1.3c0,0-0.1,0-0.1,0c-0.7,0-1.3-0.7-1.3-1.4v0C13.7,43.1,14.3,42.5,15,42.5L15,42.5z
		 M15,43.6L15,43.6c-0.1,0-0.2,0.1-0.2,0.2c0,0.1,0.1,0.2,0.2,0.2h0c0.1,0,0.2-0.1,0.2-0.2C15.2,43.7,15.1,43.7,15,43.6L15,43.6z"/>
</g>
</svg>
