<svg xmlns="http://www.w3.org/2000/svg" width="38.076" height="64.492" viewBox="0 0 38.076 64.492">
  <g id="app-icon" transform="translate(0.75 0.75)">
    <path id="Path_635" data-name="Path 635" d="M1921.346,554.08h-19.871a8.135,8.135,0,0,0-8.354,8.385v46.211a8.125,8.125,0,0,0,8.41,8.391q9.877.009,19.742,0a8.135,8.135,0,0,0,8.422-8.447V585.641q0-11.616,0-23.238A8.126,8.126,0,0,0,1921.346,554.08Zm-26.179,7.491a6.114,6.114,0,0,1,6.079-5.45q10.164-.037,20.322,0a6.1,6.1,0,0,1,6.073,5.45c.055.45.012.654-.549.654-5.228-.025-10.457-.018-15.685-.018-5.21,0-10.414-.006-15.624.012C1895.259,562.225,1895.1,562.12,1895.167,561.571Zm32.381,48.436a5.963,5.963,0,0,1-5.728,5.006q-10.4.074-20.821,0a6.024,6.024,0,0,1-5.839-5.876c-.031-1.227.018-2.46-.019-3.681-.019-.475.1-.592.579-.592,4.741.018,9.483.012,14.218.012h1.529c5.2,0,10.407.006,15.617-.012.462,0,.617.086.586.58A41.75,41.75,0,0,1,1927.548,610.008Zm.13-7.8c0,.53-.123.654-.654.654q-15.62-.028-31.235,0c-.53,0-.654-.123-.654-.654.025-6.221.019-12.442.019-18.663s.006-12.448-.019-18.669c0-.524.123-.647.654-.647q15.62.028,31.235,0c.53,0,.654.117.654.647Q1927.65,583.539,1927.678,602.208Z" transform="translate(-1893.12 -554.08)" fill="#fc4343"/>
    <path id="Trazado_635_-_Contorno" data-name="Trazado 635 - Contorno" d="M1901.473,553.33h19.872a8.875,8.875,0,0,1,9.1,9.073c0,5.168,0,10.418,0,15.5q0,3.872,0,7.743V608.62a8.883,8.883,0,0,1-9.172,9.2c-3.273,0-6.594,0-9.869,0s-6.6,0-9.874,0a8.874,8.874,0,0,1-9.159-9.141V562.465a8.884,8.884,0,0,1,9.1-9.135Zm9.93,62.992c3.274,0,6.594,0,9.868,0a7.386,7.386,0,0,0,7.673-7.7V585.641q0-3.872,0-7.744c0-5.077,0-10.327,0-15.494a7.377,7.377,0,0,0-7.6-7.574h-19.87a7.377,7.377,0,0,0-7.605,7.635v46.211a7.376,7.376,0,0,0,7.66,7.641C1904.807,616.32,1908.129,616.322,1911.4,616.322Zm0-60.969c3.371,0,6.791.006,10.163.019a6.822,6.822,0,0,1,4.57,1.741,7.066,7.066,0,0,1,2.245,4.364,1.362,1.362,0,0,1-.245,1.112,1.337,1.337,0,0,1-1.048.386h0c-3.572-.017-7.133-.019-10.45-.019h-11.485c-2.778,0-6.062,0-9.365.013h-.047a1.364,1.364,0,0,1-1.065-.384,1.382,1.382,0,0,1-.254-1.106,6.87,6.87,0,0,1,6.822-6.108C1904.616,555.359,1908.036,555.352,1911.407,555.352Zm15.462,6.121a5.545,5.545,0,0,0-1.734-3.248,5.325,5.325,0,0,0-3.569-1.355c-3.372-.012-6.79-.019-10.159-.019s-6.787.006-10.158.019a5.331,5.331,0,0,0-3.573,1.36,5.549,5.549,0,0,0-1.736,3.237c3.252-.011,6.479-.013,9.214-.013h11.485C1919.887,561.456,1923.371,561.458,1926.869,561.474Zm-31.08,2c5.183.009,10.437.014,15.617.014s10.434,0,15.616-.014a1.418,1.418,0,0,1,1.053.34,1.4,1.4,0,0,1,.352,1.057c-.018,12.386-.018,24.946,0,37.331a1.234,1.234,0,0,1-1.4,1.4c-5.183-.009-10.437-.014-15.617-.014s-10.434,0-15.616.014a1.234,1.234,0,0,1-1.4-1.4c.021-5.183.02-10.45.019-15.544q0-1.56,0-3.119t0-3.122c0-5.1,0-10.365-.019-15.544A1.232,1.232,0,0,1,1895.79,563.478Zm31.138,38.633c-.018-12.319-.018-24.812,0-37.133-5.15.009-10.372.014-15.521.014s-10.369,0-15.521-.014c.02,5.147.019,10.381.019,15.445q0,1.561,0,3.122t0,3.119c0,5.063,0,10.3-.019,15.448,5.15-.009,10.372-.014,15.521-.014S1921.776,602.1,1926.928,602.112Zm-31.206,2c3,.012,5.982.013,8.5.013h13.524c2.767,0,6.04,0,9.335-.013a1.363,1.363,0,0,1,1.043.357,1.31,1.31,0,0,1,.294,1.015c-.029.558-.019,1.116-.007,1.706a16.139,16.139,0,0,1-.125,2.935,6.713,6.713,0,0,1-6.463,5.636c-3.453.025-6.957.037-10.413.037s-6.961-.012-10.418-.037a6.762,6.762,0,0,1-6.583-6.607c-.015-.6-.011-1.211-.008-1.8,0-.618.008-1.257-.011-1.875a1.325,1.325,0,0,1,.309-1.017A1.364,1.364,0,0,1,1895.722,604.116Zm15.691,10.185c3.453,0,6.953-.012,10.4-.037a5.2,5.2,0,0,0,4.993-4.377,14.777,14.777,0,0,0,.105-2.665c-.01-.524-.021-1.063,0-1.606-3.236.011-6.445.013-9.165.013h-13.524c-2.472,0-5.386,0-8.327-.013.014.587.01,1.178.007,1.751s-.007,1.173.007,1.752a5.324,5.324,0,0,0,1.548,3.607,5.021,5.021,0,0,0,3.547,1.537C1904.458,614.289,1907.96,614.3,1911.412,614.3Z" transform="translate(-1893.12 -554.08)" fill="#fc4343"/>
    <path id="Path_636" data-name="Path 636" d="M1920.886,639.77a3.046,3.046,0,1,0,3.046,3.009A3.062,3.062,0,0,0,1920.886,639.77Zm-.062,4.057a1.015,1.015,0,1,1,1.079-1A1.023,1.023,0,0,1,1920.824,643.827Z" transform="translate(-1902.599 -586.938)" fill="#fc4343"/>
    <path id="Trazado_636_-_Contorno" data-name="Trazado 636 - Contorno" d="M1920.9,639.02a3.8,3.8,0,0,1,3.784,3.756,3.807,3.807,0,0,1-1.116,2.72,3.8,3.8,0,0,1-6.475-2.717,3.82,3.82,0,0,1,3.793-3.759Zm-.011,6.092a2.269,2.269,0,0,0,1.617-.674,2.29,2.29,0,0,0-1.606-3.917h-.008a2.313,2.313,0,0,0-2.3,2.273,2.309,2.309,0,0,0,2.3,2.318Zm0-4.063h.048a1.783,1.783,0,0,1,1.717,1.788v.008a1.779,1.779,0,0,1-1.765,1.735c-.036,0-.073,0-.109,0a1.778,1.778,0,0,1-1.661-1.828v-.009A1.767,1.767,0,0,1,1920.888,641.048Zm0,1.5h0a.277.277,0,0,0-.27.254.273.273,0,0,0,.248.276h.006a.278.278,0,0,0,.281-.263A.282.282,0,0,0,1920.89,642.548Z" transform="translate(-1902.599 -586.938)" fill="#fc4343"/>
    <path id="Path_637" data-name="Path 637" d="M1923.2,560.674c-1.967-.012-3.927-.012-5.894,0a1.011,1.011,0,0,0-1.116,1.023,1.026,1.026,0,0,0,1.147,1c.949.012,1.9.006,2.849.006.993,0,1.985.006,2.978-.006a1.031,1.031,0,0,0,1.153-.993A1.012,1.012,0,0,0,1923.2,560.674Z" transform="translate(-1901.966 -556.605)" fill="#fc4343"/>
    <path id="Trazado_637_-_Contorno" data-name="Trazado 637 - Contorno" d="M1920.253,559.915c.978,0,1.972,0,2.952.009a1.9,1.9,0,0,1,1.37.535,1.736,1.736,0,0,1,.491,1.252v.008a1.774,1.774,0,0,1-1.9,1.727c-.429.005-.891.008-1.495.008l-1.49,0-1.425,0c-.578,0-1.02,0-1.433-.008a1.772,1.772,0,0,1-1.887-1.733v-.008a1.727,1.727,0,0,1,.489-1.245,1.91,1.91,0,0,1,1.377-.536C1918.281,559.918,1919.275,559.915,1920.253,559.915Zm3.313,1.778a.245.245,0,0,0-.057-.178.447.447,0,0,0-.309-.09c-.982-.006-1.972-.009-2.947-.009s-1.965,0-2.942.009a.454.454,0,0,0-.315.091.218.218,0,0,0-.056.172c0,.086.012.256.4.26.41.005.846.008,1.417.008l1.425,0,1.49,0c.6,0,1.053,0,1.479-.008C1923.553,561.943,1923.564,561.771,1923.566,561.693Z" transform="translate(-1901.966 -556.605)" fill="#fc4343"/>
    <path id="Path_638" data-name="Path 638" d="M1920.886,639.77a3.046,3.046,0,1,0,3.046,3.009A3.062,3.062,0,0,0,1920.886,639.77Zm-.062,4.057a1.015,1.015,0,1,1,1.079-1A1.023,1.023,0,0,1,1920.824,643.827Z" transform="translate(-1902.599 -586.938)" fill="#fc4343"/>
    <path id="Trazado_638_-_Contorno" data-name="Trazado 638 - Contorno" d="M1920.9,639.02a3.8,3.8,0,0,1,3.784,3.756,3.807,3.807,0,0,1-1.116,2.72,3.8,3.8,0,0,1-6.475-2.717,3.82,3.82,0,0,1,3.793-3.759Zm-.011,6.092a2.269,2.269,0,0,0,1.617-.674,2.29,2.29,0,0,0-1.606-3.917h-.008a2.313,2.313,0,0,0-2.3,2.273,2.309,2.309,0,0,0,2.3,2.318Zm0-4.063h.048a1.783,1.783,0,0,1,1.717,1.788v.008a1.779,1.779,0,0,1-1.765,1.735c-.036,0-.073,0-.109,0a1.778,1.778,0,0,1-1.661-1.828v-.009A1.767,1.767,0,0,1,1920.888,641.048Zm0,1.5h0a.277.277,0,0,0-.27.254.273.273,0,0,0,.248.276h.006a.278.278,0,0,0,.281-.263A.282.282,0,0,0,1920.89,642.548Z" transform="translate(-1902.599 -586.938)" fill="#fc4343"/>
  </g>
</svg>
