<svg xmlns="http://www.w3.org/2000/svg" width="64.73" height="68.243" viewBox="0 0 64.73 68.243">
  <g id="canales-venta-icon" transform="translate(0.6 0.6)">
    <path id="Path_608" data-name="Path 608" d="M686.321-325.279c0,.259.209.418.338.608q3.9,5.764,7.8,11.521a5.311,5.311,0,0,1,.484,5.538,5.254,5.254,0,0,1-7.612,2.033,6.51,6.51,0,0,1-1.811-1.789q-4.456-6.574-8.916-13.145c-.218-.322-.331-.495-.784-.241a7.992,7.992,0,0,1-8.6-.112,8.454,8.454,0,0,1-4.21-7.692,8.037,8.037,0,0,1,3.668-6.7c1.739-1.216,3.5-2.393,5.274-3.565a2.57,2.57,0,0,0,.935-1.05q5-10.175,10.019-20.339a4.73,4.73,0,0,1,3.931-2.691,10.267,10.267,0,0,1,6.148,1.5,29.76,29.76,0,0,1,8.8,7.585,39.566,39.566,0,0,1,7.984,14.919,14.875,14.875,0,0,1,.336,7.783,5.589,5.589,0,0,1-5.208,4.3c-6.055.362-12.1.933-18.145,1.421C686.614-325.381,686.452-325.406,686.321-325.279Zm-1.961-30.313a19.321,19.321,0,0,0,.882,4.9A38.91,38.91,0,0,0,695.878-334a17.963,17.963,0,0,0,6.756,4.3,3.79,3.79,0,0,0,2.119.27,3.659,3.659,0,0,0,2.73-2.741,11.079,11.079,0,0,0-.059-5.523,29.87,29.87,0,0,0-4.022-9.344,37.209,37.209,0,0,0-8.951-10.3,14.644,14.644,0,0,0-5.553-2.862,3.284,3.284,0,0,0-4.339,2.793C684.443-356.818,684.424-356.2,684.36-355.591Zm-2.34,2.975c-2.271,4.634-4.523,9.244-6.8,13.844-.175.353.021.532.172.755,2.223,3.277,4.459,6.545,6.66,9.837a.994.994,0,0,0,1.06.505c4.431-.366,8.864-.707,13.3-1.059.567-.045,1.133-.108,1.679-.16A40.964,40.964,0,0,1,682.02-352.617Zm-10.427,30.463a5.751,5.751,0,0,0,3.164-.934c1.64-1.09,3.255-2.216,4.894-3.307.295-.2.284-.33.1-.6q-3.147-4.606-6.268-9.23c-.193-.286-.331-.3-.6-.111-1.6,1.107-3.232,2.173-4.818,3.3a5.715,5.715,0,0,0-2.2,6.438A6.208,6.208,0,0,0,671.594-322.154Zm21.3,12.177a3,3,0,0,0-.638-1.822q-4.259-6.268-8.506-12.544c-.6-.888-1.076-.979-1.97-.374-.96.649-1.905,1.323-2.885,1.941-.418.263-.426.444-.153.84,1.837,2.665,3.647,5.349,5.465,8.027,1.241,1.828,2.466,3.666,3.727,5.48a2.683,2.683,0,0,0,3.079,1.025A2.719,2.719,0,0,0,692.9-309.977Z" transform="translate(-663.016 371.75)" fill="#fc4343"/>
    <path id="Trazado_608_-_Contorno" data-name="Trazado 608 - Contorno" d="M690.247-304.107a5.849,5.849,0,0,1-3.243-.973,7.137,7.137,0,0,1-1.976-1.952q-1.786-2.635-3.576-5.269c-1.752-2.581-3.564-5.249-5.341-7.877l0-.006-.021-.031a9.321,9.321,0,0,1-4.537,1.258,8.678,8.678,0,0,1-4.641-1.4,9.065,9.065,0,0,1-4.492-8.212,8.6,8.6,0,0,1,3.924-7.178c1.806-1.263,3.676-2.507,5.287-3.573a1.983,1.983,0,0,0,.727-.815c2.783-5.665,5.621-11.421,8.366-16.987l1.653-3.353a5.3,5.3,0,0,1,4.4-3.022,8.4,8.4,0,0,1,.987-.058,11.847,11.847,0,0,1,5.516,1.627,30.329,30.329,0,0,1,8.982,7.733,39.97,39.97,0,0,1,8.1,15.145,15.567,15.567,0,0,1,.336,8.092,6.49,6.49,0,0,1-1.983,3.253,6.236,6.236,0,0,1-3.769,1.492c-4.331.259-8.731.631-12.986.992-1.534.13-3.116.264-4.681.391,2.46,3.639,5.044,7.455,7.685,11.345a6.335,6.335,0,0,1,1.127,2.994,6.055,6.055,0,0,1-.6,3.136A5.769,5.769,0,0,1,690.247-304.107Zm-14.067-17.37a1.116,1.116,0,0,1,.921.621l0,.006c1.777,2.627,3.588,5.3,5.34,7.875q1.789,2.634,3.576,5.27a5.944,5.944,0,0,0,1.646,1.625,4.652,4.652,0,0,0,2.58.773,4.565,4.565,0,0,0,4.157-2.56,4.741,4.741,0,0,0-.437-4.947c-2.684-3.953-5.309-7.83-7.8-11.522-.018-.027-.049-.064-.08-.1a1.3,1.3,0,0,1-.361-.831l0-.259.185-.181a1.045,1.045,0,0,1,.754-.28l.059,0c1.713-.138,3.455-.286,5.14-.429,4.263-.361,8.671-.734,13.016-.994a4.974,4.974,0,0,0,4.664-3.856,14.084,14.084,0,0,0-.336-7.474,38.8,38.8,0,0,0-7.868-14.693,29.163,29.163,0,0,0-8.624-7.437,10.266,10.266,0,0,0-4.946-1.484,7.2,7.2,0,0,0-.846.05,4.117,4.117,0,0,0-3.464,2.361l-1.653,3.353c-2.745,5.566-5.583,11.321-8.365,16.986a3.163,3.163,0,0,1-1.142,1.286c-1.6,1.063-3.467,2.3-5.262,3.556a7.454,7.454,0,0,0-3.412,6.217,8.119,8.119,0,0,0,.961,4.144,8.386,8.386,0,0,0,2.967,3.028,7.5,7.5,0,0,0,4,1.219,8.154,8.154,0,0,0,3.982-1.122A1.32,1.32,0,0,1,676.181-321.476Zm13.963,14.812h0a3.251,3.251,0,0,1-2.7-1.422c-.883-1.27-1.762-2.572-2.612-3.832q-.559-.827-1.119-1.654l-1.291-1.9c-1.362-2.01-2.77-4.087-4.171-6.119a1.219,1.219,0,0,1-.274-.944,1.193,1.193,0,0,1,.6-.744c.67-.422,1.339-.882,1.986-1.327.289-.2.587-.4.883-.6a2.3,2.3,0,0,1,1.284-.489,1.91,1.91,0,0,1,1.519,1.024l1.941,2.864c2.15,3.174,4.374,6.455,6.565,9.68a3.625,3.625,0,0,1,.742,2.172,3.312,3.312,0,0,1-2.3,3.131A3.436,3.436,0,0,1,690.143-306.665ZM679.237-322.28l0,0c1.4,2.035,2.813,4.115,4.176,6.127l1.291,1.9q.562.827,1.12,1.656c.848,1.256,1.725,2.555,2.6,3.818a2.066,2.066,0,0,0,1.713.907h0a2.238,2.238,0,0,0,.688-.11,2.114,2.114,0,0,0,1.466-2.005V-310a2.375,2.375,0,0,0-.535-1.462c-2.192-3.225-4.415-6.507-6.566-9.681l-1.941-2.864c-.224-.33-.4-.5-.525-.5a1.285,1.285,0,0,0-.612.283c-.292.2-.589.4-.875.6C680.593-323.174,679.921-322.712,679.237-322.28Zm-7.6.727h-.053a6.408,6.408,0,0,1-3.885-1.375,7.079,7.079,0,0,1-2.416-3.483,6.251,6.251,0,0,1,.033-3.925,6.442,6.442,0,0,1,2.4-3.183c.959-.682,1.948-1.351,2.9-2,.631-.427,1.284-.868,1.92-1.308a1.118,1.118,0,0,1,.635-.232,1,1,0,0,1,.807.5c1.99,2.95,4.039,5.968,6.266,9.227a1.053,1.053,0,0,1,.22.793,1.023,1.023,0,0,1-.484.643c-.8.533-1.612,1.085-2.4,1.619-.816.556-1.661,1.131-2.5,1.688A6.382,6.382,0,0,1,671.641-321.554Zm1.443-14.189c-.6.411-1.2.822-1.792,1.219-.951.643-1.933,1.307-2.881,1.982a5.1,5.1,0,0,0-1.98,5.768,5.885,5.885,0,0,0,2.007,2.9,5.218,5.218,0,0,0,3.161,1.124h.042a5.152,5.152,0,0,0,2.785-.834c.832-.553,1.674-1.126,2.487-1.68.736-.5,1.5-1.018,2.251-1.523C677.008-329.946,675.017-332.878,673.084-335.743Zm9.864,8.676h0a1.548,1.548,0,0,1-1.389-.78c-1.575-2.355-3.2-4.739-4.762-7.043q-.948-1.395-1.9-2.791c-.017-.024-.034-.048-.051-.072a1.146,1.146,0,0,1-.163-1.286c1.806-3.655,3.632-7.384,5.4-10.991l1.4-2.851.719-1.468.4,1.584a41.333,41.333,0,0,0,5.809,13.123,41.906,41.906,0,0,0,10.036,10.263l1.275.931-1.571.151-.521.052c-.38.038-.773.078-1.167.109l-3.973.313c-3.056.24-6.216.489-9.322.745C683.089-327.07,683.018-327.067,682.948-327.067Zm-7.176-11.459.049.069c.024.034.049.067.072.1q.947,1.4,1.9,2.79c1.568,2.307,3.19,4.692,4.768,7.051.158.237.234.246.391.246.036,0,.077,0,.121-.005,3.109-.256,6.27-.505,9.327-.745l3.972-.313.136-.011a42.636,42.636,0,0,1-9.085-9.624,42.108,42.108,0,0,1-5.559-11.956l-.7,1.421C679.4-345.9,677.576-342.176,675.772-338.526Zm28.424,9.758h0a5.469,5.469,0,0,1-1.712-.354l-.036-.012a18.338,18.338,0,0,1-6.983-4.431,42.256,42.256,0,0,1-6.487-7.766,38.261,38.261,0,0,1-4.308-9.178,20.022,20.022,0,0,1-.909-5.053l0-.046,0-.046c.019-.185.035-.378.05-.564a11.878,11.878,0,0,1,.156-1.313,4.376,4.376,0,0,1,1.312-2.5,3.694,3.694,0,0,1,2.515-.91,5.487,5.487,0,0,1,1.236.149,15.339,15.339,0,0,1,5.782,2.97,37.761,37.761,0,0,1,9.1,10.466,30.222,30.222,0,0,1,4.1,9.532,11.836,11.836,0,0,1,.048,5.818,4.229,4.229,0,0,1-3.161,3.155A2.909,2.909,0,0,1,704.2-328.768Zm-19.235-26.808a18.82,18.82,0,0,0,.853,4.705,37.057,37.057,0,0,0,4.173,8.89,41.055,41.055,0,0,0,6.3,7.544,17.2,17.2,0,0,0,6.528,4.16l.036.012a4.508,4.508,0,0,0,1.342.3h0a1.685,1.685,0,0,0,.412-.049,3.064,3.064,0,0,0,2.3-2.328,10.568,10.568,0,0,0-.069-5.229,29.077,29.077,0,0,0-3.946-9.156,36.591,36.591,0,0,0-8.8-10.142,13.855,13.855,0,0,0-5.324-2.754,4.29,4.29,0,0,0-.964-.118,2.482,2.482,0,0,0-1.714.6,3.215,3.215,0,0,0-.936,1.838,10.806,10.806,0,0,0-.138,1.181C685-355.943,684.98-355.759,684.962-355.576Z" transform="translate(-663.016 371.75)" fill="#fc4343"/>
    <path id="Path_609" data-name="Path 609" d="M949.25-356.16a1.184,1.184,0,0,1-.6,1q-4.466,2.939-8.941,5.865a1.342,1.342,0,0,1-1.862-.359,1.279,1.279,0,0,1,.429-1.827q4.435-2.927,8.885-5.832a1.291,1.291,0,0,1,1.424-.082A1.287,1.287,0,0,1,949.25-356.16Z" transform="translate(-889.365 367.308)" fill="#fc4343"/>
    <path id="Trazado_609_-_Contorno" data-name="Trazado 609 - Contorno" d="M947.95-358.167a1.889,1.889,0,0,1,.931.253,1.873,1.873,0,0,1,.968,1.744,1.772,1.772,0,0,1-.866,1.516l-1.3.857c-2.5,1.646-5.088,3.349-7.642,5.009a1.988,1.988,0,0,1-1.085.326,1.921,1.921,0,0,1-1.6-.855,1.851,1.851,0,0,1-.286-1.4,2,2,0,0,1,.884-1.261c1.991-1.314,4.019-2.643,5.98-3.928l2.906-1.9A2.019,2.019,0,0,1,947.95-358.167Zm-9,8.505a.791.791,0,0,0,.431-.132c2.551-1.659,5.136-3.36,7.636-5.006l1.3-.857a.61.61,0,0,0,.326-.486v-.014a.694.694,0,0,0-.355-.711.7.7,0,0,0-.345-.1.849.849,0,0,0-.457.16l-2.906,1.905c-1.961,1.285-3.988,2.613-5.977,3.926a.809.809,0,0,0-.369.5.651.651,0,0,0,.109.5A.723.723,0,0,0,938.954-349.662Z" transform="translate(-889.365 367.308)" fill="#fc4343"/>
    <path id="Path_610" data-name="Path 610" d="M951.115-275.286q2.129.378,4.257.756c2.086.373,4.17.757,6.257,1.122a1.348,1.348,0,0,1,1.284,1.444,1.369,1.369,0,0,1-1.7,1.13c-2.431-.432-4.859-.875-7.289-1.314-.989-.178-1.983-.33-2.965-.539a1.29,1.29,0,0,1-.834-2.136A1.305,1.305,0,0,1,951.115-275.286Z" transform="translate(-899.394 299.487)" fill="#fc4343"/>
    <path id="Trazado_610_-_Contorno" data-name="Trazado 610 - Contorno" d="M951.16-275.887l1.322.234q1.5.265,3,.532l2.2.4c1.329.24,2.7.489,4.056.725a1.933,1.933,0,0,1,1.775,2.112,1.924,1.924,0,0,1-1.978,1.682,2.409,2.409,0,0,1-.42-.038c-1.683-.3-3.392-.608-5.046-.908l-2.245-.406c-.31-.056-.628-.11-.935-.163-.671-.115-1.366-.234-2.049-.379a2.029,2.029,0,0,1-1.549-1.313,1.842,1.842,0,0,1,.388-1.8,1.916,1.916,0,0,1,1.423-.669Zm10.37,4.482a.734.734,0,0,0,.788-.635c.059-.46-.37-.7-.792-.777-1.356-.237-2.732-.486-4.063-.726l-2.2-.4q-1.5-.268-2.993-.532l-1.2-.212a.7.7,0,0,0-.5.256.639.639,0,0,0-.153.636.846.846,0,0,0,.66.518c.659.14,1.341.257,2,.37.31.053.63.108.945.165l2.246.406c1.652.3,3.361.609,5.042.907A1.206,1.206,0,0,0,961.53-271.405Z" transform="translate(-899.394 299.487)" fill="#fc4343"/>
    <path id="Path_611" data-name="Path 611" d="M900.716-402.078q.393-3.884.788-7.768c.064-.631.128-1.262.2-1.893a1.279,1.279,0,0,1,1.461-1.241,1.283,1.283,0,0,1,1.113,1.507q-.489,4.765-.988,9.529a1.275,1.275,0,0,1-1.391,1.254A1.272,1.272,0,0,1,900.716-402.078Z" transform="translate(-858.94 412.99)" fill="#fc4343"/>
    <path id="Trazado_611_-_Contorno" data-name="Trazado 611 - Contorno" d="M902-400.086c-.044,0-.089,0-.134,0a1.877,1.877,0,0,1-1.746-2.006l0-.041q.393-3.885.788-7.769c.063-.621.128-1.263.2-1.9a1.876,1.876,0,0,1,1.878-1.784,2.176,2.176,0,0,1,.249.014,1.875,1.875,0,0,1,1.641,2.165c-.367,3.571-.69,6.688-.988,9.53A1.877,1.877,0,0,1,902-400.086Zm-.681-1.954a.673.673,0,0,0,.619.752l.062,0c.513,0,.662-.391.7-.72.3-2.841.622-5.957.988-9.527a.693.693,0,0,0-.585-.85.978.978,0,0,0-.111-.007.712.712,0,0,0-.685.718c-.071.629-.135,1.268-.2,1.886Q901.707-405.913,901.315-402.04Z" transform="translate(-858.94 412.99)" fill="#fc4343"/>
    <path id="Path_612" data-name="Path 612" d="M816.892-290.821a7.04,7.04,0,0,1,6.74,4.711,7.035,7.035,0,0,1-2.309,7.839,1.723,1.723,0,0,1-1.11.5,1.227,1.227,0,0,1-1.192-.768,1.219,1.219,0,0,1,.238-1.4,5.125,5.125,0,0,1,.5-.418,4.431,4.431,0,0,0,.888-5.908,4.443,4.443,0,0,0-5.858-1.4c-.152.085-.3.186-.454.262a1.288,1.288,0,0,1-1.716-.474,1.3,1.3,0,0,1,.385-1.742A7.059,7.059,0,0,1,816.892-290.821Z" transform="translate(-786.176 312.292)" fill="#fc4343"/>
    <path id="Trazado_612_-_Contorno" data-name="Trazado 612 - Contorno" d="M816.9-291.421a7.778,7.778,0,0,1,4.488,1.395,7.554,7.554,0,0,1,2.808,3.718,7.624,7.624,0,0,1-2.5,8.509,2.289,2.289,0,0,1-1.494.625,1.823,1.823,0,0,1-1.73-1.131,1.822,1.822,0,0,1,.352-2.047,3.217,3.217,0,0,1,.412-.354c.053-.041.1-.079.149-.116a3.828,3.828,0,0,0,.771-5.11,3.835,3.835,0,0,0-3.188-1.7,3.87,3.87,0,0,0-1.879.491c-.049.027-.1.059-.156.093-.1.059-.206.126-.327.185a2.014,2.014,0,0,1-.888.21,1.865,1.865,0,0,1-1.6-.913,1.893,1.893,0,0,1,.542-2.535,7.6,7.6,0,0,1,4.24-1.321Zm3.336,13.047a1.242,1.242,0,0,0,.714-.369,6.424,6.424,0,0,0,2.113-7.169,6.425,6.425,0,0,0-6.163-4.309h-.01a6.515,6.515,0,0,0-3.528,1.086.706.706,0,0,0-.228.949.657.657,0,0,0,.577.334.826.826,0,0,0,.363-.089c.07-.034.147-.081.228-.13.062-.038.127-.077.2-.116a5.073,5.073,0,0,1,2.464-.642,5.033,5.033,0,0,1,4.185,2.229,5.024,5.024,0,0,1-1.005,6.706c-.063.051-.124.1-.184.143a2.258,2.258,0,0,0-.264.222.623.623,0,0,0-.124.75.63.63,0,0,0,.654.406Z" transform="translate(-786.176 312.292)" fill="#fc4343"/>
  </g>
</svg>
