<svg xmlns="http://www.w3.org/2000/svg" width="51.166" height="51.182" viewBox="0 0 51.166 51.182">
  <g id="cocina-icon" transform="translate(0.75 0.75)">
    <path id="Path_623" data-name="Path 623" d="M1400.979,496.424h-28.43c-.27-.286-.674-.248-1-.414a4.618,4.618,0,0,1-2.7-4.4q0-8.168.018-16.336a.77.77,0,0,0-.443-.785,12.245,12.245,0,0,1-6-7.844,7.87,7.87,0,0,0-.366-1.567v-2.814a2.062,2.062,0,0,0,.224-.954,12.385,12.385,0,0,1,13.945-9.886.64.64,0,0,0,.667-.225,13.072,13.072,0,0,1,3.988-3.028,13.48,13.48,0,0,1,16.023,3.029.63.63,0,0,0,.668.223,11.023,11.023,0,0,1,4.285.093,12.411,12.411,0,0,1,3.51,22.976.691.691,0,0,0-.419.705q.021,8.1.009,16.2a7.433,7.433,0,0,1-.024.776,4.547,4.547,0,0,1-2.409,3.687A11.361,11.361,0,0,1,1400.979,496.424ZM1386.9,485.137q7.663,0,15.326.01c.407,0,.5-.106.5-.5-.017-3.428,0-6.856-.02-10.284a1.484,1.484,0,0,1,.942-1.515,10.051,10.051,0,0,0,5.687-10.808,10.159,10.159,0,0,0-10.229-8.513c-.363.014-.455.07-.259.42a12.173,12.173,0,0,1,1.3,3.524,9.031,9.031,0,0,1,.244,3.074,1.036,1.036,0,0,1-1.074.86,1.066,1.066,0,0,1-1.056-.829,6.21,6.21,0,0,1-.1-.913,11.068,11.068,0,0,0-1.44-4.921,11.348,11.348,0,0,0-11.6-5.595,11.483,11.483,0,0,0-9.1,8.12,26.8,26.8,0,0,0-.466,3.2,1.046,1.046,0,0,1-1.107.935,1.066,1.066,0,0,1-1.054-.945,6.523,6.523,0,0,1,.066-1.833,12.969,12.969,0,0,1,1.511-4.716c.155-.282.142-.388-.215-.381a14.8,14.8,0,0,0-1.643.09,10.124,10.124,0,0,0-8.785,10.145,9.87,9.87,0,0,0,5.816,9.077,1.527,1.527,0,0,1,.978,1.542c-.032,3.411-.013,6.823-.037,10.235,0,.423.094.535.527.533C1376.716,485.131,1381.809,485.137,1386.9,485.137Zm.039,2.257q-7.686,0-15.372-.009c-.38,0-.482.094-.475.475.024,1.244,0,2.49.007,3.735a2.385,2.385,0,0,0,2.569,2.576q13.238.008,26.476,0a2.385,2.385,0,0,0,2.573-2.571c0-1.228-.017-2.457.011-3.686.01-.41-.071-.533-.515-.532C1397.124,487.4,1392.032,487.394,1386.941,487.394Z" transform="translate(-1362.069 -446.741)" fill="#fc4343"/>
    <path id="Trazado_623_-_Contorno" data-name="Trazado 623 - Contorno" d="M1401.12,497.174h-28.895l-.22-.233a1.285,1.285,0,0,0-.236-.072,2.473,2.473,0,0,1-.562-.193,5.365,5.365,0,0,1-3.1-5.067c0-5.536,0-10.952.018-16.338a.759.759,0,0,0,0-.093.62.62,0,0,0-.061-.039,13.021,13.021,0,0,1-6.35-8.305,6.391,6.391,0,0,1-.125-.656,2.733,2.733,0,0,0-.189-.77l-.077-.156v-3.238l.15-.2a1.148,1.148,0,0,0,.042-.276,3.475,3.475,0,0,1,.045-.366,13.161,13.161,0,0,1,12.846-10.638,12.8,12.8,0,0,1,1.951.15h.007a13.866,13.866,0,0,1,4.2-3.185,14.135,14.135,0,0,1,6.288-1.508,14.71,14.71,0,0,1,3.6.459,14.017,14.017,0,0,1,7.012,4.233,11.16,11.16,0,0,1,1.989-.178,12.493,12.493,0,0,1,2.575.277,13.147,13.147,0,0,1,3.72,24.366l-.033.019c0,.008,0,.018,0,.029.012,4.632.01,9.341.009,13.895v2.373a7.335,7.335,0,0,1-.028.788,5.285,5.285,0,0,1-2.785,4.261,5.184,5.184,0,0,1-1.12.435c-.189.056-.368.109-.532.173Zm-28.312-1.5h28.036c.175-.063.347-.113.514-.163a3.913,3.913,0,0,0,.807-.3,3.812,3.812,0,0,0,2.033-3.111,6.118,6.118,0,0,0,.02-.631v-2.375c0-4.553,0-9.261-.009-13.891a1.431,1.431,0,0,1,.8-1.363,11.573,11.573,0,0,0,5.824-11.974,11.663,11.663,0,0,0-9.125-9.613,10.992,10.992,0,0,0-2.265-.244,9.655,9.655,0,0,0-1.73.155,1.748,1.748,0,0,1-.317.031,1.353,1.353,0,0,1-1.04-.486,12.543,12.543,0,0,0-6.281-3.8,13.21,13.21,0,0,0-3.23-.414,12.649,12.649,0,0,0-5.625,1.353,12.374,12.374,0,0,0-3.761,2.855,1.349,1.349,0,0,1-1.05.489,1.883,1.883,0,0,1-.289-.024,11.3,11.3,0,0,0-1.722-.133,11.661,11.661,0,0,0-11.372,9.416c-.011.057-.017.133-.024.214a2.16,2.16,0,0,1-.187.806v2.451a4.471,4.471,0,0,1,.248,1.031c.028.181.054.352.094.505a12.025,12.025,0,0,0,2.045,4.289,11.868,11.868,0,0,0,3.6,3.092,1.513,1.513,0,0,1,.822,1.439c-.016,5.385-.018,10.8-.018,16.334a3.889,3.889,0,0,0,2.288,3.733,1.368,1.368,0,0,0,.235.07A2.21,2.21,0,0,1,1372.808,495.674Zm14.122-.75c-4.566,0-9.027,0-13.26,0a3.307,3.307,0,0,1-2.411-.913,3.343,3.343,0,0,1-.907-2.41c0-.448,0-.9,0-1.341,0-.782.006-1.591-.009-2.382a1.1,1.1,0,0,1,1.221-1.239h0c3.249.009,6.481.01,9.214.01h12.6c2.605,0,5.692,0,8.833-.013h.012a1.129,1.129,0,0,1,1.255,1.3c-.018.792-.015,1.6-.012,2.387,0,.42,0,.855,0,1.283a3.121,3.121,0,0,1-3.323,3.319Q1393.538,494.923,1386.93,494.923Zm-15.08-6.788c.01.713.007,1.43,0,2.126,0,.436,0,.888,0,1.33a1.649,1.649,0,0,0,1.819,1.828c4.233,0,8.694,0,13.259,0q6.608,0,13.216,0a1.65,1.65,0,0,0,1.823-1.824c0-.423,0-.854,0-1.272,0-.717-.005-1.457.008-2.192-3.06.011-6.056.012-8.6.012h-12.6C1378.129,488.144,1375,488.143,1371.849,488.135Zm-.232-2.237a1.27,1.27,0,0,1-.95-.327,1.3,1.3,0,0,1-.32-.962c.011-1.549.013-3.125.015-4.648,0-1.831,0-3.725.022-5.589a.8.8,0,0,0-.564-.864,11.32,11.32,0,0,1-4.557-3.948,11.075,11.075,0,0,1-1.673-5.78,10.863,10.863,0,0,1,9.439-10.909,15.468,15.468,0,0,1,1.726-.1h.045a.973.973,0,0,1,.909.443,1.033,1.033,0,0,1-.069,1.05,12.267,12.267,0,0,0-1.424,4.445l-.019.155a5.318,5.318,0,0,0-.052,1.469.322.322,0,0,0,.332.315h.013a.3.3,0,0,0,.332-.285c.041-.306.075-.622.108-.928a16.325,16.325,0,0,1,.375-2.363,11.75,11.75,0,0,1,3.6-5.73,12.087,12.087,0,0,1,6.112-2.944,12.351,12.351,0,0,1,1.849-.14,12.076,12.076,0,0,1,10.516,6.108,11.866,11.866,0,0,1,1.536,5.251,5.613,5.613,0,0,0,.083.8.323.323,0,0,0,.327.229h0c.149,0,.306-.074.326-.214a8.411,8.411,0,0,0-.236-2.82,11.466,11.466,0,0,0-1.22-3.308.952.952,0,0,1,.885-1.536c.13-.005.263-.008.394-.008a10.924,10.924,0,0,1,10.606,9.158,10.8,10.8,0,0,1-6.1,11.595.759.759,0,0,0-.519.834c.013,1.871.013,3.772.013,5.611,0,1.532,0,3.117.007,4.675a1.251,1.251,0,0,1-.317.937,1.272,1.272,0,0,1-.927.322h-.008c-3.218-.009-6.41-.011-9.108-.011h-12.667c-2.6,0-5.686,0-8.825.012Zm2.325-31.6c-.243.012-.483.03-.721.061a9.359,9.359,0,0,0-5.854,3.166,9.1,9.1,0,0,0-2.278,6.215,9.6,9.6,0,0,0,1.435,5.009,9.846,9.846,0,0,0,3.968,3.418,2.263,2.263,0,0,1,1.391,2.219c-.018,1.858-.02,3.749-.022,5.577,0,1.453,0,2.953-.013,4.434,3.065-.01,6.063-.011,8.6-.011h12.667c2.629,0,5.726,0,8.86.01-.006-1.48-.006-2.98-.006-4.433,0-1.836,0-3.734-.013-5.6a2.233,2.233,0,0,1,1.365-2.2,9.4,9.4,0,0,0-3.458-17.894,13.073,13.073,0,0,1,1.019,3.042,9.639,9.639,0,0,1,.252,3.328,1.779,1.779,0,0,1-1.808,1.506h-.015a1.805,1.805,0,0,1-1.784-1.427,6.822,6.822,0,0,1-.111-1.024,10.378,10.378,0,0,0-1.344-4.593,10.574,10.574,0,0,0-9.21-5.345,10.846,10.846,0,0,0-1.624.123,10.717,10.717,0,0,0-8.483,7.566,14.934,14.934,0,0,0-.336,2.149c-.034.315-.069.641-.113.966a1.794,1.794,0,0,1-1.818,1.586h-.05a1.815,1.815,0,0,1-1.776-1.575,6.526,6.526,0,0,1,.044-1.892l.019-.151A13.778,13.778,0,0,1,1373.942,454.3Z" transform="translate(-1362.069 -446.741)" fill="#fc4343"/>
    <path id="Path_624" data-name="Path 624" d="M1424.555,487.207a8.862,8.862,0,0,1-1.109,3.52,22,22,0,0,1-2.4,3.676,1.134,1.134,0,0,1-1.681.334,1.153,1.153,0,0,1-.128-1.681,22,22,0,0,0,2.587-4.181,8.2,8.2,0,0,0,.523-1.95,1.075,1.075,0,0,1,1.229-.952A1.142,1.142,0,0,1,1424.555,487.207Z" transform="translate(-1386.172 -463.366)" fill="#fc4343"/>
    <path id="Trazado_624_-_Contorno" data-name="Trazado 624 - Contorno" d="M1423.418,485.214a2.026,2.026,0,0,1,.249.016,1.9,1.9,0,0,1,1.638,2v.025a9.628,9.628,0,0,1-1.189,3.818,22.631,22.631,0,0,1-2.483,3.8,2.066,2.066,0,0,1-1.6.863,1.837,1.837,0,0,1-1.127-.4,1.9,1.9,0,0,1-.27-2.722,21.02,21.02,0,0,0,2.5-4.036,7.558,7.558,0,0,0,.47-1.775A1.822,1.822,0,0,1,1423.418,485.214Zm.388,1.966c0-.112-.024-.424-.323-.461a.525.525,0,0,0-.065,0c-.068,0-.274,0-.333.341a8.932,8.932,0,0,1-.576,2.126,22.864,22.864,0,0,1-2.671,4.325c-.093.124-.279.435-.015.64a.357.357,0,0,0,.209.089.66.66,0,0,0,.425-.3,21.156,21.156,0,0,0,2.321-3.551A8.3,8.3,0,0,0,1423.805,487.179Z" transform="translate(-1386.172 -463.366)" fill="#fc4343"/>
    <path id="Path_625" data-name="Path 625" d="M1381.7,487.335a1.156,1.156,0,0,1,.934-1.358,1.076,1.076,0,0,1,1.273,1.011,11.9,11.9,0,0,0,2.363,5.068c.285.429.626.823.89,1.263a1.084,1.084,0,0,1-.294,1.427,1.051,1.051,0,0,1-1.484-.139,17.2,17.2,0,0,1-3.559-6.411,2.837,2.837,0,0,1-.071-.331C1381.726,487.689,1381.714,487.512,1381.7,487.335Z" transform="translate(-1370.386 -463.365)" fill="#fc4343"/>
    <path id="Trazado_625_-_Contorno" data-name="Trazado 625 - Contorno" d="M1382.826,485.212a1.811,1.811,0,0,1,1.823,1.684,10.675,10.675,0,0,0,2.1,4.53l.143.214c.11.165.231.328.359.5a9.474,9.474,0,0,1,.549.792,1.832,1.832,0,0,1-.488,2.413,1.93,1.93,0,0,1-1.147.391,1.759,1.759,0,0,1-1.369-.658,18.16,18.16,0,0,1-3.7-6.693,3.506,3.506,0,0,1-.089-.422c-.019-.144-.031-.282-.043-.416,0-.048-.008-.1-.013-.144v-.011a1.9,1.9,0,0,1,1.57-2.158A2.049,2.049,0,0,1,1382.826,485.212Zm3.34,9.026a.424.424,0,0,0,.248-.092.338.338,0,0,0,.1-.441c-.133-.221-.294-.438-.465-.667-.135-.181-.274-.368-.406-.567l-.142-.213a11.973,11.973,0,0,1-2.341-5.178c-.045-.368-.262-.368-.334-.368a.541.541,0,0,0-.082.006c-.279.042-.317.323-.3.553,0,.049.009.1.013.148.011.122.021.237.035.345a2.213,2.213,0,0,0,.054.243,16.769,16.769,0,0,0,3.416,6.126A.248.248,0,0,0,1386.166,494.238Z" transform="translate(-1370.386 -463.365)" fill="#fc4343"/>
    <path id="Path_626" data-name="Path 626" d="M1403.208,490.431c0-1.017,0-2.034,0-3.052a1.482,1.482,0,0,1,.27-1,1.062,1.062,0,0,1,1.125-.383,1.019,1.019,0,0,1,.81.8,2.638,2.638,0,0,1,.066.574q.007,3.1,0,6.2a1.292,1.292,0,0,1-.542,1.218,1.1,1.1,0,0,1-1.666-.683,3.1,3.1,0,0,1-.064-.623C1403.2,492.465,1403.207,491.448,1403.208,490.431Z" transform="translate(-1379.505 -463.363)" fill="#fc4343"/>
    <path id="Trazado_626_-_Contorno" data-name="Trazado 626 - Contorno" d="M1404.316,485.207a2,2,0,0,1,.462.056,1.77,1.77,0,0,1,1.367,1.368,3.373,3.373,0,0,1,.085.739c.005,2.279,0,4.511,0,6.2a2.022,2.022,0,0,1-.891,1.851,1.868,1.868,0,0,1-1,.292,1.831,1.831,0,0,1-1.8-1.448,3.852,3.852,0,0,1-.081-.777c0-.787,0-1.584,0-2.355v-1.605q0-1.076,0-2.152a2.206,2.206,0,0,1,.444-1.482A1.8,1.8,0,0,1,1404.316,485.207Zm.026,9.007a.365.365,0,0,0,.2-.059c.086-.054.192-.121.193-.585,0-1.689,0-3.919,0-6.2a1.9,1.9,0,0,0-.048-.411.277.277,0,0,0-.251-.239.5.5,0,0,0-.115-.015c-.044,0-.137,0-.261.149-.07.084-.1.222-.1.526q0,1.073,0,2.147v1.607c0,.768,0,1.562,0,2.342a2.347,2.347,0,0,0,.047.47A.336.336,0,0,0,1404.342,494.214Z" transform="translate(-1379.505 -463.363)" fill="#fc4343"/>
  </g>
</svg>
