<svg xmlns="http://www.w3.org/2000/svg" width="59.018" height="47.848" viewBox="0 0 59.018 47.848">
  <g id="comportamiento-icon" transform="translate(1.1 1.1)">
    <path id="Path_601" data-name="Path 601" d="M1661.74-312.289a6.621,6.621,0,0,1,1.629-10.1,6.563,6.563,0,0,1,9.265,3.118,19.6,19.6,0,0,1,4.11-2.445,11.337,11.337,0,0,1,.284-16.935,11.217,11.217,0,0,1,15.266.687,11.325,11.325,0,0,1-.5,16.228,19.291,19.291,0,0,1,4.1,2.457,6.618,6.618,0,0,1,9.794-2.827,6.672,6.672,0,0,1,1.135,9.825,10.719,10.719,0,0,1,3.757,3.107,10.62,10.62,0,0,1,2.154,6.519,3.4,3.4,0,0,1-1.518,2.812,10.117,10.117,0,0,1-4.2,1.723,25.284,25.284,0,0,1-8.264.266,2.987,2.987,0,0,0-1.5.184,31.914,31.914,0,0,1-8.936,1.834,46.378,46.378,0,0,1-12.1-.548,24.933,24.933,0,0,1-4.736-1.29,3.242,3.242,0,0,0-1.612-.164,23.894,23.894,0,0,1-10.356-.85,8.932,8.932,0,0,1-1.05-.446,4.022,4.022,0,0,1-2.484-4.705,10.932,10.932,0,0,1,5.544-8.31C1661.592-312.183,1661.653-312.23,1661.74-312.289Zm22.291,14.8a40.1,40.1,0,0,0,11.433-1.435,12.227,12.227,0,0,0,4.573-2.275,3.956,3.956,0,0,0,1.491-3.544,20.869,20.869,0,0,0-.3-2.56,17.144,17.144,0,0,0-10.743-12.884.668.668,0,0,0-.64.034,11.335,11.335,0,0,1-10.911.088,1.153,1.153,0,0,0-1.067-.05c-6.458,2.773-9.972,7.7-10.8,14.652a4.8,4.8,0,0,0,2.8,5.2,15.556,15.556,0,0,0,2.559,1.121A37.993,37.993,0,0,0,1684.031-297.484Zm.366-41.879a9.4,9.4,0,0,0-9.444,9.409,9.409,9.409,0,0,0,9.346,9.457,9.411,9.411,0,0,0,9.484-9.377A9.454,9.454,0,0,0,1684.4-339.363Zm16.4,39.892c.362.025.622.054.882.06a21.686,21.686,0,0,0,5.01-.442,9.05,9.05,0,0,0,3.491-1.359,1.717,1.717,0,0,0,.872-1.519,8.848,8.848,0,0,0-5.072-7.925,1.256,1.256,0,0,0-1.276-.058,5.186,5.186,0,0,1-1.811.5c-.371.045-.461.12-.339.518a19.465,19.465,0,0,1,.853,5.418,5.238,5.238,0,0,1-1.619,3.909C1701.5-300.09,1701.194-299.834,1700.793-299.471Zm-32.953-.1c-.086-.071-.172-.144-.258-.214a5.572,5.572,0,0,1-2.246-4.838,19.932,19.932,0,0,1,.842-5.075c.126-.4.049-.471-.344-.487a4.565,4.565,0,0,1-2.016-.586.723.723,0,0,0-.735-.02,8.847,8.847,0,0,0-5.288,6.87c-.311,1.812-.037,2.428,1.326,3.087A16.751,16.751,0,0,0,1667.84-299.568Zm-5.958-17.044a4.8,4.8,0,0,0,4.66,4.71.6.6,0,0,0,.658-.386,17.293,17.293,0,0,1,3.686-5.2.633.633,0,0,0,.18-.79,4.756,4.756,0,0,0-5.309-3.02A4.845,4.845,0,0,0,1661.882-316.612Zm44.886.023a4.769,4.769,0,0,0-3.82-4.707,4.79,4.79,0,0,0-5.289,2.973.591.591,0,0,0,.182.737,17.671,17.671,0,0,1,3.654,5.219.7.7,0,0,0,.781.465A4.765,4.765,0,0,0,1706.769-316.588Z" transform="translate(-1655.911 341.315)" fill="#fc4343"/>
    <path id="Trazado_601_-_Contorno" data-name="Trazado 601 - Contorno" d="M1684.242-294.566a45.493,45.493,0,0,1-8.221-.73,25.806,25.806,0,0,1-4.944-1.35,1.716,1.716,0,0,0-.663-.117,4.183,4.183,0,0,0-.43.026,35.818,35.818,0,0,1-3.676.2,21.716,21.716,0,0,1-7.149-1.107,9.991,9.991,0,0,1-1.18-.5,5.592,5.592,0,0,1-2.618-2.357,5.6,5.6,0,0,1-.469-3.488,11.973,11.973,0,0,1,5.293-8.612,7.813,7.813,0,0,1-1.056-5.542,7.713,7.713,0,0,1,1.294-3.015,7.679,7.679,0,0,1,2.4-2.18,7.557,7.557,0,0,1,3.767-1.005,7.663,7.663,0,0,1,4.11,1.194,7.7,7.7,0,0,1,2.3,2.268,21.221,21.221,0,0,1,1.907-1.169,12.207,12.207,0,0,1-2.923-8.277,12.538,12.538,0,0,1,4.335-9.163,12.47,12.47,0,0,1,8-2.925,12.147,12.147,0,0,1,8.76,3.687,12.449,12.449,0,0,1,3.49,8.984,12.3,12.3,0,0,1-2.943,7.687,20.557,20.557,0,0,1,1.892,1.151,7.385,7.385,0,0,1,6.34-3.412,8.127,8.127,0,0,1,4.429,1.3,7.389,7.389,0,0,1,3.189,5.123,8.013,8.013,0,0,1-1.064,5.268,11.55,11.55,0,0,1,3.042,2.8,11.744,11.744,0,0,1,2.374,7.177,4.477,4.477,0,0,1-1.954,3.692,11.389,11.389,0,0,1-4.64,1.924,25.384,25.384,0,0,1-5.077.506,28.611,28.611,0,0,1-3.545-.226,2.135,2.135,0,0,0-.267-.017,1.919,1.919,0,0,0-.7.138,32.633,32.633,0,0,1-9.242,1.9C1687-294.623,1685.6-294.566,1684.242-294.566Zm-5.9-24.549a.432.432,0,0,0-.044.017,16.7,16.7,0,0,0-7.058,5.4,17.5,17.5,0,0,0-3.087,8.375,3.893,3.893,0,0,0,.38,2.428,4.433,4.433,0,0,0,1.849,1.673,14.37,14.37,0,0,0,2.379,1.043,36.428,36.428,0,0,0,11.275,1.6,38.516,38.516,0,0,0,11.117-1.389,11.354,11.354,0,0,0,4.173-2.058,2.863,2.863,0,0,0,1.108-2.607c-.015-.17-.029-.339-.043-.509a14.877,14.877,0,0,0-.24-1.917,16.955,16.955,0,0,0-3.46-7.377,16.908,16.908,0,0,0-6.475-4.659,12.44,12.44,0,0,1-5.819,1.5,13.554,13.554,0,0,1-5.947-1.466A.7.7,0,0,0,1678.339-319.115Zm25.481,9.859a20.725,20.725,0,0,1,.682,4.955,6.214,6.214,0,0,1-1.152,3.769,19.215,19.215,0,0,0,3.105-.4,8.112,8.112,0,0,0,3.079-1.177c.43-.309.421-.462.416-.564a7.76,7.76,0,0,0-4.472-7.007.856.856,0,0,0-.218-.088.3.3,0,0,0-.046.021A5.341,5.341,0,0,1,1703.82-309.256Zm-40.4-.476a7.709,7.709,0,0,0-4.544,6,3.352,3.352,0,0,0-.039,1.353c.044.1.172.273.76.557a13.343,13.343,0,0,0,5.738,1.233,6.549,6.549,0,0,1-1.1-4.084,21.853,21.853,0,0,1,.654-4.525A5.834,5.834,0,0,1,1663.423-309.732Zm37.8-1.316q.128.316.246.64a1.261,1.261,0,0,1,.135-.275,1.269,1.269,0,0,1,.128-.166A1.69,1.69,0,0,1,1701.226-311.048Zm-34.615-9.223a3.741,3.741,0,0,0-.66.059,3.579,3.579,0,0,0-2.1,1.267,3.683,3.683,0,0,0-.868,2.333,3.719,3.719,0,0,0,3.342,3.6,18.454,18.454,0,0,1,3.623-5.091A3.631,3.631,0,0,0,1666.611-320.271Zm32.184,2.085a18.824,18.824,0,0,1,3.612,5.172,3.525,3.525,0,0,0,2.219-1.086,3.74,3.74,0,0,0,1.042-2.514,3.585,3.585,0,0,0-.824-2.325,3.542,3.542,0,0,0-2.095-1.275,3.542,3.542,0,0,0-.636-.058A3.683,3.683,0,0,0,1698.8-318.185Zm-14.422-20.077a8.271,8.271,0,0,0-5.886,2.424,8.283,8.283,0,0,0-2.435,5.888,8.309,8.309,0,0,0,2.409,5.9,8.215,8.215,0,0,0,5.843,2.458h.041a8.3,8.3,0,0,0,5.887-2.418,8.265,8.265,0,0,0,2.451-5.865,8.3,8.3,0,0,0-2.433-5.923,8.23,8.23,0,0,0-5.855-2.46Z" transform="translate(-1655.911 341.315)" fill="#fc4343"/>
  </g>
</svg>
