<svg xmlns="http://www.w3.org/2000/svg" width="59.495" height="59.584" viewBox="0 0 59.495 59.584">
  <g id="control-icon" transform="translate(0.747 0.75)">
    <path id="Path_632" data-name="Path 632" d="M1952.33,392.448q2.97,1.963,5.938,3.929a1.208,1.208,0,0,0,.792.213c2.19-.135,4.382-.243,6.572-.369a1.406,1.406,0,0,1,1.454.862c.963,1.923,1.943,3.836,2.9,5.76a1.359,1.359,0,0,0,.649.659c1.909.949,3.806,1.92,5.7,2.887a1.381,1.381,0,0,1,.921,1.627c-.134,2.171-.249,4.343-.387,6.515a1.045,1.045,0,0,0,.227.674c1.172,1.783,2.335,3.573,3.52,5.349a1.575,1.575,0,0,1-.008,1.934c-1.169,1.74-2.307,3.5-3.474,5.243a1.511,1.511,0,0,0-.274,1c.132,2.115.226,4.231.366,6.345a1.472,1.472,0,0,1-.917,1.581c-1.879.924-3.738,1.888-5.613,2.821a1.609,1.609,0,0,0-.775.767c-.93,1.875-1.9,3.73-2.82,5.612a1.541,1.541,0,0,1-1.678.95c-2.17-.15-4.343-.255-6.514-.393a1.035,1.035,0,0,0-.671.242c-1.781,1.177-3.571,2.339-5.335,3.54a1.517,1.517,0,0,1-1.921-.009c-1.748-1.191-3.53-2.333-5.286-3.512a1.41,1.41,0,0,0-.95-.238c-2.152.139-4.305.251-6.459.375a1.4,1.4,0,0,1-1.443-.875c-.96-1.924-1.946-3.835-2.906-5.759a1.363,1.363,0,0,0-.657-.653c-1.891-.942-3.765-1.918-5.66-2.85a1.514,1.514,0,0,1-.961-1.613c.138-2.114.229-4.231.364-6.345a1.6,1.6,0,0,0-.3-1.05c-1.153-1.728-2.274-3.478-3.438-5.2a1.53,1.53,0,0,1,0-1.924c1.2-1.765,2.356-3.56,3.542-5.334a1.2,1.2,0,0,0,.21-.791c-.128-2.1-.215-4.194-.369-6.288a1.677,1.677,0,0,1,1.063-1.841c1.886-.909,3.74-1.883,5.613-2.816a1.207,1.207,0,0,0,.58-.577q1.415-2.836,2.852-5.66c.46-.91.763-1.072,1.8-1.011,2.133.127,4.268.241,6.4.374a.975.975,0,0,0,.63-.19q2.933-1.934,5.867-3.864c.026-.017.034-.062.049-.094Zm22.29,19.127c.042-.7.095-1.759.177-2.815a.567.567,0,0,0-.37-.651c-1.743-.856-3.467-1.753-5.212-2.607a2.5,2.5,0,0,1-1.215-1.2c-.846-1.727-1.743-3.429-2.583-5.16a.679.679,0,0,0-.777-.445c-1.982.126-3.966.221-5.948.346a2.13,2.13,0,0,1-1.381-.386c-1.631-1.094-3.283-2.157-4.906-3.262a.67.67,0,0,0-.891.013c-1.628,1.1-3.276,2.168-4.908,3.262a2.062,2.062,0,0,1-1.33.373c-1.982-.122-3.966-.215-5.947-.347a.713.713,0,0,0-.819.463c-.851,1.746-1.755,3.465-2.611,5.209a2.269,2.269,0,0,1-1.092,1.087c-1.725.851-3.432,1.739-5.16,2.584a.714.714,0,0,0-.492.8c.136,1.962.223,3.927.348,5.891a2.2,2.2,0,0,1-.394,1.435c-1.087,1.613-2.136,3.252-3.233,4.858a.741.741,0,0,0,.014.992c1.021,1.5,1.981,3.039,3.021,4.523a3.215,3.215,0,0,1,.571,2.232c-.143,1.829-.207,3.664-.327,5.494a.6.6,0,0,0,.415.678c1.778.872,3.538,1.78,5.315,2.656a2.122,2.122,0,0,1,1.01,1.016c.88,1.774,1.793,3.532,2.666,5.309a.6.6,0,0,0,.686.4c1.982-.127,3.966-.219,5.948-.348a2.262,2.262,0,0,1,1.481.427c1.6,1.079,3.216,2.121,4.812,3.2a.71.71,0,0,0,.94.013c1.609-1.094,3.247-2.144,4.86-3.23a2.208,2.208,0,0,1,1.433-.4c1.982.124,3.966.219,5.948.348a.647.647,0,0,0,.736-.424c.861-1.762,1.765-3.5,2.637-5.259a2.209,2.209,0,0,1,1.052-1.054c1.759-.868,3.5-1.779,5.259-2.639a.675.675,0,0,0,.439-.774c-.128-2-.224-4-.345-6a1.968,1.968,0,0,1,.353-1.275c1.094-1.631,2.152-3.287,3.263-4.906a.733.733,0,0,0-.021-.984c-1.079-1.6-2.123-3.215-3.2-4.813a2.184,2.184,0,0,1-.394-1.436C1974.519,413.821,1974.553,412.875,1974.62,411.575Z" transform="translate(-1922.955 -392.448)" fill="#fc4343"/>
    <path id="Trazado_632_-_Contorno" data-name="Trazado 632 - Contorno" d="M1951.068,391.7h1.487l1.641,1.084c1.471.972,2.992,1.977,4.487,2.97a.448.448,0,0,0,.281.091l.05,0c1.327-.082,2.675-.155,3.98-.225.851-.046,1.731-.094,2.6-.143.055,0,.11,0,.163,0a2.139,2.139,0,0,1,2,1.28c.457.912.925,1.838,1.378,2.733.5.991,1.02,2.016,1.526,3.027a.614.614,0,0,0,.312.323c1.608.8,3.232,1.627,4.8,2.428l.908.463a2.1,2.1,0,0,1,1.329,2.341c-.06.975-.117,1.966-.173,2.925-.068,1.177-.138,2.394-.214,3.591,0,.023,0,.049.106.215q.53.807,1.06,1.616c.8,1.224,1.631,2.491,2.457,3.728a2.309,2.309,0,0,1-.009,2.768c-.6.891-1.2,1.8-1.782,2.688-.552.838-1.123,1.705-1.692,2.555a.765.765,0,0,0-.148.534c.059.951.112,1.917.163,2.851.062,1.145.127,2.329.2,3.491a2.219,2.219,0,0,1-1.334,2.3c-1.059.521-2.132,1.064-3.169,1.59-.8.4-1.624.823-2.44,1.229a.862.862,0,0,0-.437.429c-.408.823-.83,1.653-1.238,2.457-.524,1.031-1.065,2.1-1.58,3.151a2.26,2.26,0,0,1-2.158,1.378c-.079,0-.162,0-.245-.009-1.235-.086-2.495-.157-3.713-.227-.917-.052-1.864-.106-2.8-.166h-.005a1.137,1.137,0,0,0-.2.116l-.005,0q-.721.476-1.444.951c-1.278.84-2.6,1.709-3.882,2.583a2.406,2.406,0,0,1-1.373.468,2.44,2.44,0,0,1-1.392-.478c-.983-.67-2-1.337-2.976-1.981-.757-.5-1.539-1.013-2.306-1.528a.668.668,0,0,0-.483-.112c-1.47.095-2.963.178-4.408.259l-2.056.116c-.054,0-.108,0-.16,0a2.136,2.136,0,0,1-2-1.294c-.486-.974-.988-1.963-1.473-2.918-.472-.929-.96-1.891-1.434-2.84a.623.623,0,0,0-.321-.317c-.828-.412-1.666-.838-2.476-1.25-1.041-.529-2.116-1.075-3.179-1.6a2.264,2.264,0,0,1-1.378-2.335c.071-1.091.131-2.2.189-3.278.054-1,.11-2.043.175-3.066a.849.849,0,0,0-.176-.586c-.5-.744-.994-1.5-1.475-2.236-.639-.974-1.3-1.981-1.961-2.96a2.283,2.283,0,0,1,0-2.766c.7-1.031,1.4-2.093,2.076-3.119.478-.725.972-1.475,1.464-2.21a.456.456,0,0,0,.085-.328c-.049-.8-.093-1.619-.135-2.408-.068-1.27-.139-2.584-.233-3.871a2.418,2.418,0,0,1,1.485-2.571c1.159-.559,2.328-1.153,3.459-1.728.7-.357,1.428-.726,2.146-1.084a.466.466,0,0,0,.244-.24c.783-1.569,1.587-3.159,2.365-4.7l.489-.967a2.1,2.1,0,0,1,2.123-1.434c.116,0,.244,0,.39.013q1.3.077,2.591.15c1.249.071,2.541.145,3.812.224h.015c.022,0,.052,0,.157-.069l2.93-1.93,2.771-1.825Zm1.036,1.5h-.25l-2.893,1.905-2.93,1.93a1.733,1.733,0,0,1-1.089.313c-1.267-.079-2.557-.152-3.8-.223q-1.3-.074-2.595-.15c-.117-.007-.216-.01-.3-.01-.4,0-.476,0-.784.61l-.489.967c-.776,1.536-1.579,3.124-2.361,4.689a1.944,1.944,0,0,1-.916.913c-.713.355-1.436.723-2.135,1.079-1.138.579-2.315,1.177-3.487,1.742a.946.946,0,0,0-.641,1.111c.1,1.3.167,2.622.235,3.9.042.786.086,1.6.135,2.4a1.94,1.94,0,0,1-.335,1.253c-.49.732-.982,1.48-1.458,2.2-.679,1.031-1.381,2.1-2.088,3.137a.8.8,0,0,0,0,1.083c.668.988,1.331,2,1.973,2.977.479.731.975,1.487,1.468,2.225a2.342,2.342,0,0,1,.425,1.514c-.065,1.015-.121,2.05-.174,3.051-.058,1.08-.118,2.2-.19,3.3a.78.78,0,0,0,.543.891c1.072.527,2.152,1.076,3.2,1.606.808.41,1.643.835,2.467,1.245a2.108,2.108,0,0,1,.994.99c.471.944.958,1.9,1.429,2.83.486.958.989,1.949,1.477,2.927.193.387.387.463.655.463l.074,0,2.058-.116c1.441-.081,2.931-.164,4.4-.258.066,0,.13-.006.191-.006a2.1,2.1,0,0,1,1.225.371c.76.51,1.54,1.023,2.293,1.52.985.648,2,1.318,3,2a1.02,1.02,0,0,0,.547.217.982.982,0,0,0,.529-.208c1.293-.88,2.619-1.753,3.9-2.6l1.442-.95.006,0a1.727,1.727,0,0,1,1.127-.361c.927.059,1.872.113,2.786.165,1.222.07,2.486.142,3.731.228.049,0,.1.005.141.005a.77.77,0,0,0,.81-.537c.52-1.064,1.064-2.136,1.591-3.172.406-.8.827-1.628,1.232-2.444a2.347,2.347,0,0,1,1.113-1.1c.812-.4,1.635-.821,2.431-1.225,1.041-.528,2.118-1.073,3.185-1.6a.741.741,0,0,0,.5-.858c-.078-1.17-.142-2.359-.2-3.508-.051-.931-.1-1.894-.162-2.84a2.253,2.253,0,0,1,.4-1.463c.566-.844,1.135-1.708,1.685-2.544.583-.886,1.187-1.8,1.789-2.7a.844.844,0,0,0,.007-1.1c-.829-1.242-1.66-2.511-2.464-3.738q-.529-.808-1.059-1.615a1.78,1.78,0,0,1-.349-1.134c.076-1.193.146-2.407.214-3.582.055-.96.113-1.954.173-2.931.036-.591,0-.651-.512-.913l-.909-.463c-1.568-.8-3.189-1.625-4.79-2.421a2.108,2.108,0,0,1-.986-.995c-.5-1.009-1.022-2.032-1.522-3.021-.454-.9-.923-1.824-1.381-2.739a.653.653,0,0,0-.662-.451l-.078,0c-.867.05-1.748.1-2.6.144-1.3.07-2.647.143-3.969.225-.048,0-.1,0-.142,0a1.954,1.954,0,0,1-1.11-.341c-1.494-.992-3.014-2-4.484-2.969Zm-.133,1.283a1.5,1.5,0,0,1,.856.293c.938.639,1.9,1.276,2.837,1.891.678.447,1.378.908,2.065,1.369a1.383,1.383,0,0,0,.916.26c.967-.061,1.948-.115,2.9-.168,1-.056,2.034-.113,3.049-.178.054,0,.106-.005.157-.005a1.393,1.393,0,0,1,1.343.872c.442.911.91,1.833,1.362,2.725.4.794.819,1.616,1.219,2.431a1.753,1.753,0,0,0,.871.856c.9.441,1.808.9,2.686,1.343.827.418,1.683.85,2.527,1.265a1.3,1.3,0,0,1,.787,1.382c-.061.783-.105,1.574-.141,2.209-.012.215-.023.413-.034.59-.021.411-.039.786-.056,1.137-.036.758-.067,1.413-.115,2.066a1.428,1.428,0,0,0,.269.964c.5.749,1.008,1.514,1.5,2.254.555.841,1.128,1.711,1.7,2.558a1.476,1.476,0,0,1,.018,1.829c-.653.952-1.3,1.937-1.927,2.889-.434.66-.883,1.342-1.331,2.01a1.221,1.221,0,0,0-.227.812c.053.88.1,1.774.15,2.638.061,1.1.123,2.244.2,3.365a1.405,1.405,0,0,1-.858,1.5c-.953.465-1.918.955-2.85,1.428-.787.4-1.6.812-2.407,1.21a1.462,1.462,0,0,0-.712.715c-.376.757-.763,1.523-1.138,2.263-.5.979-1.008,1.992-1.5,2.992a1.363,1.363,0,0,1-1.311.848c-.047,0-.1,0-.147,0-1.059-.069-2.137-.129-3.18-.187-.907-.051-1.844-.1-2.767-.161a1.457,1.457,0,0,0-.968.278c-.733.494-1.482.987-2.207,1.464-.872.574-1.775,1.169-2.651,1.764a1.548,1.548,0,0,1-.881.3,1.608,1.608,0,0,1-.9-.313c-.808-.547-1.637-1.094-2.44-1.623-.779-.514-1.584-1.045-2.372-1.577a1.5,1.5,0,0,0-1.013-.3c-1.026.067-2.068.125-3.076.18-.942.052-1.917.106-2.873.167-.048,0-.1,0-.14,0a1.321,1.321,0,0,1-1.268-.822c-.47-.957-.962-1.927-1.437-2.866-.4-.8-.823-1.624-1.228-2.44a1.379,1.379,0,0,0-.67-.676c-.846-.417-1.7-.848-2.529-1.265-.912-.459-1.854-.934-2.785-1.39a1.343,1.343,0,0,1-.833-1.4c.05-.759.091-1.534.13-2.283.056-1.055.113-2.146.2-3.221a2.471,2.471,0,0,0-.438-1.743c-.594-.849-1.169-1.725-1.725-2.572-.423-.646-.861-1.313-1.3-1.959a1.476,1.476,0,0,1-.014-1.838c.609-.892,1.215-1.812,1.8-2.7.465-.707.947-1.437,1.429-2.153a1.448,1.448,0,0,0,.267-.969c-.055-.86-.1-1.734-.15-2.578-.06-1.085-.122-2.208-.2-3.308a1.452,1.452,0,0,1,.911-1.53c.911-.446,1.835-.913,2.728-1.365.794-.4,1.616-.817,2.429-1.218a1.525,1.525,0,0,0,.75-.745c.409-.834.835-1.673,1.247-2.485.452-.891.919-1.812,1.363-2.722a1.427,1.427,0,0,1,1.374-.888c.054,0,.109,0,.168.006,1.133.075,2.287.139,3.4.2.832.046,1.693.094,2.54.146a1.31,1.31,0,0,0,.866-.247c.747-.5,1.509-1,2.246-1.491.874-.578,1.778-1.175,2.66-1.769A1.569,1.569,0,0,1,1951.972,394.481Zm6.57,5.316a2.879,2.879,0,0,1-1.648-.518c-.681-.457-1.38-.917-2.055-1.362-.938-.618-1.909-1.258-2.856-1.9l-.013-.009-.036.023c-.888.6-1.795,1.2-2.672,1.778-.735.486-1.495.988-2.238,1.486a2.8,2.8,0,0,1-1.794.5c-.842-.052-1.7-.1-2.531-.145-1.12-.062-2.279-.126-3.42-.2-.027,0-.051,0-.071,0s-.015.027-.024.046c-.449.921-.919,1.847-1.374,2.743-.41.808-.833,1.643-1.239,2.468a3.033,3.033,0,0,1-1.433,1.429c-.807.4-1.625.812-2.416,1.212-.9.454-1.825.923-2.746,1.374-.033.016-.058.03-.076.04,0,.011,0,.024,0,.038.077,1.111.139,2.239.2,3.329.047.842.095,1.712.149,2.566a2.954,2.954,0,0,1-.521,1.9c-.478.709-.957,1.436-1.42,2.139-.59.895-1.2,1.82-1.816,2.723-.018.026-.03.046-.039.061.011.02.028.048.053.085.448.657.89,1.33,1.317,1.982.549.838,1.118,1.7,1.7,2.534a3.956,3.956,0,0,1,.7,2.721c-.082,1.057-.14,2.138-.195,3.184-.039.74-.08,1.5-.129,2.259.936.459,1.88.935,2.793,1.395.824.415,1.676.845,2.517,1.259a2.881,2.881,0,0,1,1.35,1.356c.4.811.818,1.633,1.222,2.428.474.936.964,1.9,1.436,2.862.955-.061,1.923-.115,2.86-.167,1-.056,2.043-.113,3.062-.18.07,0,.14-.007.208-.007a3.035,3.035,0,0,1,1.742.561c.781.528,1.582,1.056,2.358,1.568.806.532,1.639,1.082,2.454,1.633.025.017.045.029.06.038l.038-.025c.885-.6,1.792-1.2,2.669-1.777.721-.475,1.467-.966,2.194-1.455a2.952,2.952,0,0,1,1.9-.531c.918.057,1.853.11,2.757.16,1.046.058,2.128.119,3.193.188h.011l0-.006c.493-1.009,1.008-2.027,1.506-3.011.373-.738.76-1.5,1.133-2.252a2.967,2.967,0,0,1,1.392-1.393c.8-.394,1.608-.805,2.391-1.2.937-.476,1.907-.968,2.87-1.438l.021-.011c0-.012,0-.025,0-.041-.072-1.127-.135-2.272-.2-3.379-.047-.862-.1-1.753-.149-2.629a2.718,2.718,0,0,1,.479-1.739c.444-.662.891-1.342,1.323-2,.63-.958,1.282-1.949,1.943-2.913.014-.02.024-.037.032-.05-.012-.021-.029-.05-.056-.089-.578-.854-1.154-1.728-1.711-2.573-.486-.737-.988-1.5-1.488-2.242a2.932,2.932,0,0,1-.52-1.908c.046-.635.077-1.281.112-2.029.017-.353.035-.732.056-1.145v-.007c.011-.176.022-.373.034-.588.036-.627.08-1.4.139-2.185-.835-.411-1.677-.836-2.491-1.247-.874-.441-1.777-.9-2.669-1.335a3.27,3.27,0,0,1-1.558-1.543c-.4-.806-.809-1.623-1.21-2.413-.455-.9-.926-1.825-1.374-2.749l-.013-.026-.04,0c-1.022.065-2.059.123-3.062.178-.947.053-1.926.107-2.887.167C1958.673,399.8,1958.607,399.8,1958.542,399.8Z" transform="translate(-1922.955 -392.448)" fill="#fc4343"/>
    <path id="Path_633" data-name="Path 633" d="M1942.848,430.571A18.094,18.094,0,1,1,1961,448.622,18.151,18.151,0,0,1,1942.848,430.571Zm33.78-.039A15.671,15.671,0,1,0,1961,446.214,15.714,15.714,0,0,0,1976.628,430.531Z" transform="translate(-1931.935 -401.479)" fill="#fc4343"/>
    <path id="Trazado_633_-_Contorno" data-name="Trazado 633 - Contorno" d="M1960.876,449.373a18.677,18.677,0,0,1-13.162-5.419,18.961,18.961,0,0,1-5.616-13.375v-.012a18.9,18.9,0,0,1,18.793-18.861h.15a18.387,18.387,0,0,1,7.23,1.47,18.72,18.72,0,0,1,5.935,4.011,18.971,18.971,0,0,1,5.58,13.271,18.361,18.361,0,0,1-1.391,7.259,18.66,18.66,0,0,1-3.955,5.977,18.95,18.95,0,0,1-13.434,5.679Zm-17.278-18.8a17.471,17.471,0,0,0,5.171,12.319,17.177,17.177,0,0,0,12.107,4.985h.12a17.45,17.45,0,0,0,12.373-5.23,16.979,16.979,0,0,0,4.917-12.168,17.478,17.478,0,0,0-5.141-12.228,17.029,17.029,0,0,0-12.1-5.042h-.138a17.4,17.4,0,0,0-17.3,17.363Zm17.314,16.4a16.436,16.436,0,0,1-16.375-16.4,16.175,16.175,0,0,1,1.283-6.377,16.565,16.565,0,0,1,8.742-8.76,16.217,16.217,0,0,1,6.386-1.3h.019a16.419,16.419,0,0,1,.033,32.837Zm.036-31.338a14.726,14.726,0,0,0-5.8,1.181,14.953,14.953,0,0,0-4.749,3.216,14.917,14.917,0,0,0,10.512,25.441h.08a14.919,14.919,0,0,0-.027-29.837Z" transform="translate(-1931.935 -401.479)" fill="#fc4343"/>
    <path id="Path_634" data-name="Path 634" d="M1977.374,436.2a1.322,1.322,0,0,1-.445.949q-4.725,4.46-9.457,8.912a1.213,1.213,0,0,1-1.86-.046q-2.456-2.48-4.87-5a1.2,1.2,0,1,1,1.731-1.664c1.266,1.275,2.522,2.56,3.753,3.869.3.32.448.289.744.007q4.047-3.857,8.121-7.683c.645-.608,1.266-.7,1.815-.271A1.179,1.179,0,0,1,1977.374,436.2Z" transform="translate(-1939.826 -411.66)" fill="#fc4343"/>
    <path id="Trazado_634_-_Contorno" data-name="Trazado 634 - Contorno" d="M1976.192,434.259a1.889,1.889,0,0,1,1.173.42,1.928,1.928,0,0,1,.758,1.488v.052a2.076,2.076,0,0,1-.679,1.475l-1.743,1.645c-2.526,2.385-5.138,4.852-7.717,7.269a1.956,1.956,0,0,1-2.906-.066c-1.614-1.63-3.255-3.315-4.878-5.009a1.937,1.937,0,0,1-.015-2.829,1.915,1.915,0,0,1,1.326-.554,2.124,2.124,0,0,1,1.494.672c1.451,1.462,2.572,2.616,3.6,3.711,2.359-2.247,4.764-4.515,7.091-6.71l.875-.825A2.366,2.366,0,0,1,1976.192,434.259Zm.431,1.947a.421.421,0,0,0-.176-.34.4.4,0,0,0-.256-.107,1,1,0,0,0-.587.33l-.875.825c-2.378,2.243-4.837,4.562-7.243,6.855a1.309,1.309,0,0,1-.894.43,1.284,1.284,0,0,1-.913-.465c-1.069-1.137-2.222-2.326-3.739-3.855a.656.656,0,0,0-.429-.229.418.418,0,0,0-.286.136c-.268.258-.116.528.058.71,1.618,1.688,3.254,3.368,4.862,4.992a.679.679,0,0,0,.417.235.663.663,0,0,0,.4-.209c2.577-2.415,5.188-4.881,7.713-7.266l1.742-1.645A.575.575,0,0,0,1976.624,436.206Z" transform="translate(-1939.826 -411.66)" fill="#fc4343"/>
  </g>
</svg>
