<svg xmlns="http://www.w3.org/2000/svg" width="57.502" height="43.73" viewBox="0 0 57.502 43.73">
  <g id="datos-icon" transform="translate(0.75 0.75)">
    <path id="Path_594" data-name="Path 594" d="M188.21-267.75H161.968c-.173,0-.347.007-.52,0a1.153,1.153,0,0,1-1.209-1.133,1.142,1.142,0,0,1,1.225-1.172c.655-.02,1.312-.036,1.964.005.484.031.647-.075.642-.612-.032-3.082.06-6.167-.039-9.246a3.327,3.327,0,0,1,3.68-3.7c1.594.092,3.2.016,4.8.019a3.132,3.132,0,0,1,3.419,3.4q.018,4.8-.007,9.594c0,.413.07.552.523.545,1.811-.031,3.622-.028,5.433,0,.425.006.489-.133.489-.517q-.018-9.565-.008-19.13c0-2.373,1.221-3.6,3.581-3.6,1.638,0,3.275,0,4.913,0a3.141,3.141,0,0,1,3.4,3.428q0,9.594-.01,19.188c0,.473.062.652.6.638,1.733-.044,3.468-.036,5.2,0,.51.009.666-.1.665-.647q-.027-17.888-.022-35.775a3.25,3.25,0,0,1,1.751-3.187,3.27,3.27,0,0,1,1.567-.315c1.753,0,3.507-.01,5.26,0a3.094,3.094,0,0,1,3.3,3.282c.019,1,0,2,0,3.005q0,16.5-.011,33c0,.483.078.681.612.632a15.037,15.037,0,0,1,1.848-.008,1.143,1.143,0,0,1,1.222,1.176,1.154,1.154,0,0,1-1.212,1.13c-.173.009-.347,0-.52,0Zm22.045-20.8q0-8.956,0-17.911c0-1-.187-1.192-1.174-1.194q-2.456,0-4.912,0c-.958,0-1.154.195-1.155,1.148q0,17.969-.013,35.939c0,.458.142.522.547.518,2.042-.02,4.084-.026,6.125,0,.48.007.6-.109.594-.592C210.247-276.612,210.254-282.583,210.254-288.554Zm-25.584,8.3c0,3.217.007,6.434-.009,9.651,0,.4.049.563.515.556,2.1-.03,4.2-.023,6.3,0,.379,0,.472-.1.471-.473q-.018-9.709-.01-19.417c0-.763-.281-1.04-1.046-1.043q-2.514-.007-5.028,0c-.949,0-1.192.243-1.192,1.2Q184.669-285.024,184.67-280.256Zm-18.3,4.842c0,1.637,0,3.273,0,4.91,0,.275-.01.455.375.451,2.176-.02,4.351-.015,6.527,0,.284,0,.353-.084.352-.358-.009-3.292,0-6.585-.01-9.877,0-.735-.282-.985-1.036-.987q-2.6-.007-5.2,0c-.736,0-1,.268-1,1.012C166.365-278.649,166.369-277.031,166.369-275.414Z" transform="translate(-160.239 309.977)" fill="#fc4343"/>
    <path id="Trazado_594_-_Contorno" data-name="Trazado 594 - Contorno" d="M214.824-267l-.315,0H161.968l-.313,0c-.094,0-.173,0-.248-.006a1.9,1.9,0,0,1-1.918-1.871,1.879,1.879,0,0,1,1.953-1.933c.347-.01.718-.021,1.089-.021.284,0,.544.006.788.018-.01-1.167,0-2.348,0-3.491.01-1.834.02-3.729-.039-5.585a4.37,4.37,0,0,1,1.141-3.273,4.161,4.161,0,0,1,3.033-1.21c.1,0,.2,0,.3.009.525.03,1.089.044,1.775.044.475,0,.961-.007,1.431-.013s.966-.013,1.452-.013h.1a3.874,3.874,0,0,1,4.168,4.152c.012,3.3.01,6.37-.005,9.387.792-.012,1.615-.019,2.451-.019.8,0,1.635.006,2.493.017-.01-5.326-.009-10.736-.008-15.97V-289.7a4.389,4.389,0,0,1,1.124-3.219,4.345,4.345,0,0,1,3.207-1.133h2.95l1.965,0a4.162,4.162,0,0,1,3.029,1.134A4.206,4.206,0,0,1,195-289.873v1.354c0,5.807,0,11.811-.01,17.719.763-.018,1.546-.027,2.389-.027.8,0,1.647.008,2.58.024-.009-6.232-.011-12.566-.012-18.692,0-5.565,0-11.319-.01-16.978a3.962,3.962,0,0,1,2.151-3.851,4.009,4.009,0,0,1,1.908-.4h.009q.936,0,1.87,0l1.427,0c.762,0,1.388,0,1.968.007a3.846,3.846,0,0,1,4.042,4.018c.014.7.01,1.413.007,2.1q0,.46,0,.921v5.133c0,9.091,0,18.49-.011,27.737.207-.013.428-.02.671-.02.305,0,.61.01.9.02l.159.005a1.9,1.9,0,0,1,1.948,1.938A1.906,1.906,0,0,1,215.069-267C214.995-267,214.917-267,214.824-267Zm-.315-1.5.315,0c.066,0,.118,0,.165,0,.5-.027.5-.3.5-.395.007-.4-.372-.409-.5-.413l-.161-.005c-.282-.009-.573-.019-.854-.019s-.522.01-.741.03c-.076.007-.145.01-.213.01a1.187,1.187,0,0,1-.875-.325,1.431,1.431,0,0,1-.342-1.066c.012-9.289.011-18.733.011-27.867v-5.133q0-.464,0-.928c0-.678.007-1.379-.007-2.063a2.651,2.651,0,0,0-.689-1.876,2.606,2.606,0,0,0-1.866-.671c-.576,0-1.2-.007-1.956-.007-.95,0-1.9,0-2.851,0H204a2.5,2.5,0,0,0-1.209.228,2.492,2.492,0,0,0-1.35,2.522c.007,5.66.009,11.414.01,16.979,0,6.161,0,12.531.012,18.8a1.418,1.418,0,0,1-.351,1.053,1.353,1.353,0,0,1-1.009.345h-.068c-.964-.017-1.831-.026-2.652-.026-.891,0-1.714.01-2.517.03h-.074a1.3,1.3,0,0,1-.962-.337,1.415,1.415,0,0,1-.336-1.054c.014-5.944.012-11.987.01-17.832v-1.354a2.408,2.408,0,0,0-2.652-2.678q-1.81,0-3.62,0h-1.291a2.93,2.93,0,0,0-2.144.69,2.975,2.975,0,0,0-.688,2.162v2.924c0,5.312,0,10.8.009,16.205a1.278,1.278,0,0,1-.317.951,1.24,1.24,0,0,1-.9.318h-.037c-.946-.014-1.869-.021-2.744-.021-.912,0-1.808.008-2.665.022h-.048a1.241,1.241,0,0,1-.918-.324,1.309,1.309,0,0,1-.32-.975c.017-3.081.019-6.217.007-9.587a2.39,2.39,0,0,0-2.67-2.657h-.094c-.475,0-.961.007-1.431.013s-.966.013-1.452.013c-.716,0-1.308-.015-1.862-.047-.071,0-.142-.006-.211-.006a2.678,2.678,0,0,0-1.956.754,2.914,2.914,0,0,0-.72,2.181c.06,1.883.05,3.794.04,5.641-.006,1.188-.013,2.417,0,3.622a1.411,1.411,0,0,1-.341,1.041,1.252,1.252,0,0,1-.913.333c-.057,0-.118,0-.185-.006-.258-.016-.536-.024-.85-.024-.351,0-.708.01-1.044.02-.5.015-.5.313-.5.411.006.369.378.389.5.4.047,0,.1,0,.166,0l.313,0h52.541Zm-29.358-.8a1.272,1.272,0,0,1-.919-.325,1.31,1.31,0,0,1-.32-.985c.012-2.464.01-4.97.009-7.394q0-1.126,0-2.253v-2.729q0-3.4,0-6.807a2.011,2.011,0,0,1,.46-1.484,2,2,0,0,1,1.482-.461h.718q2.156,0,4.312,0a1.606,1.606,0,0,1,1.794,1.792q0,2.913,0,5.825c0,4.454,0,9.061.009,13.591a1.218,1.218,0,0,1-.314.911,1.2,1.2,0,0,1-.889.314h-.025c-1.206-.011-2.265-.017-3.236-.017-1.089,0-2.085.007-3.046.02Zm.3-20.906a1.885,1.885,0,0,0-.032.414q0,3.4,0,6.806v2.729q0,1.126,0,2.252c0,2.36,0,4.8-.008,7.2.892-.011,1.818-.017,2.821-.017.9,0,1.87,0,2.963.014-.008-4.441-.008-8.949-.009-13.313q0-2.912,0-5.825a1.129,1.129,0,0,0-.024-.268,1.145,1.145,0,0,0-.274-.025q-2.153-.006-4.307,0h-.718A1.876,1.876,0,0,0,185.453-290.205ZM209.711-269.3h-.05c-.942-.014-1.914-.02-2.972-.02-.955,0-1.981.006-3.135.017h-.04a1.276,1.276,0,0,1-.939-.32,1.29,1.29,0,0,1-.325-.949c.012-9.721.012-19.606.012-29.166v-6.772a1.951,1.951,0,0,1,.439-1.463,1.975,1.975,0,0,1,1.464-.435q2.457,0,4.914,0a1.99,1.99,0,0,1,1.49.445,2.041,2.041,0,0,1,.433,1.5q0,6.853,0,13.706v4.206q0,1.856,0,3.712c0,4.653,0,9.465.013,14.2a1.379,1.379,0,0,1-.335,1.011A1.3,1.3,0,0,1,209.711-269.3Zm-3.021-1.521c1,0,1.929.006,2.826.018-.014-4.682-.013-9.439-.012-14.04q0-1.856,0-3.711v-4.206q0-6.853,0-13.705a2.906,2.906,0,0,0-.022-.422,2.834,2.834,0,0,0-.4-.021q-2.455,0-4.91,0a2.687,2.687,0,0,0-.386.021,2.648,2.648,0,0,0-.02.377v6.772c0,9.483,0,19.286-.012,28.933C204.825-270.816,205.788-270.821,206.69-270.821ZM166.729-269.3a1.113,1.113,0,0,1-.822-.3,1.159,1.159,0,0,1-.292-.888v-.015c.006-1.222,0-2.465,0-3.667q0-.619,0-1.239,0-.7,0-1.406c0-1.13,0-2.3,0-3.448a1.807,1.807,0,0,1,.444-1.31,1.783,1.783,0,0,1,1.307-.45c.813,0,1.67,0,2.546,0s1.772,0,2.657,0a1.565,1.565,0,0,1,1.784,1.735c0,1.681,0,3.389.005,5.042,0,1.585,0,3.224,0,4.835a1.11,1.11,0,0,1-.291.817,1.1,1.1,0,0,1-.8.293h-.012c-1.3-.007-2.36-.01-3.349-.01-1.142,0-2.178,0-3.167.013Zm.412-11.206a1.228,1.228,0,0,0-.02.246c0,1.146,0,2.313,0,3.441q0,.7,0,1.407,0,.619,0,1.238c0,1.1,0,2.243,0,3.37.88-.007,1.8-.01,2.8-.01.887,0,1.835,0,2.954.008,0-1.485,0-2.987,0-4.443,0-1.651,0-3.359-.005-5.038a1.153,1.153,0,0,0-.017-.217,1.312,1.312,0,0,0-.271-.022q-1.327,0-2.654,0c-.874,0-1.729,0-2.541,0A1.2,1.2,0,0,0,167.141-280.509Z" transform="translate(-160.239 309.977)" fill="#fc4343"/>
  </g>
</svg>
