<svg xmlns="http://www.w3.org/2000/svg" xmlns:xlink="http://www.w3.org/1999/xlink" width="190" height="190" viewBox="0 0 190 190">
  <defs>
    <filter id="Ellipse_5" x="0" y="0" width="190" height="190" filterUnits="userSpaceOnUse">
      <feOffset dy="10" input="SourceAlpha"/>
      <feGaussianBlur stdDeviation="15" result="blur"/>
      <feFlood flood-opacity="0.161"/>
      <feComposite operator="in" in2="blur"/>
      <feComposite in="SourceGraphic"/>
    </filter>
    <linearGradient id="linear-gradient" x1="172.688" y1="0.829" x2="173.148" y2="0.067" gradientUnits="objectBoundingBox">
      <stop offset="0" stop-color="#eff2f5"/>
      <stop offset="1" stop-color="#86898b"/>
    </linearGradient>
    <linearGradient id="linear-gradient-2" x1="383.214" y1="0.799" x2="383.559" y2="0.18" xlink:href="#linear-gradient"/>
    <linearGradient id="linear-gradient-3" x1="254.821" y1="319.041" x2="254.821" y2="317.536" xlink:href="#linear-gradient"/>
    <linearGradient id="linear-gradient-4" x1="343.707" y1="261.724" x2="342.933" y2="260.11" xlink:href="#linear-gradient"/>
    <linearGradient id="linear-gradient-5" x1="774.518" y1="103.974" x2="774.518" y2="103.046" xlink:href="#linear-gradient"/>
    <linearGradient id="linear-gradient-6" x1="691.965" y1="117.402" x2="691.965" y2="116.231" xlink:href="#linear-gradient"/>
    <linearGradient id="linear-gradient-7" x1="298.336" y1="93.557" x2="298.84" y2="93.054" xlink:href="#linear-gradient"/>
    <linearGradient id="linear-gradient-8" x1="335.568" y1="126.311" x2="335.568" y2="125.579" xlink:href="#linear-gradient"/>
    <linearGradient id="linear-gradient-9" x1="373.76" y1="133.455" x2="373.76" y2="134.425" xlink:href="#linear-gradient"/>
    <linearGradient id="linear-gradient-10" x1="752.088" y1="268.551" x2="752.088" y2="269.818" xlink:href="#linear-gradient"/>
    <linearGradient id="linear-gradient-11" x1="135.704" y1="49.266" x2="135.704" y2="48.401" xlink:href="#linear-gradient"/>
    <linearGradient id="linear-gradient-12" x1="137.01" y1="0.922" x2="137.01" y2="0.142" xlink:href="#linear-gradient"/>
    <linearGradient id="linear-gradient-13" x1="88.684" y1="73.445" x2="88.798" y2="74.023" gradientUnits="objectBoundingBox">
      <stop offset="0" stop-color="#485154"/>
      <stop offset="1" stop-color="#151e21"/>
    </linearGradient>
    <linearGradient id="linear-gradient-14" x1="158.453" y1="114.342" x2="158.321" y2="113.968" xlink:href="#linear-gradient-13"/>
    <linearGradient id="linear-gradient-15" x1="113.021" y1="32.455" x2="113.163" y2="32.729" gradientUnits="objectBoundingBox">
      <stop offset="0.003" stop-color="#9ea5a9"/>
      <stop offset="0.02" stop-color="#a9b0b4"/>
      <stop offset="0.062" stop-color="#c0c7cb"/>
      <stop offset="0.107" stop-color="#d1d8dc"/>
      <stop offset="0.157" stop-color="#dae1e5"/>
      <stop offset="0.222" stop-color="#dee5e9"/>
      <stop offset="0.398" stop-color="#dae1e5"/>
      <stop offset="0.542" stop-color="#d0d7db"/>
      <stop offset="0.674" stop-color="#bfc6ca"/>
      <stop offset="0.798" stop-color="#a7aeb2"/>
      <stop offset="0.84" stop-color="#9ea5a9"/>
      <stop offset="1" stop-color="#6f7980"/>
    </linearGradient>
    <linearGradient id="linear-gradient-16" x1="306.728" y1="79.248" x2="307.135" y2="79.956" gradientUnits="objectBoundingBox">
      <stop offset="0.003" stop-color="#858c90"/>
      <stop offset="0.02" stop-color="#90979b"/>
      <stop offset="0.062" stop-color="#a7aeb2"/>
      <stop offset="0.107" stop-color="#b8bfc3"/>
      <stop offset="0.157" stop-color="#c1c8cc"/>
      <stop offset="0.222" stop-color="#c5ccd0"/>
      <stop offset="0.398" stop-color="#c1c8cc"/>
      <stop offset="0.542" stop-color="#b7bec2"/>
      <stop offset="0.674" stop-color="#a6adb1"/>
      <stop offset="0.798" stop-color="#8e9599"/>
      <stop offset="0.84" stop-color="#858c90"/>
      <stop offset="1" stop-color="#566067"/>
    </linearGradient>
    <linearGradient id="linear-gradient-17" x1="66.086" y1="1.107" x2="66.332" y2="0.084" xlink:href="#linear-gradient-13"/>
    <linearGradient id="linear-gradient-18" x1="115.433" y1="1.214" x2="115.666" y2="0.075" xlink:href="#linear-gradient-13"/>
    <linearGradient id="linear-gradient-19" x1="43.409" y1="0.464" x2="43.111" y2="0.17" gradientUnits="objectBoundingBox">
      <stop offset="0" stop-color="#3b4447"/>
      <stop offset="1" stop-color="#081114"/>
    </linearGradient>
    <linearGradient id="linear-gradient-20" x1="39.282" y1="0.414" x2="38.971" y2="-0.08" gradientUnits="objectBoundingBox">
      <stop offset="0" stop-color="#fff"/>
      <stop offset="1"/>
    </linearGradient>
    <linearGradient id="linear-gradient-21" x1="61.685" y1="1.361" x2="62.58" y2="-0.065" xlink:href="#linear-gradient-13"/>
    <linearGradient id="linear-gradient-22" x1="41.72" y1="0.5" x2="42.72" y2="0.5" xlink:href="#linear-gradient-19"/>
    <linearGradient id="linear-gradient-23" x1="78.319" y1="0.228" x2="77.478" y2="1.107" xlink:href="#linear-gradient-20"/>
    <radialGradient id="radial-gradient" cx="0.267" cy="0.338" r="0.827" gradientUnits="objectBoundingBox">
      <stop offset="0.003" stop-color="#dfe6ea"/>
      <stop offset="1" stop-color="#bdc5c9"/>
    </radialGradient>
    <linearGradient id="linear-gradient-24" x1="172.709" y1="0.829" x2="173.169" y2="0.067" xlink:href="#linear-gradient"/>
    <linearGradient id="linear-gradient-25" x1="383.358" y1="0.799" x2="383.704" y2="0.18" xlink:href="#linear-gradient"/>
    <linearGradient id="linear-gradient-26" x1="253.26" y1="302.221" x2="253.26" y2="300.716" xlink:href="#linear-gradient"/>
    <linearGradient id="linear-gradient-27" x1="341.643" y1="248.371" x2="340.869" y2="246.757" xlink:href="#linear-gradient"/>
    <linearGradient id="linear-gradient-28" x1="770.224" y1="98.638" x2="770.224" y2="97.71" xlink:href="#linear-gradient"/>
    <linearGradient id="linear-gradient-29" x1="687.568" y1="111.329" x2="687.568" y2="110.158" xlink:href="#linear-gradient"/>
    <linearGradient id="linear-gradient-30" x1="296.513" y1="88.761" x2="297.016" y2="88.258" xlink:href="#linear-gradient"/>
    <linearGradient id="linear-gradient-31" x1="333.24" y1="119.842" x2="333.24" y2="119.11" xlink:href="#linear-gradient"/>
    <linearGradient id="linear-gradient-32" x1="371.524" y1="126.6" x2="371.524" y2="127.571" xlink:href="#linear-gradient"/>
    <linearGradient id="linear-gradient-33" x1="747.899" y1="254.69" x2="747.899" y2="255.958" xlink:href="#linear-gradient"/>
    <linearGradient id="linear-gradient-34" x1="134.836" y1="46.763" x2="134.836" y2="45.899" xlink:href="#linear-gradient"/>
    <linearGradient id="linear-gradient-35" x1="137.027" y1="0.922" x2="137.027" y2="0.142" xlink:href="#linear-gradient"/>
    <linearGradient id="linear-gradient-36" x1="209.289" y1="71.357" x2="209.289" y2="72.327" xlink:href="#linear-gradient"/>
    <linearGradient id="linear-gradient-37" x1="338.051" y1="115.25" x2="338.051" y2="116.22" xlink:href="#linear-gradient"/>
    <linearGradient id="linear-gradient-38" x1="115.929" y1="0.893" x2="116.18" y2="0.308" xlink:href="#linear-gradient-13"/>
    <linearGradient id="linear-gradient-39" x1="136.065" y1="0.311" x2="136.824" y2="0.911" gradientUnits="objectBoundingBox">
      <stop offset="0" stop-color="#474747"/>
      <stop offset="0.004" stop-color="#4b4b4b"/>
      <stop offset="0.026" stop-color="#616161"/>
      <stop offset="0.051" stop-color="#727272"/>
      <stop offset="0.082" stop-color="#7e7e7e"/>
      <stop offset="0.126" stop-color="#858585"/>
      <stop offset="0.249" stop-color="#878787"/>
      <stop offset="0.357" stop-color="#d3d3d3"/>
      <stop offset="0.721" stop-color="#d3d3d3"/>
      <stop offset="0.97" stop-color="#5e5e5e"/>
    </linearGradient>
    <linearGradient id="linear-gradient-40" x1="134.862" y1="0.419" x2="134.983" y2="0.953" xlink:href="#linear-gradient-20"/>
    <linearGradient id="linear-gradient-41" x1="233.678" y1="-0.033" x2="232.618" y2="1.172" gradientUnits="objectBoundingBox">
      <stop offset="0" stop-color="#e9e9e9"/>
      <stop offset="1" stop-color="#b7b7b7"/>
    </linearGradient>
    <linearGradient id="linear-gradient-42" x1="410.651" y1="1.278" x2="410.079" y2="-0.07" gradientUnits="objectBoundingBox">
      <stop offset="0" stop-color="#c2c2c2"/>
      <stop offset="1" stop-color="#909090"/>
    </linearGradient>
    <linearGradient id="linear-gradient-43" x1="676.342" y1="-0.028" x2="675.719" y2="1.039" xlink:href="#linear-gradient-39"/>
    <linearGradient id="linear-gradient-44" x1="676.767" y1="-0.028" x2="676.143" y2="1.038" xlink:href="#linear-gradient-39"/>
    <linearGradient id="linear-gradient-45" x1="275.148" y1="-0.028" x2="274.524" y2="1.038" xlink:href="#linear-gradient-39"/>
    <linearGradient id="linear-gradient-46" x1="136.304" y1="0.477" x2="136.616" y2="0.75" xlink:href="#linear-gradient-20"/>
    <linearGradient id="linear-gradient-47" x1="144.908" y1="0.568" x2="144.699" y2="1.133" xlink:href="#linear-gradient-20"/>
    <linearGradient id="linear-gradient-48" x1="87.855" y1="0.627" x2="87.339" y2="0.348" xlink:href="#linear-gradient-20"/>
    <linearGradient id="linear-gradient-49" x1="564.879" y1="0.253" x2="564.666" y2="0.746" xlink:href="#linear-gradient-15"/>
    <linearGradient id="linear-gradient-50" x1="205.446" y1="0.484" x2="205.736" y2="0.535" xlink:href="#linear-gradient-15"/>
    <linearGradient id="linear-gradient-51" x1="1716.599" y1="0.161" x2="1716.22" y2="0.836" xlink:href="#linear-gradient-15"/>
    <linearGradient id="linear-gradient-52" x1="566.023" y1="0.451" x2="566.625" y2="0.581" gradientUnits="objectBoundingBox">
      <stop offset="0" stop-color="#485154"/>
      <stop offset="0.396" stop-color="#778b91"/>
      <stop offset="1" stop-color="#151e21"/>
    </linearGradient>
    <linearGradient id="linear-gradient-53" x1="249.174" y1="0.5" x2="250.174" y2="0.5" gradientUnits="objectBoundingBox">
      <stop offset="0" stop-color="#f9fcff"/>
      <stop offset="1" stop-color="#76797a"/>
    </linearGradient>
    <linearGradient id="linear-gradient-54" x1="73.417" y1="0.496" x2="73.175" y2="0.965" xlink:href="#linear-gradient-20"/>
    <linearGradient id="linear-gradient-55" x1="132.971" y1="0.4" x2="133.358" y2="0.818" gradientUnits="objectBoundingBox">
      <stop offset="0" stop-color="#626b6e"/>
      <stop offset="1" stop-color="#2f383b"/>
    </linearGradient>
    <linearGradient id="linear-gradient-56" x1="718.209" y1="0.218" x2="717.483" y2="1.068" xlink:href="#linear-gradient-55"/>
  </defs>
  <g id="delivery-icon" transform="translate(-438 -2412)">
    <g transform="matrix(1, 0, 0, 1, 438, 2412)" filter="url(#Ellipse_5)">
      <circle id="Ellipse_5-2" data-name="Ellipse 5" cx="50" cy="50" r="50" transform="translate(45 35)" fill="#fff"/>
    </g>
    <g id="Group_123" data-name="Group 123" transform="translate(-62.276 2122.802)">
      <path id="Path_140" data-name="Path 140" d="M617.465,378.233c-.493-.231-4.751,1.537-5.751,1.958-5.682-.3-13.5,3.761-16.07,5.323h0c-.085.051-.164.1-.236.145l-.009,0c-.069.044-.135.085-.192.124l-.011.006-.153.1-.013.009-.059.042h0l-.051.038-.01.007-.041.032h0l-.032.026-.007.006-.022.022c-.022.023-.044.05-.067.079a11.092,11.092,0,0,0-3.206,1.465c-1.057.705-4.961,3.714-8.264,6.284l-2.3-1.648.165-.089-.145-.1-.155.085-1.343-1.53a3.484,3.484,0,0,0-.615,1.9,2.458,2.458,0,0,0,.732,1.2,5.34,5.34,0,0,0-.739-.3.156.156,0,0,0-.085-.12.424.424,0,0,0-.415,0,.14.14,0,0,0,0,.259.432.432,0,0,0,.389.013,18.231,18.231,0,0,1,1.727.931l.25.2h0l-.07.427.362.271-.446.252v.008c0,.008,0,.025,0,.048v0c0,.057-.007.157-.008.292-.56.438-1.047.82-1.43,1.118l-.093.027c-.932.264-2.871,1.029-3.854,1.425h0l-.111.044-.007,0-.049.019,0,0a.365.365,0,0,0-.044.018l-.013.006a.211.211,0,0,0-.031.013c-.007,0-.012,0-.017.006l-.031.013-.018.007-.1.041-.017.008-.016.007-.043.017-.035.014a.163.163,0,0,0-.028.012l-.027.011-.758.9-.925,1.1,0,0,0,.007,0,0,0,.012,0,.008-.006.015,0,.009-.006.018,0,.013a.143.143,0,0,0-.008.021l0,.015-.008.025-.006.016c0,.01,0,.018-.008.029l-.006.018c0,.01-.006.022-.01.034l0,.018c0,.012-.008.027-.013.04l0,.018-.012.047,0,.015c-.01.044-.02.091-.03.144h0l-.014.076,0,.018c0,.022-.008.043-.011.065l0,.027c0,.02-.006.038-.009.06l0,.034c0,.019,0,.039-.006.059l0,.036-.006.063,0,.037c0,.022,0,.042,0,.065l0,.038c0,.022,0,.043,0,.066v.039c0,.024,0,.048,0,.072v.155l0,.085v.031a1.661,1.661,0,0,0-.823,1.008l-.866.526-.007,0-.184-.116-.6.378.174.11-.193.117s-.3.686.954.61l.214-.118.1.063-.008.009-.007.01c-.026.029-.056.062-.084.094v0l-.179.206-.006.008c-.03.035-.059.071-.089.106l0,0c-.063.074-.124.148-.186.223l-.006.008c-.031.037-.061.073-.089.111l-.012.011c-.03.037-.06.074-.09.111-.423.521-.843,1.065-1.128,1.472l-2.133,1.332a.152.152,0,0,0-.052.236l.145.164h0l.527.582a.442.442,0,0,0,.037.038h0a1.26,1.26,0,0,0,.144.124,1.029,1.029,0,0,0,.108.076l.35.219.17.1.506.318a.351.351,0,0,1,.039.023h0a1,1,0,0,0,.091.047l0,0,.048.022h0c.068.03.141.059.2.077l.694.215.271.084a.536.536,0,0,0,.387-.038l2.223-1.39c.964-.257,2.417-.713,3.685-1.134l.1.059-.19.134c-.121.787.976.6.976.6l.189-.12.175.111.605-.378-.185-.115.006,0,.841-.542a3.644,3.644,0,0,0,1.48-.436l.094,0h.01q.3.006.572,0h.01l.514-.011h.007l.449-.02.006,0,.131-.01h0l.245-.017h0c.035,0,.069-.006.1-.011h.008c.07,0,.135-.013.193-.017h0c.028,0,.053-.006.078-.011h.01c.077-.008.14-.015.19-.023l.01,0c.012,0,.026,0,.036,0h.006a.184.184,0,0,1,.036,0h0l.022-.006h0l.012,0h0l0,0,1.9-.623,1.295-.425,0-.006.008-.007v0a.1.1,0,0,0,.022-.018h0l.032-.029,0,0a33.667,33.667,0,0,0,2.6-2.713c.025-.037.049-.071.069-.1l.017-.028c.016-.028.033-.054.046-.081a.19.19,0,0,1,.011-.02l.01-.022c.424-.21.932-.463,1.5-.746h.077l.232,0h.3l0,0h.037l.4-.278.445.23.683-.042h0c.115.054.222.107.319.157a14.558,14.558,0,0,1,1.49,1.077.137.137,0,0,0,.023.241.424.424,0,0,0,.415,0,.14.14,0,0,0,0-.258.381.381,0,0,0-.193-.055,3.03,3.03,0,0,0-.482-.46,6.692,6.692,0,0,0,1.93.457,12.367,12.367,0,0,0,3.046-.383l-2.45-.84.136-.1-.167-.089-.145.1-2.691-1.465c4.116-2.063,8.937-4.5,10.068-5.162a7.431,7.431,0,0,0,2.279-1.91c.1-.029.2-.056.273-.084l.035-.013.009,0,.041-.02h0c.015-.007.033-.016.05-.025l.012-.006.06-.032h0c.022-.012.044-.025.067-.038l.014-.007.163-.1.012-.008c.062-.036.127-.077.2-.119l.009-.007.232-.145,0,0c2.524-1.619,9.135-6.585,8.506-10.141.849-.825,3.233-3.182,3.1-3.513C619.7,379.322,618.022,378.495,617.465,378.233ZM579.85,407.974l.423-.272c.07,0,.14.008.207.01h.009l.158.009A3.5,3.5,0,0,1,579.85,407.974Zm-7.126-5.218a.24.24,0,0,1,0,.038c0,.021,0,.041.009.064l-.547.33a1.636,1.636,0,0,1,.519-.589C572.712,402.651,572.718,402.7,572.724,402.756Zm22-.368s-.842-.182-1.5-.362l-.1-.069.393-.272-.069.05.166.091.327-.236,1.2.655Zm-12.253-7.958-.376.2.13.092-.062.047-.288.163c-.019-.012-.053-.032-.1-.059-.29-.411-.579-.937-.579-.937l.226-.262Z" transform="translate(-0.025 -1.397)" opacity="0.1" style="mix-blend-mode: multiply;isolation: isolate"/>
      <g id="Group_107" data-name="Group 107" transform="translate(603.936 370.1)">
        <path id="Path_141" data-name="Path 141" d="M615.707,375.807a4.359,4.359,0,0,1-.041,3.784c-.9,2.317-2.866,4.094-4.441,4.037a1.565,1.565,0,0,0,1.019.482c1.549.139,3.526-1.617,4.42-3.92C617.512,378.005,617.076,376.113,615.707,375.807Z" transform="translate(-605.63 -371.406)" fill="#2e373a"/>
        <path id="Path_142" data-name="Path 142" d="M616.018,375.928a4.358,4.358,0,0,1-.039,3.784c-.9,2.317-2.868,4.094-4.442,4.036a1.57,1.57,0,0,0,1.019.482c1.548.139,3.527-1.616,4.42-3.919C617.823,378.125,617.388,376.233,616.018,375.928Z" transform="translate(-605.642 -371.41)" fill="url(#linear-gradient)"/>
        <path id="Path_143" data-name="Path 143" d="M615.487,379.409c-.184-.059-.406-.461-.618-.727-.262-.517-.654-1.256-.781-1.515a1.1,1.1,0,0,1,.751-1.341,3.281,3.281,0,0,0-1.031.4,5.989,5.989,0,0,0-1.627,1.444c.786-.945,1.169.088,1.1.71a11.086,11.086,0,0,1-.506,1.452c-.368.808-.9,1.989-1.082,2.389s-.884,1.1-1.057.312a2.36,2.36,0,0,0,.37.917,1.572,1.572,0,0,0,1.191.684c-.759-.1-.012-1.541.46-2.034a7.259,7.259,0,0,1,1.124-.724c.63-.292,1.553-.734,1.863-.874s.882.082.3,1.03a7.9,7.9,0,0,0,.663-1.319,5.923,5.923,0,0,0,.433-2.128A1.41,1.41,0,0,1,615.487,379.409Z" transform="translate(-605.608 -371.406)" fill="#d0d2d4"/>
        <path id="Path_144" data-name="Path 144" d="M611.693,382.279c.186-.4.714-1.581,1.082-2.389a11.086,11.086,0,0,0,.506-1.452c.055-.491-.172-1.237-.657-1.065a1.514,1.514,0,0,1,.142.813,10.914,10.914,0,0,1-.5,1.453c-.368.808-.9,1.989-1.084,2.389a1.522,1.522,0,0,1-.531.6C610.834,383.35,611.506,382.682,611.693,382.279Z" transform="translate(-605.608 -371.464)" fill="url(#linear-gradient-2)"/>
        <path id="Path_145" data-name="Path 145" d="M615.669,379.489a1.41,1.41,0,0,0,1.556-1.325l-.515-.25a1.435,1.435,0,0,1-1.3,1.343A.662.662,0,0,0,615.669,379.489Z" transform="translate(-605.789 -371.486)" fill="#eaecee"/>
        <path id="Path_146" data-name="Path 146" d="M612.609,377.218a5.718,5.718,0,0,1,1-.851,1.017,1.017,0,0,1,.757-.8,3.306,3.306,0,0,0-1.031.4,5.909,5.909,0,0,0-1.625,1.444C612.125,376.911,612.427,376.964,612.609,377.218Z" transform="translate(-605.649 -371.396)" fill="#0080ff"/>
        <path id="Path_147" data-name="Path 147" d="M610.985,383.7a2.339,2.339,0,0,1-.36-.876c-.22.126-.438.1-.524-.29a2.361,2.361,0,0,0,.37.916,1.569,1.569,0,0,0,.875.627A1.666,1.666,0,0,1,610.985,383.7Z" transform="translate(-605.587 -371.662)" fill="#0080ff"/>
        <path id="Path_148" data-name="Path 148" d="M617.266,378.716h0v0Z" transform="translate(-605.86 -371.516)" fill="#0080ff"/>
        <path id="Path_149" data-name="Path 149" d="M616.186,381.708h0l.008-.014Z" transform="translate(-605.819 -371.63)" fill="#0080ff"/>
        <path id="Path_150" data-name="Path 150" d="M616.177,381.646l.1-.192c.319-.705-.122-.888-.414-.782a1.166,1.166,0,0,1-.239.791l.542.206A.086.086,0,0,1,616.177,381.646Z" transform="translate(-605.798 -371.59)" fill="#9d9fa1"/>
        <path id="Path_151" data-name="Path 151" d="M613.761,381.6l.008,0c.628-.289,1.634-.771,1.961-.919s.882.082.3,1.03a8.218,8.218,0,0,0,.442-.805c-.01-.276-.1-.539-.417-.5a16.586,16.586,0,0,0-2.238.913,6.372,6.372,0,0,1-.885.224.586.586,0,0,0,.356.154A.934.934,0,0,0,613.761,381.6Z" transform="translate(-605.695 -371.58)" fill="url(#linear-gradient-3)"/>
        <path id="Path_152" data-name="Path 152" d="M614.958,378.7l-.009-.008a.579.579,0,0,0-.384-.193,1.1,1.1,0,0,0,.065.164c.486.992.7,1.287,1.589,1.012a1.818,1.818,0,0,0,.929-.856,4.7,4.7,0,0,0,.043-.645,1.41,1.41,0,0,1-1.556,1.325C615.437,379.435,615.19,378.96,614.958,378.7Z" transform="translate(-605.757 -371.496)" fill="url(#linear-gradient-4)"/>
        <path id="Path_153" data-name="Path 153" d="M615.038,378.769v-.007c-.26-.517-.689-1.323-.822-1.595a1.1,1.1,0,0,1,.751-1.341,2.979,2.979,0,0,0-.632.2,1.394,1.394,0,0,0-.349.988c.1.746.574,1.168.834,1.946a6.4,6.4,0,0,1,.227.9,2.031,2.031,0,0,0,.094-.589A1.112,1.112,0,0,0,615.038,378.769Z" transform="translate(-605.735 -371.406)" fill="url(#linear-gradient-5)"/>
        <path id="Path_154" data-name="Path 154" d="M612.787,380.023l0,.017a2.127,2.127,0,0,0-.119.661c.039-.071.077-.149.117-.235.711-1.531.919-2.075.652-2.931a.521.521,0,0,0-.7-.362,7.2,7.2,0,0,0-.487.547c.786-.945,1.169.088,1.1.71A14.808,14.808,0,0,1,612.787,380.023Z" transform="translate(-605.669 -371.457)" fill="url(#linear-gradient-6)"/>
        <path id="Path_155" data-name="Path 155" d="M612.837,379.81l0,.011c-.369.8-.946,2.092-1.141,2.513s-.884,1.1-1.057.312a2.674,2.674,0,0,0,.191.606.9.9,0,0,0,.766-.487c.552-.822.837-1.808,1.4-2.86.252-.467.48-.844.656-1.121a2.425,2.425,0,0,0-.447.435A2.894,2.894,0,0,0,612.837,379.81Z" transform="translate(-605.608 -371.519)" fill="url(#linear-gradient-7)"/>
        <path id="Path_156" data-name="Path 156" d="M613.93,381.5l.013-.01a2.223,2.223,0,0,0,.5-.468,1.88,1.88,0,0,0-.183.072,3.691,3.691,0,0,0-2.241,1.918,1.656,1.656,0,0,0-.225,1.219,1.692,1.692,0,0,0,.441.1c-.759-.1-.012-1.541.46-2.034A9.665,9.665,0,0,1,613.93,381.5Z" transform="translate(-605.651 -371.604)" fill="url(#linear-gradient-8)"/>
        <g id="Group_106" data-name="Group 106" transform="translate(6.994 7)">
          <path id="Path_157" data-name="Path 157" d="M615.092,379.369c0-.769-.54-1.08-1.205-.7a2.664,2.664,0,0,0-1.206,2.087c0,.77.541,1.08,1.206.7A2.666,2.666,0,0,0,615.092,379.369Z" transform="translate(-612.68 -378.509)" fill="url(#linear-gradient-9)"/>
          <path id="Path_158" data-name="Path 158" d="M614.984,379.44c0-.7-.491-.981-1.094-.632A2.418,2.418,0,0,0,612.8,380.7c0,.7.49.98,1.095.631A2.419,2.419,0,0,0,614.984,379.44Z" transform="translate(-612.684 -378.514)" fill="#d0d2d4"/>
          <path id="Path_159" data-name="Path 159" d="M614.509,379.751c0-.383-.268-.538-.6-.346a1.32,1.32,0,0,0-.6,1.037c0,.382.267.537.6.345A1.324,1.324,0,0,0,614.509,379.751Z" transform="translate(-612.704 -378.54)" fill="url(#linear-gradient-10)"/>
        </g>
        <path id="Path_160" data-name="Path 160" d="M614.364,373.613a12.506,12.506,0,0,0-5.657,9.8c0,3.609,2.534,5.071,5.657,3.267a12.505,12.505,0,0,0,5.658-9.8C620.022,373.272,617.489,371.81,614.364,373.613Zm0,11.278c-2.27,1.311-4.109.248-4.109-2.372a9.082,9.082,0,0,1,4.109-7.118c2.271-1.311,4.11-.248,4.11,2.373A9.08,9.08,0,0,1,614.364,384.891Z" transform="translate(-605.534 -371.293)" fill="#2b2b2c"/>
        <path id="Path_161" data-name="Path 161" d="M614.426,375.48a9.082,9.082,0,0,0-4.109,7.118c0,2.62,1.838,3.683,4.109,2.372a9.08,9.08,0,0,0,4.11-7.118C618.536,375.232,616.7,374.169,614.426,375.48Zm0,8.868c-1.971,1.138-3.569.215-3.569-2.061a7.89,7.89,0,0,1,3.569-6.183c1.972-1.138,3.571-.216,3.571,2.06A7.893,7.893,0,0,1,614.426,384.348Z" transform="translate(-605.596 -371.372)" fill="#d0d2d4"/>
        <path id="Path_162" data-name="Path 162" d="M614.136,375.92a7.889,7.889,0,0,0-3.57,6.183c0,2.277,1.6,3.2,3.57,2.061a7.89,7.89,0,0,0,3.57-6.184C617.706,375.7,616.107,374.782,614.136,375.92Zm-1.618,8.292c-1.549-.139-2.078-2.117-1.184-4.419s2.872-4.059,4.419-3.921,2.079,2.118,1.185,4.421S614.066,384.35,612.518,384.212Z" transform="translate(-605.605 -371.391)" fill="#d0d2d4"/>
        <path id="Path_163" data-name="Path 163" d="M614.364,373.613a12.506,12.506,0,0,0-5.657,9.8c0,3.609,2.534,5.071,5.657,3.267a12.505,12.505,0,0,0,5.658-9.8C620.022,373.272,617.489,371.81,614.364,373.613Zm0,12.516c-2.861,1.652-5.181.313-5.181-2.992a11.455,11.455,0,0,1,5.181-8.975c2.863-1.653,5.183-.313,5.183,2.992A11.452,11.452,0,0,1,614.364,386.129Z" transform="translate(-605.534 -371.293)" fill="#555e61"/>
        <path id="Path_164" data-name="Path 164" d="M608.582,383.351a12.506,12.506,0,0,1,5.657-9.8c1.666-.961,3.163-.995,4.2-.27h0a7.07,7.07,0,0,0-3.683-1.978,5.491,5.491,0,0,0-3.687.836,12.505,12.505,0,0,0-5.658,9.8,4.3,4.3,0,0,0,1.348,3.453,7.9,7.9,0,0,0,4.311,2,2.1,2.1,0,0,0,.613,0C609.842,387.37,608.582,385.9,608.582,383.351Z" transform="translate(-605.409 -371.232)" fill="#2b2b2c"/>
        <path id="Path_165" data-name="Path 165" d="M615.81,375.766c-1.593-.142-3.629,1.662-4.548,4.032s-.374,4.4,1.219,4.546,3.627-1.662,4.546-4.032S617.4,375.907,615.81,375.766Zm-3.283,8.459c-1.549-.139-2.078-2.117-1.184-4.419s2.872-4.059,4.419-3.921,2.079,2.118,1.185,4.421S614.075,384.363,612.527,384.224Z" transform="translate(-605.615 -371.404)" fill="url(#linear-gradient-11)"/>
        <path id="Path_166" data-name="Path 166" d="M615.645,375.433c1.223-.049,2.069.889,2.069,2.546a7.89,7.89,0,0,1-3.57,6.184c-1.537.887-2.847.521-3.35-.761.407,1.655,1.887,2.2,3.65,1.185a8.311,8.311,0,0,0,3.762-6.515C618.206,376.158,617.133,375.154,615.645,375.433Z" transform="translate(-605.614 -371.39)" fill="url(#linear-gradient-12)"/>
      </g>
      <path id="Path_167" data-name="Path 167" d="M614.013,375.468a6.758,6.758,0,0,1,1.111,3.417c-.189,1.125-6.346,5.451-6.346,5.451l.013-6.158Z" transform="translate(-1.601 -1.293)" fill="#222b2e"/>
      <g id="Group_108" data-name="Group 108" transform="translate(601.951 376.884)">
        <path id="Path_168" data-name="Path 168" d="M617.024,379.641s-1.376-2.236-3.169-.969a34.006,34.006,0,0,0-4.962,4.868c-.931,1.085-2.967,3.072-4.616,3.477l-.932,1.531a27.024,27.024,0,0,0,5.463-1.63,41.029,41.029,0,0,0,6.941-5.017A4.252,4.252,0,0,0,617.024,379.641Z" transform="translate(-603.345 -378.284)" fill="url(#linear-gradient-13)"/>
        <path id="Path_169" data-name="Path 169" d="M615.073,379.652a5.82,5.82,0,0,0-3.012,1.921c-1.505,1.531-4.631,4.676-4.631,4.676s.831-.032,2.767-1.663A64.49,64.49,0,0,0,615.073,379.652Z" transform="translate(-603.5 -378.336)" fill="url(#linear-gradient-14)"/>
      </g>
      <path id="Path_170" data-name="Path 170" d="M618.742,376.749a.784.784,0,0,0-.787.08l-8.257,6.955,2.028,2.4,8.309-7a.785.785,0,0,0,.178-.771A2.463,2.463,0,0,0,618.742,376.749Z" transform="translate(-1.636 -1.339)" fill="url(#linear-gradient-15)"/>
      <path id="Path_171" data-name="Path 171" d="M610.4,384a.725.725,0,0,0-.869.168l-1.505,2.351h0a.415.415,0,0,1,.418-.043,1.3,1.3,0,0,1,.776.884.4.4,0,0,1-.11.419l2.466-1.261a.713.713,0,0,0,.292-.848A2.459,2.459,0,0,0,610.4,384Z" transform="translate(-1.572 -1.615)" fill="url(#linear-gradient-16)"/>
      <path id="Path_172" data-name="Path 172" d="M593.079,377.522s-.7,2.641-.924,3.37a13.7,13.7,0,0,1-1.267,2.291s.349,3.085.446,3.344a12.951,12.951,0,0,0,3.119,1.913c.551.131,4.875.336,4.875.336l1.615-1.073a73.183,73.183,0,0,0,5.329-9.848l-3.421-1.866-9.741,1.167s-.113.22-.3.59Z" transform="translate(-0.92 -1.313)" fill="url(#linear-gradient-17)"/>
      <path id="Path_173" data-name="Path 173" d="M600.9,383.215c-1.468,1.1-5.933,5.193-5.933,5.193v.345c1.189.126,4.516.284,4.516.284l1.615-1.073a40.774,40.774,0,0,0,2.661-4.427A2.3,2.3,0,0,0,600.9,383.215Z" transform="translate(-1.075 -1.573)" fill="url(#linear-gradient-18)"/>
      <path id="Path_174" data-name="Path 174" d="M608.565,384.575a7.557,7.557,0,0,0-.52-1.037c-.039-.106-.171-.474-.518-.266s-8.413,5.565-8.413,5.565-4.324-.2-4.875-.336a12.951,12.951,0,0,1-3.119-1.913c-.1-.259-.446-3.344-.446-3.344a13.7,13.7,0,0,0,1.267-2.291c.22-.729.924-3.37.924-3.37l-5.071,4.335s-3.963,8.81-2.042,12.051,5.132,3.264,7.84,2.12a125.25,125.25,0,0,0,12.9-7.42C607.73,387.694,608.862,385.976,608.565,384.575Z" transform="translate(-0.705 -1.374)" fill="#2b2b2c"/>
      <path id="Path_175" data-name="Path 175" d="M591.36,386.666a13.022,13.022,0,0,0,3.121,1.913c.55.131,4.875.336,4.875.336s8.064-5.356,8.413-5.565.479.16.518.266c.029.076.256.437.4.737.583-1.393,1.595-3.929,1.447-4.46-.208-.74-4.234.259-5.455,1.6s-5.111,6.986-5.111,6.986l-4.853-.135-3.439-2.114A3.771,3.771,0,0,0,591.36,386.666Z" transform="translate(-0.935 -1.452)" fill="#2f383b"/>
      <path id="Path_176" data-name="Path 176" d="M608.919,385.553a4.773,4.773,0,0,0-.9-1.835c1.413,2.3-.768,4.221-2.3,5.017S593.54,395.008,591.1,396.1s-4.1-3.429-4.1-3.429l-1.679.986c.2.788,3.5,4.03,4.8,4s11.806-5.921,15-7.374S608.957,386.261,608.919,385.553Z" transform="translate(-0.709 -1.607)" fill="url(#linear-gradient-19)"/>
      <path id="Path_177" data-name="Path 177" d="M608.779,385.626c.131,2.476-3.979,4.275-5.813,5.234s-9.427,5.163-12.269,6.216-4.57-3.955-4.57-3.955l-3.094-.417-1.395,3.016a29.092,29.092,0,0,0,3.248,2.009,10.936,10.936,0,0,0,4.056.617,15.988,15.988,0,0,0,5.469-1.55c1.379-.638,7.665-4.083,8.922-4.626a10.764,10.764,0,0,0,4.677-3.763C609.145,386.513,608.779,385.626,608.779,385.626Z" transform="translate(-0.568 -1.679)" fill="#aebfc8"/>
      <path id="Path_178" data-name="Path 178" d="M603.332,392.3a11.226,11.226,0,0,0,4.413-3.363c-2.081,1.981-6.973,4.255-9.491,5.577-2.893,1.523-6.466,3.42-8.28,3.636s-5.844-3.354-5.844-3.354l-.092-.755-1.53-.075-.871,1.884a29.092,29.092,0,0,0,3.248,2.009,10.936,10.936,0,0,0,4.056.617,15.988,15.988,0,0,0,5.469-1.55C595.788,396.284,602.075,392.839,603.332,392.3Z" transform="translate(-0.568 -1.805)" opacity="0.2" style="mix-blend-mode: multiply;isolation: isolate"/>
      <path id="Path_179" data-name="Path 179" d="M603.332,392.3a11.226,11.226,0,0,0,4.413-3.363c-2.081,1.981-6.973,4.255-9.491,5.577-2.893,1.523-6.466,3.42-8.28,3.636s-5.844-3.354-5.844-3.354l-.092-.755-1.53-.075-.871,1.884a29.092,29.092,0,0,0,3.248,2.009,10.936,10.936,0,0,0,4.056.617,15.988,15.988,0,0,0,5.469-1.55C595.788,396.284,602.075,392.839,603.332,392.3Z" transform="translate(-0.568 -1.805)" opacity="0.4" fill="url(#linear-gradient-20)" style="mix-blend-mode: multiply;isolation: isolate"/>
      <path id="Path_180" data-name="Path 180" d="M605.144,376.511s-8.034,1.244-9.178,1.319a9.276,9.276,0,0,1-4.3-1.567c-.821-.621-.223-4.154.422-5.323a64.977,64.977,0,0,1,6.143-7.114c.8-.646,8.134-4.7,9.924-5.123a5.371,5.371,0,0,1,3.717.387c.885.359,4.739,2.573,3.371,6.379S605.144,376.511,605.144,376.511Z" transform="translate(-0.935 -0.649)" fill="#2b2b2c"/>
      <path id="Path_181" data-name="Path 181" d="M600.584,373.482a35.417,35.417,0,0,0,7.536-2.039s.373-2.935-3.232-5.073a15.575,15.575,0,0,0-6.465-2.466c-.075.051-.135.094-.177.127a64.984,64.984,0,0,0-6.143,7.114,5.361,5.361,0,0,0-.4,1.039C593.464,373.388,597.4,373.979,600.584,373.482Z" transform="translate(-0.951 -0.853)" fill="url(#linear-gradient-21)"/>
      <path id="Path_182" data-name="Path 182" d="M615.241,365.471c1.368-3.806-2.486-6.02-3.371-6.379a6.981,6.981,0,0,0-1.6-.5,4.895,4.895,0,0,1,3.129,2.3c1.443,3.084-1.144,5.845-2.561,7.387s-2.215,2.437-3.011,3.332-3.331,3.482-4.949,4.153c-1.563.65-7.923,2.184-11.6-.576a1.513,1.513,0,0,0,.384,1.074,9.276,9.276,0,0,0,4.3,1.567c1.144-.075,9.178-1.319,9.178-1.319S613.875,369.277,615.241,365.471Z" transform="translate(-0.935 -0.651)" fill="url(#linear-gradient-22)"/>
      <path id="Path_183" data-name="Path 183" d="M616.475,371.256s1.414-2.31,2.675-1.346,3.376,1.96,3.733,1.586-.016-.621-.653-1.088-2.162-1.307-2.162-1.307l-1.68-2.5Z" transform="translate(-1.894 -0.956)" fill="#2b2b2c"/>
      <path id="Path_184" data-name="Path 184" d="M618.752,368.546c0,.493-.234.894-.521.894s-.52-.4-.52-.894.234-.892.52-.892S618.752,368.052,618.752,368.546Z" transform="translate(-1.941 -0.996)" fill="#fabc3c"/>
      <path id="Path_185" data-name="Path 185" d="M601.123,382.3s3.872-5.516,4.5-6.328,7.892-7.227,9.293-10.841-1.777-5.514-2.68-6.031c0,0,3.43-1.049,5.736.844s.044,6.888,0,7.02-4.168,9.166-4.168,9.166a12.687,12.687,0,0,1-3.578,3.385c-2.069,1.182-9.406,4.968-9.406,4.968Z" transform="translate(-1.298 -0.659)" fill="#fc4343"/>
      <path id="Path_186" data-name="Path 186" d="M613.8,376.611s1.233-2.7,2.358-5.171a48.535,48.535,0,0,1-7.86,7.994c-1.931,1.47-7.481,5.529-7.481,5.529s7.337-3.785,9.406-4.968A12.687,12.687,0,0,0,613.8,376.611Z" transform="translate(-1.298 -1.14)" fill="#fc4343" opacity="0.1" style="mix-blend-mode: multiply;isolation: isolate"/>
      <path id="Path_187" data-name="Path 187" d="M611.527,370.385c-2.523,2.83-5.5,5.522-5.894,6.029-.626.812-4.5,6.328-4.5,6.328a142.741,142.741,0,0,0,11.533-9.437c.542-.541,1.042-1.071,1.508-1.592Z" transform="translate(-1.31 -1.1)" opacity="0.2" fill="url(#linear-gradient-23)" style="mix-blend-mode: multiply;isolation: isolate"/>
      <path id="Path_188" data-name="Path 188" d="M612.656,373.081a142.741,142.741,0,0,1-11.533,9.437l-.3,2.182s5.55-4.059,7.481-5.529a48.535,48.535,0,0,0,7.86-7.994c.932-2.046,1.789-3.934,1.81-4a14.826,14.826,0,0,0,.845-2.666A28.662,28.662,0,0,1,612.656,373.081Z" transform="translate(-1.298 -0.876)" opacity="0.1" style="mix-blend-mode: multiply;isolation: isolate"/>
      <path id="Path_189" data-name="Path 189" d="M583.885,363.774h0l-.007-.006-2.892-1.61a.293.293,0,0,0-.333.013.97.97,0,0,0-.437.759.307.307,0,0,0,.127.283l2.907,1.621a.3.3,0,0,0,.321-.021.967.967,0,0,0,.438-.758A.307.307,0,0,0,583.885,363.774Z" transform="translate(-0.514 -0.785)" fill="#2b2b2c"/>
      <path id="Path_190" data-name="Path 190" d="M624.361,348.5a.519.519,0,0,1,.058.973l-10.742,7.213a1.686,1.686,0,0,1-1.628.055l-7.876-4.546a.528.528,0,0,1-.014-.986l10.7-6.642a1.894,1.894,0,0,1,1.671-.069Z" transform="translate(-1.412 -0.109)" fill="#ed7a7a"/>
      <path id="Path_191" data-name="Path 191" d="M625.931,355.208l-1.255-6.112h0a.573.573,0,0,1-.307.543l-10.742,7.214a1.693,1.693,0,0,1-1.629.055l-7.876-4.546a.576.576,0,0,1-.343-.538l-1.25,6.421v4.406a.646.646,0,0,0,.385.6l8.817,5.089a1.887,1.887,0,0,0,1.823-.062l12.026-8.076a.638.638,0,0,0,.343-.608Z" transform="translate(-1.363 -0.29)" fill="#fc4343"/>
      <path id="Path_192" data-name="Path 192" d="M611.558,363.975a2.08,2.08,0,0,0,2.009-.068l12.365-8.3-.007,4.235a.638.638,0,0,1-.343.608l-12.026,8.076a1.887,1.887,0,0,1-1.823.062l-8.817-5.089a.646.646,0,0,1-.385-.6v-4.135Z" transform="translate(-1.363 -0.537)" opacity="0.284" style="mix-blend-mode: multiply;isolation: isolate"/>
      <path id="Path_193" data-name="Path 193" d="M590.9,383.2a1.479,1.479,0,0,1-.053-.726,5.3,5.3,0,0,0-.775-2.764c-.423-.6-.232,1.123-.882,1.273h-.012a4.571,4.571,0,0,1-.66,2.506,16.755,16.755,0,0,1-1.206,1.991c.367-.168.685-.322.923-.438.526-.256,1.75-.842,2.42-1.163A.565.565,0,0,0,590.9,383.2Z" transform="translate(-0.784 -1.45)" fill="#673a1a"/>
      <path id="Path_194" data-name="Path 194" d="M590.9,383.326a1.581,1.581,0,0,1-.073-.419,1.792,1.792,0,0,1-.594.635,14.017,14.017,0,0,1-2.1.78c-.264.443-.575.919-.825,1.285.367-.168.685-.322.923-.438.526-.256,1.75-.842,2.42-1.163A.565.565,0,0,0,590.9,383.326Z" transform="translate(-0.784 -1.576)" fill="#000508"/>
      <path id="Path_195" data-name="Path 195" d="M602.141,361.094s-2.473-.658-2.948-2.614l-.716,1.982s-6.473,2.38-8.983,5.1c-.317.345-.6.659-.839.949l2.3,1.156a8,8,0,0,1,1.8,2.031c1.782-.454,5.014-1.3,5.879-1.679,1.217-.528,4.439-5.972,4.439-5.972Z" transform="translate(-0.835 -0.647)" fill="#1c90ed"/>
      <path id="Path_196" data-name="Path 196" d="M595.636,348.505a5.3,5.3,0,0,0-4.183,1.535c-1.529,1.8-4.137,3.882-4.936,4.98-1.151,1.583-3.264,7.559-3.264,7.559a3.981,3.981,0,0,1,.963,1.489,19.652,19.652,0,0,0,1.7-2.039c.261-.494,3.647-5.431,3.647-5.431s5.191-3.5,6.388-4.277S595.636,348.505,595.636,348.505Z" transform="translate(-0.63 -0.267)" fill="#fc4343"/>
      <path id="Path_197" data-name="Path 197" d="M587.183,360.4c1.076-1.6,2.528-3.717,2.528-3.717s5.134-3.457,6.367-4.263l.471-1.354c-.009-.115-.025-.229-.044-.347a6.992,6.992,0,0,0-2.143.742c-.616.462-2.241.9-2.946,2.063a5.969,5.969,0,0,1-2.469,2.184c-.3.024-1.208-.084-.752.48s.723,1.07.31,1.5A14.208,14.208,0,0,0,587.183,360.4Z" transform="translate(-0.779 -0.352)" fill="#e5251f"/>
      <path id="Path_198" data-name="Path 198" d="M600.376,384.9s-.043.686-.337.7-.719-.708-1.191-.7-.782-.044-.919,1.046a6.474,6.474,0,0,1-1.371,2.916,7.163,7.163,0,0,0-1.581,2.371c-.142.77-.248,1.416.748,1.52a3.772,3.772,0,0,0,2.921-.47,16.639,16.639,0,0,0,2.563-3.416,2.557,2.557,0,0,0,.253-2C601.2,386.152,600.614,385.724,600.376,384.9Z" transform="translate(-1.072 -1.652)" fill="#673a1a"/>
      <path id="Path_199" data-name="Path 199" d="M601.462,386.931a2.274,2.274,0,0,0-.122-.269,4.714,4.714,0,0,1-.04,1.172c-.107.4-.651.847-.823,1.418s-1.19,2.85-2.537,3.118a4.283,4.283,0,0,1-3.05-.281c.019.39.211.669.837.734a3.772,3.772,0,0,0,2.921-.47,16.639,16.639,0,0,0,2.563-3.416A2.557,2.557,0,0,0,601.462,386.931Z" transform="translate(-1.073 -1.719)" fill="#000508"/>
      <path id="Path_200" data-name="Path 200" d="M597.269,385.278a1.1,1.1,0,0,0,1.2,1.244,5.056,5.056,0,0,0,2.932-1.032s-.015-6.456-.222-7.672-1.1-4.87-1.1-4.87,5.765-3.721,6.661-4.48a8.642,8.642,0,0,0,2.436-3.858c.159-1.125.114-4.318-.69-5.467a6.112,6.112,0,0,1-6.088,1.976l-.78,3.055s-6.133,3.9-6.2,6.891S597.535,382.753,597.269,385.278Z" transform="translate(-1.092 -0.672)" fill="#1781d6"/>
      <path id="Path_201" data-name="Path 201" d="M598,345.86s4.323-.269,6.945,2.818,2.357,5.527,2.627,6.763a15.206,15.206,0,0,0,1.033,2.56,12.838,12.838,0,0,1,.636,3.26,21.479,21.479,0,0,1-6.031.951,6.756,6.756,0,0,1-4.485-2.23l.127-1.982s.064-1.48-.413-1.788a6.645,6.645,0,0,1-3.22-4.87A6.076,6.076,0,0,1,598,345.86Z" transform="translate(-1.085 -0.167)" fill="#fc4343"/>
      <path id="Path_202" data-name="Path 202" d="M598.949,346.886s2.278.848,1.968,1.852-2.624,3.86-1.968,5.984c0,0-2.7-2.085-2.741-4.942S596.943,346.152,598.949,346.886Z" transform="translate(-1.123 -0.196)" fill="#2b2b2c"/>
      <path id="Path_203" data-name="Path 203" d="M605.023,358.321c-.326-1.209-2.643-.719-3.568-.522s-.882.009-1.72-.907a2.919,2.919,0,0,0-1.771-.692c.265.2.475.336.581.4.477.309.413,1.788.413,1.788l-.127,1.982a6.756,6.756,0,0,0,4.485,2.23,12.979,12.979,0,0,0,1.742-.068A8.483,8.483,0,0,0,605.023,358.321Z" transform="translate(-1.189 -0.56)" opacity="0.284" style="mix-blend-mode: multiply;isolation: isolate"/>
      <path id="Path_204" data-name="Path 204" d="M596.7,350.545l.927.658s2.013.835,2.949-2.235c.573-1.876-1.618-1.059-1.844-2.655S596.7,350.545,596.7,350.545Z" transform="translate(-1.141 -0.173)" fill="#d88f69"/>
      <g id="Group_109" data-name="Group 109" transform="translate(590.193 341.477)">
        <path id="Path_205" data-name="Path 205" d="M592.864,347.494s.052.2.147.514c.356,1.171,1.334,3.938,2.613,4.009,1.622.089,2.694-1.425,3.443-2.816s-1.672-3.615-1.672-3.615Z" transform="translate(-591.189 -341.633)" fill="#f2a983"/>
        <path id="Path_206" data-name="Path 206" d="M594.905,350.458c-.37.019-.309-.4-.289-.683a4.174,4.174,0,0,0-.411-1.6,6.823,6.823,0,0,0-.672-.895l-.669.282s.052.2.147.514c.356,1.171,1.334,3.938,2.613,4.009.047,0,.093,0,.139,0a2.545,2.545,0,0,1-.558-1.075S595.274,350.437,594.905,350.458Z" transform="translate(-591.189 -341.698)" fill="#d88f69"/>
        <path id="Path_207" data-name="Path 207" d="M598.145,348.444c.019.336-.014.781.415.8.555.024,1.3-1.112,1.389-1.406a9.4,9.4,0,0,0,.173-3.219,3.718,3.718,0,0,0-3.937-3.141,3.951,3.951,0,0,0-4.116,4.085,14.637,14.637,0,0,0,.073,1.489,7.525,7.525,0,0,0,4.863.439A1.036,1.036,0,0,1,598.145,348.444Z" transform="translate(-591.158 -341.477)" fill="url(#radial-gradient)"/>
        <path id="Path_208" data-name="Path 208" d="M592.105,347.272s-1.875.888-.445,1.539a5.752,5.752,0,0,0,5.309-1.1h0A7.523,7.523,0,0,1,592.105,347.272Z" transform="translate(-591.122 -341.697)" fill="#2b2b2c"/>
        <path id="Path_209" data-name="Path 209" d="M598.738,349.481c-.429-.018-.4-.464-.415-.8a1.034,1.034,0,0,0-1.14-.953h0a3.272,3.272,0,0,1-.419.34c.15-.027.3-.056.45-.089h.013a.757.757,0,0,1,.846.718l0,.107c.011.316.035.9.647.929h.029c.52,0,1.066-.631,1.376-1.118a5.817,5.817,0,0,1,.044-.758,1.562,1.562,0,0,1-.046.216C600.04,348.369,599.293,349.5,598.738,349.481Z" transform="translate(-591.337 -341.715)" fill="#2e373a"/>
      </g>
      <path id="Path_210" data-name="Path 210" d="M597.019,347.793h0a8.1,8.1,0,0,1-1.766.2,6.437,6.437,0,0,1-2.843-.614c-.008-.076-.011-.152-.015-.228a.868.868,0,0,0,.242.071,6.263,6.263,0,0,0,2.616.532,7.829,7.829,0,0,0,1.331-.117S596.932,347.578,597.019,347.793Z" transform="translate(-0.978 -0.216)" fill="#2e373a"/>
      <path id="Path_211" data-name="Path 211" d="M603.381,350.477a2.449,2.449,0,0,0-1.389,3.229,13.78,13.78,0,0,1,.618,4.838,16.015,16.015,0,0,1-.461,3.346l-5.851,7.538a6.324,6.324,0,0,1,.974.773,10,10,0,0,0,1.108.839s6.506-5.895,7.161-7.786a41.162,41.162,0,0,0,1.313-9.535C606.7,352.214,605.8,349.62,603.381,350.477Z" transform="translate(-1.126 -0.336)" fill="#fc4343"/>
      <path id="Path_212" data-name="Path 212" d="M590.552,377.646c-.059-.5-.166-3.5-.4-5.243a4.042,4.042,0,0,1-1.064-.232,2.344,2.344,0,0,1-2.266.877l-.615,1.275,1.105.783s1.958,2.653,1.863,4.948a12.583,12.583,0,0,1-.17,1.876,4.591,4.591,0,0,0,2.009-.389S590.662,378.572,590.552,377.646Z" transform="translate(-0.742 -1.168)" fill="#1c90ed"/>
      <path id="Path_213" data-name="Path 213" d="M580.7,363.707a4.445,4.445,0,0,1,.642-1.512c.391-.437,1.381-.089,1.381-.089h.737l1.078,1.3-2.992,1.485A1.5,1.5,0,0,1,580.7,363.707Z" transform="translate(-0.533 -0.78)" fill="#e4ac86"/>
      <path id="Path_214" data-name="Path 214" d="M582.841,364.249l-1.3.645a1.5,1.5,0,0,1-.846-1.182,4.445,4.445,0,0,1,.642-1.512.587.587,0,0,1,.113-.094.365.365,0,0,1,.091.169,2.753,2.753,0,0,0,.778,1.389C582.468,363.821,582.657,364.035,582.841,364.249Z" transform="translate(-0.533 -0.785)" fill="#d88f69"/>
      <g id="Group_120" data-name="Group 120" transform="translate(566.695 370.195)">
        <g id="Group_111" data-name="Group 111" transform="translate(0 21.336)">
          <path id="Path_215" data-name="Path 215" d="M576.99,398.085a4.367,4.367,0,0,1-.039,3.785c-.9,2.318-2.868,4.094-4.442,4.038a1.559,1.559,0,0,0,1.019.48c1.548.139,3.526-1.615,4.42-3.918C578.8,400.283,578.36,398.391,576.99,398.085Z" transform="translate(-566.916 -393.684)" fill="#2e373a"/>
          <path id="Path_216" data-name="Path 216" d="M577.3,398.208a4.356,4.356,0,0,1-.04,3.783c-.9,2.317-2.867,4.093-4.441,4.037a1.566,1.566,0,0,0,1.019.483c1.548.136,3.526-1.618,4.419-3.921C579.106,400.405,578.672,398.511,577.3,398.208Z" transform="translate(-566.928 -393.689)" fill="url(#linear-gradient-24)"/>
          <path id="Path_217" data-name="Path 217" d="M576.771,401.688c-.183-.059-.406-.46-.619-.728-.262-.516-.654-1.255-.781-1.513a1.1,1.1,0,0,1,.751-1.341,3.264,3.264,0,0,0-1.031.4,5.954,5.954,0,0,0-1.625,1.444c.784-.945,1.167.088,1.1.709a11.249,11.249,0,0,1-.505,1.453c-.37.808-.9,1.989-1.084,2.389s-.884,1.1-1.055.312a2.374,2.374,0,0,0,.368.917,1.579,1.579,0,0,0,1.192.685c-.76-.1-.012-1.542.459-2.034a7.279,7.279,0,0,1,1.124-.725c.631-.293,1.553-.734,1.864-.874s.881.082.3,1.031a7.892,7.892,0,0,0,.663-1.318,5.921,5.921,0,0,0,.433-2.129A1.409,1.409,0,0,1,576.771,401.688Z" transform="translate(-566.894 -393.685)" fill="#d0d2d4"/>
          <path id="Path_218" data-name="Path 218" d="M572.976,404.558c.186-.4.714-1.581,1.084-2.389a11.249,11.249,0,0,0,.505-1.453c.055-.491-.172-1.236-.657-1.065a1.5,1.5,0,0,1,.142.814,11.365,11.365,0,0,1-.5,1.454c-.369.808-.9,1.988-1.085,2.388a1.507,1.507,0,0,1-.53.6C572.118,405.629,572.789,404.96,572.976,404.558Z" transform="translate(-566.894 -393.743)" fill="url(#linear-gradient-25)"/>
          <path id="Path_219" data-name="Path 219" d="M576.953,401.768a1.409,1.409,0,0,0,1.555-1.324l-.515-.25a1.436,1.436,0,0,1-1.3,1.342A.661.661,0,0,0,576.953,401.768Z" transform="translate(-567.075 -393.764)" fill="#eaecee"/>
          <path id="Path_220" data-name="Path 220" d="M573.892,399.5a5.879,5.879,0,0,1,1-.852,1.021,1.021,0,0,1,.76-.8,3.316,3.316,0,0,0-1.033.4,5.956,5.956,0,0,0-1.625,1.445C573.408,399.191,573.711,399.243,573.892,399.5Z" transform="translate(-566.935 -393.675)" fill="#0080ff"/>
          <path id="Path_221" data-name="Path 221" d="M572.268,405.984a2.366,2.366,0,0,1-.361-.876c-.218.126-.436.1-.522-.291a2.34,2.34,0,0,0,.37.917,1.571,1.571,0,0,0,.876.628A1.742,1.742,0,0,1,572.268,405.984Z" transform="translate(-566.873 -393.94)" fill="#0080ff"/>
          <path id="Path_222" data-name="Path 222" d="M578.549,401h0v0Z" transform="translate(-567.146 -393.795)" fill="#0080ff"/>
          <path id="Path_223" data-name="Path 223" d="M577.468,403.988h0l.008-.014Z" transform="translate(-567.105 -393.908)" fill="#0080ff"/>
          <path id="Path_224" data-name="Path 224" d="M577.46,403.925l.1-.192c.318-.7-.124-.888-.415-.782a1.172,1.172,0,0,1-.239.791l.54.207A.081.081,0,0,0,577.46,403.925Z" transform="translate(-567.083 -393.868)" fill="#9d9fa1"/>
          <path id="Path_225" data-name="Path 225" d="M575.044,403.875l.008,0c.629-.29,1.633-.771,1.962-.92s.881.082.3,1.031a8.04,8.04,0,0,0,.442-.805c-.01-.278-.1-.54-.417-.5a17.01,17.01,0,0,0-2.238.913,6.14,6.14,0,0,1-.885.223.575.575,0,0,0,.355.157A.925.925,0,0,0,575.044,403.875Z" transform="translate(-566.981 -393.859)" fill="url(#linear-gradient-26)"/>
          <path id="Path_226" data-name="Path 226" d="M576.242,400.978l-.009-.007a.581.581,0,0,0-.384-.192,1.2,1.2,0,0,0,.065.163c.486.991.7,1.287,1.589,1.013a1.816,1.816,0,0,0,.928-.858,4.814,4.814,0,0,0,.043-.643,1.409,1.409,0,0,1-1.555,1.324C576.721,401.713,576.472,401.239,576.242,400.978Z" transform="translate(-567.043 -393.774)" fill="url(#linear-gradient-27)"/>
          <path id="Path_227" data-name="Path 227" d="M576.323,401.047l0-.006c-.26-.516-.688-1.323-.821-1.594a1.1,1.1,0,0,1,.751-1.341,2.919,2.919,0,0,0-.632.2,1.4,1.4,0,0,0-.348.988c.1.746.575,1.167.834,1.946a6.574,6.574,0,0,1,.228.9,2.074,2.074,0,0,0,.092-.59A1.146,1.146,0,0,0,576.323,401.047Z" transform="translate(-567.021 -393.685)" fill="url(#linear-gradient-28)"/>
          <path id="Path_228" data-name="Path 228" d="M574.07,402.3l0,.017a2.152,2.152,0,0,0-.118.662c.039-.071.079-.148.118-.236.711-1.532.919-2.075.652-2.93a.524.524,0,0,0-.705-.363q-.252.258-.485.547c.784-.945,1.167.088,1.1.709A15.044,15.044,0,0,1,574.07,402.3Z" transform="translate(-566.955 -393.735)" fill="url(#linear-gradient-29)"/>
          <path id="Path_229" data-name="Path 229" d="M574.121,402.088l0,.012c-.369.8-.946,2.092-1.141,2.513s-.884,1.1-1.055.312a2.654,2.654,0,0,0,.191.606.891.891,0,0,0,.764-.487c.552-.822.837-1.808,1.4-2.86.252-.467.48-.845.657-1.12a2.356,2.356,0,0,0-.448.434A2.949,2.949,0,0,0,574.121,402.088Z" transform="translate(-566.894 -393.798)" fill="url(#linear-gradient-30)"/>
          <path id="Path_230" data-name="Path 230" d="M575.213,403.782a.039.039,0,0,0,.013-.009,2.357,2.357,0,0,0,.505-.467,1.3,1.3,0,0,0-.185.071,3.688,3.688,0,0,0-2.242,1.917,1.657,1.657,0,0,0-.223,1.219,1.766,1.766,0,0,0,.442.1c-.76-.1-.012-1.542.459-2.034A9.624,9.624,0,0,1,575.213,403.782Z" transform="translate(-566.937 -393.883)" fill="url(#linear-gradient-31)"/>
          <g id="Group_110" data-name="Group 110" transform="translate(6.992 7.001)">
            <path id="Path_231" data-name="Path 231" d="M576.375,401.648c0-.769-.54-1.079-1.205-.695a2.66,2.66,0,0,0-1.205,2.087c0,.769.54,1.08,1.205.7A2.663,2.663,0,0,0,576.375,401.648Z" transform="translate(-573.964 -400.788)" fill="url(#linear-gradient-32)"/>
            <path id="Path_232" data-name="Path 232" d="M576.267,401.718c0-.7-.49-.979-1.094-.631a2.418,2.418,0,0,0-1.094,1.894c0,.7.49.98,1.094.631A2.415,2.415,0,0,0,576.267,401.718Z" transform="translate(-573.968 -400.794)" fill="#d0d2d4"/>
            <path id="Path_233" data-name="Path 233" d="M575.792,402.03c0-.382-.267-.537-.6-.345a1.319,1.319,0,0,0-.6,1.035c0,.383.267.538.6.348A1.326,1.326,0,0,0,575.792,402.03Z" transform="translate(-573.988 -400.819)" fill="url(#linear-gradient-33)"/>
          </g>
          <path id="Path_234" data-name="Path 234" d="M575.649,395.892a12.5,12.5,0,0,0-5.658,9.8c0,3.607,2.532,5.07,5.658,3.266a12.5,12.5,0,0,0,5.656-9.8C581.306,395.551,578.774,394.089,575.649,395.892Zm0,11.278c-2.27,1.31-4.11.248-4.11-2.372a9.086,9.086,0,0,1,4.11-7.118c2.269-1.309,4.109-.247,4.109,2.373A9.086,9.086,0,0,1,575.649,407.17Z" transform="translate(-566.82 -393.571)" fill="#2e373a"/>
          <path id="Path_235" data-name="Path 235" d="M575.71,397.759a9.086,9.086,0,0,0-4.11,7.118c0,2.62,1.84,3.682,4.11,2.372a9.086,9.086,0,0,0,4.109-7.118C579.82,397.512,577.98,396.45,575.71,397.759Zm0,8.867c-1.972,1.139-3.571.216-3.571-2.06a7.892,7.892,0,0,1,3.571-6.184c1.972-1.138,3.569-.215,3.569,2.061A7.886,7.886,0,0,1,575.71,406.626Z" transform="translate(-566.882 -393.65)" fill="#d0d2d4"/>
          <path id="Path_236" data-name="Path 236" d="M575.419,398.2a7.894,7.894,0,0,0-3.57,6.184c0,2.278,1.6,3.2,3.57,2.061a7.889,7.889,0,0,0,3.571-6.183C578.99,397.983,577.392,397.061,575.419,398.2Zm-1.617,8.294c-1.549-.139-2.079-2.119-1.185-4.422s2.872-4.058,4.42-3.92,2.079,2.117,1.184,4.421S575.35,406.628,573.8,406.493Z" transform="translate(-566.891 -393.67)" fill="#d0d2d4"/>
          <path id="Path_237" data-name="Path 237" d="M575.649,395.892a12.5,12.5,0,0,0-5.658,9.8c0,3.607,2.532,5.07,5.658,3.266a12.5,12.5,0,0,0,5.656-9.8C581.306,395.551,578.774,394.089,575.649,395.892Zm0,12.517c-2.863,1.652-5.182.312-5.183-2.993a11.456,11.456,0,0,1,5.182-8.976c2.862-1.651,5.182-.311,5.182,2.993A11.458,11.458,0,0,1,575.649,408.409Z" transform="translate(-566.82 -393.571)" fill="#555e61"/>
          <path id="Path_238" data-name="Path 238" d="M569.866,405.631a12.5,12.5,0,0,1,5.658-9.8c1.665-.961,3.162-.994,4.2-.27h0a7.076,7.076,0,0,0-3.681-1.978,5.486,5.486,0,0,0-3.689.837,12.5,12.5,0,0,0-5.655,9.8,4.3,4.3,0,0,0,1.345,3.452,7.907,7.907,0,0,0,4.31,2,2.1,2.1,0,0,0,.613,0C571.124,409.65,569.866,408.174,569.866,405.631Z" transform="translate(-566.695 -393.51)" fill="#2b2b2c"/>
          <path id="Path_239" data-name="Path 239" d="M577.093,398.045c-1.592-.142-3.628,1.662-4.547,4.032s-.372,4.4,1.219,4.546,3.628-1.662,4.547-4.031S578.686,398.186,577.093,398.045Zm-3.281,8.46c-1.549-.139-2.079-2.119-1.185-4.422s2.872-4.058,4.42-3.92,2.079,2.117,1.184,4.421S575.359,406.641,573.811,406.505Z" transform="translate(-566.901 -393.682)" fill="url(#linear-gradient-34)"/>
          <path id="Path_240" data-name="Path 240" d="M576.929,397.713c1.221-.05,2.069.889,2.069,2.545a7.889,7.889,0,0,1-3.571,6.183c-1.537.886-2.846.521-3.349-.762.406,1.656,1.885,2.2,3.65,1.185a8.315,8.315,0,0,0,3.761-6.514C579.49,398.438,578.418,397.432,576.929,397.713Z" transform="translate(-566.9 -393.668)" fill="url(#linear-gradient-35)"/>
        </g>
        <path id="Path_241" data-name="Path 241" d="M578.411,401.763c0-1.366-.959-1.92-2.141-1.237a4.736,4.736,0,0,0-2.143,3.71c0,1.366.959,1.92,2.143,1.236A4.733,4.733,0,0,0,578.411,401.763Z" transform="translate(-566.978 -372.43)" fill="url(#linear-gradient-36)"/>
        <path id="Path_242" data-name="Path 242" d="M578.22,401.888c0-1.239-.871-1.741-1.943-1.122a4.3,4.3,0,0,0-1.944,3.365c0,1.24.871,1.744,1.944,1.123A4.3,4.3,0,0,0,578.22,401.888Z" transform="translate(-566.986 -372.44)" fill="#d0d2d4"/>
        <path id="Path_243" data-name="Path 243" d="M577.626,402.277c0-.846-.593-1.189-1.325-.765a2.93,2.93,0,0,0-1.326,2.3c0,.846.594,1.189,1.326.766A2.93,2.93,0,0,0,577.626,402.277Z" transform="translate(-567.01 -372.472)" fill="url(#linear-gradient-37)"/>
        <path id="Path_244" data-name="Path 244" d="M577.509,402.354c0-.768-.539-1.078-1.2-.695a2.661,2.661,0,0,0-1.2,2.083c0,.767.54,1.077,1.2.695A2.656,2.656,0,0,0,577.509,402.354Z" transform="translate(-567.015 -372.478)" fill="#d0d2d4"/>
        <path id="Path_245" data-name="Path 245" d="M589.306,373.109l-1.641.832s2.456,2.642,2.663,2.977-8.753-4.3-8.753-4.3l1.335-.474,1.841-.808Z" transform="translate(-567.261 -371.33)" fill="url(#linear-gradient-38)"/>
        <path id="Path_246" data-name="Path 246" d="M589.7,376.7a34.494,34.494,0,0,0-3.656-2.114s-3.311-.937-3.634-2.447l-.807-.505a1.882,1.882,0,0,0-2.446.355c-1.166,1.234-6.707,9.49-6.774,9.49s-1,4.1,1.5,6.526c-.913.669-5.114,3.959-5.479,7.992a3.087,3.087,0,0,0,2.827,1.324,5.627,5.627,0,0,0,3.5-1.277c.626-.409,2.456-1.227,2.673-.386s1.79,1.18,2.82.747a13.371,13.371,0,0,0,2.961-2.793,3.161,3.161,0,0,1,.365.518s1.661-.075,4.038-2.752l-.829-4.853,2.67-7.269S590.216,377.193,589.7,376.7Z" transform="translate(-566.76 -371.33)" fill="#fc4343"/>
        <g id="Group_112" data-name="Group 112" transform="translate(4.692 19.881)">
          <path id="Path_247" data-name="Path 247" d="M581.991,392.01a.051.051,0,0,1-.013-.013h-.153Z" transform="translate(-571.963 -391.998)" opacity="0.2" style="mix-blend-mode: multiply;isolation: isolate"/>
          <path id="Path_248" data-name="Path 248" d="M580.43,392.073c-4.513.617-8.131,5.016-8.857,6.025a5.62,5.62,0,0,0,3.281-1.265c.626-.409,2.456-1.227,2.673-.386s1.79,1.18,2.82.747a13.371,13.371,0,0,0,2.961-2.793A11.163,11.163,0,0,0,580.43,392.073Z" transform="translate(-571.573 -392.001)" opacity="0.2" style="mix-blend-mode: multiply;isolation: isolate"/>
        </g>
        <g id="Group_113" data-name="Group 113" transform="translate(9.381 23.551)">
          <path id="Path_249" data-name="Path 249" d="M578.8,402.915l-.042-.171c.751-.185,1.236-.482,1.233-.751,0-.14-.154-.5-1.541-.812-1.41-.316-2.082-2.036-1.993-5.107,0-.1.006-.187,0-.206l.062-.008.1-.047c.013.029.013.054.008.266-.108,3.707.95,4.727,1.856,4.931,1.109.25,1.674.58,1.679.98C580.169,402.361,579.672,402.7,578.8,402.915Z" transform="translate(-576.447 -395.813)"/>
        </g>
        <path id="Path_250" data-name="Path 250" d="M585.273,391.816a5.184,5.184,0,0,0,2.189-1.858l-.483-2.831a20.851,20.851,0,0,1-6.759,2.151,15.718,15.718,0,0,1-6.1-.648l.45.607a32.318,32.318,0,0,1,5.7,2.5C581.825,391.8,584.312,392.109,585.273,391.816Z" transform="translate(-566.978 -371.931)" opacity="0.2" style="mix-blend-mode: multiply;isolation: isolate"/>
        <path id="Path_251" data-name="Path 251" d="M578.135,383.339c-.8,0-1.466-.051-1.474-.052l-.038,0-.019-.034a3.354,3.354,0,0,1-.366-2.688l0-.006,0-.006c.378-.667,2.626-4.274,2.649-4.31l.137.052s-.035.493,1.424,1.381a29.907,29.907,0,0,0,3.2,1.656l.1.041-3.429,3.775-.023,0a9.746,9.746,0,0,1-2.161.188Z" transform="translate(-567.053 -371.517)" fill="#414e52"/>
        <path id="Path_252" data-name="Path 252" d="M576.671,383.215a15.28,15.28,0,0,0,3.612-.135l3.342-3.68a29.62,29.62,0,0,1-3.208-1.659c-1.548-.943-1.457-1.459-1.457-1.459s-2.266,3.635-2.647,4.309A3.309,3.309,0,0,0,576.671,383.215Z" transform="translate(-567.056 -371.519)" fill="url(#linear-gradient-39)"/>
        <path id="Path_253" data-name="Path 253" d="M585.516,391.928c-.961.293-3.449-.016-5-.08.059.034.116.067.174.1,2.669,1.592,3.32,2.894,3.32,2.894s1.661-.075,4.038-2.752l-.346-2.022A5.184,5.184,0,0,1,585.516,391.928Z" transform="translate(-567.221 -372.043)" opacity="0.2" fill="url(#linear-gradient-40)" style="mix-blend-mode: multiply;isolation: isolate"/>
        <path id="Path_254" data-name="Path 254" d="M590.133,379.452a4.463,4.463,0,0,0-1.588,1.819c-.853,1.661-2.755,6.421-2.755,6.421s-.244,3.963,2.372,4.1c.03-.034.06-.065.09-.1l-.829-4.853,2.67-7.269S590.109,379.524,590.133,379.452Z" transform="translate(-567.421 -371.639)" fill="url(#linear-gradient-41)"/>
        <path id="Path_255" data-name="Path 255" d="M587.423,387.127l-1.633.857s-.244,3.963,2.372,4.1c.03-.034.06-.065.09-.1Z" transform="translate(-567.421 -371.931)" fill="url(#linear-gradient-42)"/>
        <path id="Path_256" data-name="Path 256" d="M582.807,379.8a.757.757,0,1,1-.749-.864A.812.812,0,0,1,582.807,379.8Z" transform="translate(-567.251 -371.62)" fill="url(#linear-gradient-43)"/>
        <path id="Path_257" data-name="Path 257" d="M582.562,379.81a.5.5,0,1,1-.495-.57A.536.536,0,0,1,582.562,379.81Z" transform="translate(-567.261 -371.631)" fill="#fff"/>
        <path id="Path_258" data-name="Path 258" d="M579.859,378a.756.756,0,1,1-.747-.864A.812.812,0,0,1,579.859,378Z" transform="translate(-567.139 -371.551)" fill="url(#linear-gradient-44)"/>
        <path id="Path_259" data-name="Path 259" d="M579.614,378.015a.5.5,0,1,1-.493-.569A.534.534,0,0,1,579.614,378.015Z" transform="translate(-567.149 -371.563)" fill="#fff"/>
        <path id="Path_260" data-name="Path 260" d="M580.549,380.972a1.863,1.863,0,1,1-1.845-2.128A2,2,0,0,1,580.549,380.972Z" transform="translate(-567.082 -371.616)" fill="url(#linear-gradient-45)"/>
        <path id="Path_261" data-name="Path 261" d="M579.946,381a1.229,1.229,0,1,1-1.217-1.4A1.319,1.319,0,0,1,579.946,381Z" transform="translate(-567.107 -371.645)" fill="#fff"/>
        <path id="Path_262" data-name="Path 262" d="M576.671,383.215a15.28,15.28,0,0,0,3.612-.135l3.342-3.68a29.62,29.62,0,0,1-3.208-1.659c-1.548-.943-1.457-1.459-1.457-1.459s-2.266,3.635-2.647,4.309A3.309,3.309,0,0,0,576.671,383.215Z" transform="translate(-567.056 -371.519)" opacity="0.7" fill="url(#linear-gradient-46)" style="mix-blend-mode: screen;isolation: isolate"/>
        <path id="Path_263" data-name="Path 263" d="M578.976,376.282s-1.61,2.583-2.344,3.8a33.276,33.276,0,0,1,5.646.824l1.364-1.5a29.62,29.62,0,0,1-3.208-1.659C578.886,376.8,578.976,376.282,578.976,376.282Z" transform="translate(-567.073 -371.519)" opacity="0.7" fill="url(#linear-gradient-47)" style="mix-blend-mode: screen;isolation: isolate"/>
        <path id="Path_264" data-name="Path 264" d="M583.914,373.616a2.647,2.647,0,0,1-1.356-1.477l-.807-.505a1.882,1.882,0,0,0-2.446.355c-1.166,1.234-6.707,9.49-6.774,9.49s-1.009,4.128,1.525,6.55c0,0,1.5-3.387,2.468-5A99.556,99.556,0,0,1,583.914,373.616Z" transform="translate(-566.908 -371.33)" opacity="0.284" fill="url(#linear-gradient-48)" style="mix-blend-mode: multiply;isolation: isolate"/>
        <g id="Group_114" data-name="Group 114" transform="translate(5.396 9.228)">
          <path id="Path_265" data-name="Path 265" d="M573.025,383.913a15.814,15.814,0,0,1,.16-2.99c-.393.569-.642.921-.655.921a7.753,7.753,0,0,0-.1,3.326Z" transform="translate(-572.304 -380.923)" fill="#fabc3c"/>
          <path id="Path_266" data-name="Path 266" d="M580.795,388.167l-.359,1.1a16.342,16.342,0,0,0,5.15-1.3s.2-.5.495-1.222A23.344,23.344,0,0,1,580.795,388.167Z" transform="translate(-572.613 -381.145)" fill="#fabc3c"/>
        </g>
        <path id="Path_267" data-name="Path 267" d="M577.778,403.548l-1.273-.672a.179.179,0,0,0-.184.018.579.579,0,0,0-.261.452.184.184,0,0,0,.078.17l1.271.671a.181.181,0,0,0,.184-.018.571.571,0,0,0,.261-.451A.179.179,0,0,0,577.778,403.548Z" transform="translate(-567.051 -372.53)" fill="url(#linear-gradient-49)"/>
        <g id="Group_119" data-name="Group 119" transform="translate(9.787 22.4)">
          <path id="Path_268" data-name="Path 268" d="M578.08,404.869c-.035.1-.335.082-.669-.038s-.574-.3-.539-.4l.387-1.267v-.33l2.241-6.02v-.47l.59-1.618,1.711.623-.564,1.587-.34.4-2.2,5.948-.206.383Z" transform="translate(-576.869 -394.621)" fill="url(#linear-gradient-50)"/>
          <path id="Path_269" data-name="Path 269" d="M581.959,395.332c-.051.142-.48.117-.96-.053s-.826-.427-.775-.57.482-.116.96.056S582.01,395.19,581.959,395.332Z" transform="translate(-576.997 -394.617)" fill="#dee5e9"/>
          <g id="Group_115" data-name="Group 115" transform="translate(2.992 0.645)" opacity="0.2" style="mix-blend-mode: multiply;isolation: isolate">
            <path id="Path_270" data-name="Path 270" d="M581.756,395.843l-.041.114a.685.685,0,0,1-.18.022.578.578,0,0,1-.07,0,2.633,2.633,0,0,1-.709-.16,2.755,2.755,0,0,1-.649-.326,1.08,1.08,0,0,1-.126-.108l.034-.1a.7.7,0,0,0,.145.131,2.883,2.883,0,0,0,1.309.47A.449.449,0,0,0,581.756,395.843Z" transform="translate(-579.98 -395.287)"/>
          </g>
          <g id="Group_116" data-name="Group 116" transform="translate(2.795 1.187)" opacity="0.2" style="mix-blend-mode: multiply;isolation: isolate">
            <path id="Path_271" data-name="Path 271" d="M581.541,396.44l-.038.1v0a.7.7,0,0,1-.161.015c-.021,0-.044,0-.069,0a2.578,2.578,0,0,1-.709-.159,2.675,2.675,0,0,1-.648-.328.854.854,0,0,1-.141-.125l.035-.1a.646.646,0,0,0,.16.149,2.489,2.489,0,0,0,.625.316,2.521,2.521,0,0,0,.684.154A.526.526,0,0,0,581.541,396.44Z" transform="translate(-579.775 -395.851)"/>
          </g>
          <g id="Group_117" data-name="Group 117" transform="translate(0.595 7.579)" opacity="0.2" style="mix-blend-mode: multiply;isolation: isolate">
            <path id="Path_272" data-name="Path 272" d="M578.937,403l-.034.089h-.087a2.539,2.539,0,0,1-.665-.151,2.46,2.46,0,0,1-.607-.306l-.057-.044.034-.089c.02.019.046.04.076.064a2.4,2.4,0,0,0,.585.293,2.342,2.342,0,0,0,.638.144A1.153,1.153,0,0,0,578.937,403Z" transform="translate(-577.488 -402.495)"/>
          </g>
          <g id="Group_118" data-name="Group 118" transform="translate(0.768 7.118)" opacity="0.2" style="mix-blend-mode: multiply;isolation: isolate">
            <path id="Path_273" data-name="Path 273" d="M579.119,402.508l-.034.089h-.1a2.372,2.372,0,0,1-.661-.151,2.419,2.419,0,0,1-.608-.3.5.5,0,0,1-.047-.038l.032-.088a.689.689,0,0,0,.066.054,2.473,2.473,0,0,0,.586.294,2.54,2.54,0,0,0,.638.145A1.094,1.094,0,0,0,579.119,402.508Z" transform="translate(-577.668 -402.016)"/>
          </g>
          <path id="Path_274" data-name="Path 274" d="M579.6,396.9a7.718,7.718,0,0,0,1.29.472l.113.036.323-.383h-.008a5.53,5.53,0,0,1-1.713-.611v.47Z" transform="translate(-576.973 -394.685)" opacity="0.2" style="mix-blend-mode: multiply;isolation: isolate"/>
          <path id="Path_275" data-name="Path 275" d="M577.275,403.16v.33l-.009.031.009,0s.183.33,1.23.472l.146-.274A2.135,2.135,0,0,1,577.275,403.16Z" transform="translate(-576.884 -394.942)" opacity="0.2" style="mix-blend-mode: multiply;isolation: isolate"/>
        </g>
        <path id="Path_276" data-name="Path 276" d="M578.608,404.19l-.262-.151a.113.113,0,0,0-.115.013.359.359,0,0,0-.164.282.114.114,0,0,0,.049.106l.263.151a.116.116,0,0,0,.115-.011.362.362,0,0,0,.163-.282A.117.117,0,0,0,578.608,404.19Z" transform="translate(-567.128 -372.574)" fill="url(#linear-gradient-51)"/>
        <path id="Path_277" data-name="Path 277" d="M578.667,404.3a.362.362,0,0,1-.163.282.116.116,0,0,1-.115.011.113.113,0,0,1-.048-.1.36.36,0,0,1,.164-.282.11.11,0,0,1,.114-.013A.117.117,0,0,1,578.667,404.3Z" transform="translate(-567.138 -372.58)" fill="#b8bfc3"/>
        <path id="Path_278" data-name="Path 278" d="M588.072,391.8a4.682,4.682,0,0,1-2.274,1.716,6.439,6.439,0,0,1-2.526-.175l-.663-.049a9.031,9.031,0,0,1,1.12,1.1,3.161,3.161,0,0,1,.365.518s1.661-.075,4.038-2.752Z" transform="translate(-567.3 -372.109)" opacity="0.2" style="mix-blend-mode: multiply;isolation: isolate"/>
        <path id="Path_279" data-name="Path 279" d="M581.368,392.464l-.834,2.253a1.021,1.021,0,0,0,.533.347,1.282,1.282,0,0,0,.64.073l.616-1.985C581.709,392.7,581.414,392.495,581.368,392.464Z" transform="translate(-567.221 -372.134)" fill="url(#linear-gradient-52)"/>
      </g>
      <g id="Group_122" data-name="Group 122" transform="translate(577.996 352.487)">
        <path id="Path_280" data-name="Path 280" d="M596.041,370.486c-.082-.42-2.686-2.348-4.085-3.141s-3.644-2.176-5.861-3.284-2.781-.733-2.781-.733l9.246,9.474,1.83-.265a2.246,2.246,0,0,0,.973-.23C596.055,372.034,596.121,370.9,596.041,370.486Z" transform="translate(-578.628 -353.316)" fill="#333e40"/>
        <path id="Path_281" data-name="Path 281" d="M592.905,373.069l1.83-.265a2.246,2.246,0,0,0,.973-.23c.693-.272.759-1.4.678-1.821a.377.377,0,0,0-.071-.136,3.7,3.7,0,0,0-1.367-.323c-.876,0-2.349,1.728-2.38,1.848-.01.045-.079.217-.16.417Z" transform="translate(-578.974 -353.583)" fill="#1a2527"/>
        <path id="Path_282" data-name="Path 282" d="M592.1,368.907s1.392-.191.762-.619-3.9-2.268-3.9-2.268l.131,1.672Z" transform="translate(-578.843 -353.421)" fill="url(#linear-gradient-53)"/>
        <path id="Path_283" data-name="Path 283" d="M578.887,363.777l-.031.3a4.362,4.362,0,0,1,2.242,1.541l.607-.491A9.1,9.1,0,0,0,578.887,363.777Z" transform="translate(-578.458 -353.335)" fill="#2b2b2c"/>
        <path id="Path_284" data-name="Path 284" d="M594.569,370.042v.451a13.026,13.026,0,0,0-1.747,2.009,6.328,6.328,0,0,0,1.5-.19v.19a5.365,5.365,0,0,1-1.892.524c-.99.058-7,.026-8.875-1.088-2.547-1.519-2.859-5.886-2.859-5.886a6.666,6.666,0,0,1,2.518-2.721l1.586,1.017,5.962,3.641Z" transform="translate(-578.528 -353.318)" fill="#ff3f39"/>
        <path id="Path_285" data-name="Path 285" d="M592.194,373.036c.109-.907,2-2.716,2.325-3.022l.05.027-3.807-2.054-5.962-3.641-1.586-1.017a6.666,6.666,0,0,0-2.518,2.721s.312,4.367,2.859,5.886c1.757,1.048,7.169,1.138,8.64,1.1Z" transform="translate(-578.528 -353.318)" opacity="0.2" fill="url(#linear-gradient-54)" style="mix-blend-mode: multiply;isolation: isolate"/>
        <path id="Path_286" data-name="Path 286" d="M594.974,370.279c-.326.306-2.216,2.114-2.325,3.022h0l.235-.011a5.365,5.365,0,0,0,1.892-.524v-.19a6.328,6.328,0,0,1-1.5.19,13.026,13.026,0,0,1,1.747-2.009v-.451Z" transform="translate(-578.983 -353.583)" opacity="0.2" style="mix-blend-mode: multiply;isolation: isolate"/>
        <path id="Path_287" data-name="Path 287" d="M593.448,370.635c-.166.45-.837.616-1.5.371s-1.065-.806-.9-1.255.837-.616,1.5-.371S593.613,370.187,593.448,370.635Z" transform="translate(-578.921 -353.544)" fill="#4d585a"/>
        <path id="Path_288" data-name="Path 288" d="M583.383,365.133a.767.767,0,1,1,.266-1.209A.9.9,0,0,1,583.383,365.133Z" transform="translate(-578.578 -353.333)" fill="#4d585a"/>
        <path id="Path_289" data-name="Path 289" d="M583.239,364.968a.522.522,0,1,1,.18-.822A.61.61,0,0,1,583.239,364.968Z" transform="translate(-578.589 -353.344)" fill="#2b2b2c"/>
        <path id="Path_290" data-name="Path 290" d="M592.942,370.458c-.093.252-.469.346-.841.208s-.6-.452-.505-.7.469-.345.841-.209S593.034,370.206,592.942,370.458Z" transform="translate(-578.942 -353.56)" fill="#2b2b2c"/>
        <path id="Path_291" data-name="Path 291" d="M595.107,366.65a7.881,7.881,0,0,0-1.051.775c-.248.268-2.363,2.286-2.363,2.286l1.276.672a3.689,3.689,0,0,1,.273-.993c.2-.4,1.669-1.945,2.026-1.945l.546-.378Z" transform="translate(-578.947 -353.445)" fill="#2b2b2c"/>
        <path id="Path_292" data-name="Path 292" d="M580.79,357.385l-.51.869.629.858s.739,2.139.923,2.911.394,2.474.394,2.474l1.2-.432a5.239,5.239,0,0,1-.66-1.314c-.186-.642-1.152-3.8-1.152-3.8l-.064-.976Z" transform="translate(-578.512 -353.092)" fill="#2b2b2c"/>
        <path id="Path_293" data-name="Path 293" d="M588.253,364.793c-2.068-1.28-3.356-.418-3.356-.418s-2.89,5.866-1.049,7.246,7.012-3.605,7.012-3.605A5.644,5.644,0,0,0,588.253,364.793Z" transform="translate(-578.625 -353.347)" fill="url(#linear-gradient-55)"/>
        <path id="Path_294" data-name="Path 294" d="M595.242,366.629s1.719-1.628,2.811-1.777,3.267.209,3.246,1.777-2,1.272-3.088,1.272a12.532,12.532,0,0,1-2.809-.525A1.9,1.9,0,0,1,595.242,366.629Z" transform="translate(-579.082 -353.375)" fill="#2b2b2c"/>
        <path id="Path_295" data-name="Path 295" d="M579.906,352.924a5.528,5.528,0,0,0-.891,2.51,6.344,6.344,0,0,0,1.217,2.65,1.741,1.741,0,0,1,1.3-.271s.521-.554.532-.718S581.632,353.684,579.906,352.924Z" transform="translate(-578.464 -352.922)" fill="#2b2b2c"/>
        <g id="Group_121" data-name="Group 121" transform="translate(15.706 17.101)">
          <path id="Path_296" data-name="Path 296" d="M596.18,371.2a1.558,1.558,0,0,1-.705,1.222c-.39.225-.705.042-.705-.407a1.557,1.557,0,0,1,.705-1.222C595.865,370.57,596.18,370.753,596.18,371.2Z" transform="translate(-594.77 -370.699)" fill="url(#linear-gradient-56)"/>
          <path id="Path_297" data-name="Path 297" d="M596.329,371.274a1.559,1.559,0,0,1-.706,1.222c-.39.225-.706.042-.706-.408a1.556,1.556,0,0,1,.706-1.221C596.013,370.641,596.329,370.824,596.329,371.274Z" transform="translate(-594.776 -370.702)" fill="#333e40"/>
          <path id="Path_298" data-name="Path 298" d="M598.865,372.806h0l-.008,0-2.89-1.611a.293.293,0,0,0-.334.014.967.967,0,0,0-.437.758.307.307,0,0,0,.128.283l2.906,1.621a.3.3,0,0,0,.323-.022.968.968,0,0,0,.437-.757A.307.307,0,0,0,598.865,372.806Z" transform="translate(-594.786 -370.716)" fill="#2b2b2c"/>
          <path id="Path_299" data-name="Path 299" d="M599.106,373.152a.968.968,0,0,1-.437.757c-.242.139-.439.027-.439-.252a.967.967,0,0,1,.439-.758C598.91,372.76,599.106,372.873,599.106,373.152Z" transform="translate(-594.902 -370.781)" fill="#333e40"/>
        </g>
        <path id="Path_300" data-name="Path 300" d="M593.635,372.339l-.333.505a7.033,7.033,0,0,1,3.189,1.834l.249-.291A7.73,7.73,0,0,0,593.635,372.339Z" transform="translate(-579.008 -353.661)" fill="#333e40"/>
        <path id="Path_301" data-name="Path 301" d="M597.142,374.7a.335.335,0,1,1-.334-.334A.333.333,0,0,1,597.142,374.7Z" transform="translate(-579.128 -353.738)" fill="#2b2b2c"/>
        <circle id="Ellipse_14" data-name="Ellipse 14" cx="0.334" cy="0.334" r="0.334" transform="translate(0 10.22)" fill="#2b2b2c"/>
      </g>
      <path id="Path_302" data-name="Path 302" d="M593.522,373a3.707,3.707,0,0,1,.474-1.093,5.815,5.815,0,0,1,.475-.847,16.13,16.13,0,0,1,1.732-.868,6.094,6.094,0,0,1,.964.767,10.039,10.039,0,0,0,1.107.839c-.272.609-.736,1.287-1.328,1.407l-.228.226c-.1.1-.093.277-.15.377-.19.344-.262.683-1.1.655a5.255,5.255,0,0,1-1.534-.418C593.578,373.878,593.494,373.369,593.522,373Z" transform="translate(-1.02 -1.092)" fill="#f2a983"/>
      <path id="Path_303" data-name="Path 303" d="M596.7,373.23c-.513.023-.614.614-1.036.4a3.126,3.126,0,0,0-1.391-.245.793.793,0,0,1-.648-.65,1.3,1.3,0,0,0-.1.365c-.028.371.056.88.412,1.047a5.255,5.255,0,0,0,1.534.418c.838.028.909-.311,1.1-.655.057-.1.055-.28.15-.377l.228-.226c.029-.006.059-.018.087-.026A1.125,1.125,0,0,0,596.7,373.23Z" transform="translate(-1.02 -1.189)" fill="#d88f69"/>
    </g>
  </g>
</svg>
