<svg xmlns="http://www.w3.org/2000/svg" width="55.377" height="55.372" viewBox="0 0 55.377 55.372">
  <g id="dinero-icon" transform="translate(0.5 0.5)">
    <path id="Path_627" data-name="Path 627" d="M1464.029,615.393v-4.566c.165-.061.1-.208.11-.318a27.85,27.85,0,0,1,1.223-5.9,27.189,27.189,0,1,1,29.821,35.349,10.577,10.577,0,0,0-1.951.289h-4.248c-.06-.167-.207-.1-.317-.111a29.139,29.139,0,0,1-3.506-.559,27.239,27.239,0,0,1-20.841-22.5A5.4,5.4,0,0,0,1464.029,615.393Zm27.189-26.124A23.788,23.788,0,1,0,1515,613.061,23.828,23.828,0,0,0,1491.219,589.269Z" transform="translate(-1464.029 -585.873)" fill="#fc4343"/>
    <path id="Trazado_627_-_Contorno" data-name="Trazado 627 - Contorno" d="M1493.316,640.744h-4.683l-.042-.116a29.409,29.409,0,0,1-3.54-.566,27.414,27.414,0,0,1-7.765-3.068,27.9,27.9,0,0,1-11.015-11.9,27.189,27.189,0,0,1-2.445-7.954c-.027-.184-.04-.365-.053-.54a2.729,2.729,0,0,0-.193-.992l-.051-.1v-5.03l.115-.042a28.5,28.5,0,0,1,1.243-5.986,27.7,27.7,0,0,1,26.33-19.078,28.141,28.141,0,0,1,6.366.734A27.285,27.285,0,0,1,1507,590.3a27.8,27.8,0,0,1,7.189,7.271,27.276,27.276,0,0,1,4.1,9.556,27.821,27.821,0,0,1,.135,11.034,27.547,27.547,0,0,1-23.162,22.294c-.235.035-.468.055-.693.074a4.807,4.807,0,0,0-1.169.193Zm-4.111-1h3.946a5.934,5.934,0,0,1,1.329-.217c.219-.018.426-.036.629-.066a26.786,26.786,0,0,0,22.2-32.127,26.284,26.284,0,0,0-3.95-9.207,26.8,26.8,0,0,0-6.932-7.01,26.288,26.288,0,0,0-9.069-4.037,27.141,27.141,0,0,0-6.139-.708,26.68,26.68,0,0,0-25.38,18.389,27.5,27.5,0,0,0-1.2,5.783v.018a.754.754,0,0,1-.11.484v4.239a3.828,3.828,0,0,1,.241,1.245c.012.165.024.321.046.471a26.758,26.758,0,0,0,20.457,22.086,28.423,28.423,0,0,0,3.431.547h.017c.031,0,.063,0,.094,0A.685.685,0,0,1,1489.205,639.744Zm2.015-2.4h-.011a24.3,24.3,0,0,1-24.282-24.293,24.317,24.317,0,0,1,24.284-24.283h.007a24.288,24.288,0,0,1,0,48.576Zm-.009-47.576a23.315,23.315,0,0,0-23.284,23.283,23.045,23.045,0,0,0,1.832,9.049,23.3,23.3,0,0,0,21.451,14.244h.01a23.038,23.038,0,0,0,9.045-1.833,23.288,23.288,0,0,0-9.047-44.742Z" transform="translate(-1464.029 -585.873)" fill="#fc4343"/>
    <path id="Path_628" data-name="Path 628" d="M1501.662,633.9c0-1.049,0-1.049-1-1.417a7.641,7.641,0,0,1-4.939-6.908,1.707,1.707,0,1,1,3.4-.114,4.247,4.247,0,1,0,4.2-4.366,7.418,7.418,0,0,1-6.9-4.474,7.594,7.594,0,0,1,4.837-10.5c.3-.082.437-.192.413-.528-.034-.493-.018-.991-.006-1.486a1.7,1.7,0,1,1,3.394.02,12.115,12.115,0,0,1-.007,1.379c-.036.4.129.526.486.629a7.643,7.643,0,0,1,5.466,7.113,1.7,1.7,0,1,1-3.4.117,4.246,4.246,0,1,0-4.231,4.334,7.635,7.635,0,0,1,2.167,14.956c-.41.118-.521.286-.49.682a12.446,12.446,0,0,1,0,1.38,1.7,1.7,0,0,1-3.394-.023C1501.656,634.426,1501.662,634.161,1501.662,633.9Z" transform="translate(-1476.176 -592.212)" fill="#fc4343"/>
    <path id="Trazado_628_-_Contorno" data-name="Trazado 628 - Contorno" d="M1503.361,636.887h-.015a2.214,2.214,0,0,1-2.183-2.181c-.005-.192,0-.382,0-.566,0-.082,0-.164,0-.245a3.186,3.186,0,0,0-.034-.675,3.285,3.285,0,0,0-.642-.273,8.141,8.141,0,0,1-5.266-7.366,2.48,2.48,0,0,1,.645-1.8,2.123,2.123,0,0,1,1.51-.639h.041a2.211,2.211,0,0,1,2.2,2.292,3.8,3.8,0,0,0,1.151,2.6,3.75,3.75,0,0,0,2.619,1.049c.06,0,.122,0,.182,0a3.649,3.649,0,0,0,2.543-1.206,3.8,3.8,0,0,0,.991-2.754,3.6,3.6,0,0,0-1.148-2.472,4.069,4.069,0,0,0-2.651-1.063,8.494,8.494,0,0,1-4.388-1.278,8.224,8.224,0,0,1-2.947-3.482,8.094,8.094,0,0,1,5.156-11.193l.047-.014c-.034-.483-.021-.965-.01-1.432l0-.1a2.185,2.185,0,0,1,2.174-2.187h.021a2.215,2.215,0,0,1,2.2,2.208c0,.077,0,.155.006.232a10.055,10.055,0,0,1-.015,1.2.58.58,0,0,0,0,.059,1.057,1.057,0,0,0,.128.044,8.143,8.143,0,0,1,5.828,7.584,2.217,2.217,0,0,1-2.119,2.41h-.077a2.221,2.221,0,0,1-2.2-2.266,3.746,3.746,0,0,0-7.491.069,3.684,3.684,0,0,0,1.083,2.627,3.9,3.9,0,0,0,2.688,1.119,8.286,8.286,0,0,1,5.922,2.579,8.186,8.186,0,0,1,2.189,6,8.01,8.01,0,0,1-1.728,4.589,8.122,8.122,0,0,1-4.089,2.773.809.809,0,0,0-.131.048.756.756,0,0,0,0,.114,12.47,12.47,0,0,1,.008,1.391v.044A2.2,2.2,0,0,1,1503.361,636.887Zm-5.946-12.742h-.024a1.116,1.116,0,0,0-.806.333,1.494,1.494,0,0,0-.365,1.082,7.141,7.141,0,0,0,4.612,6.449c.579.213.9.33,1.113.634a2.064,2.064,0,0,1,.218,1.252c0,.084,0,.169,0,.253,0,.183,0,.356,0,.529a1.2,1.2,0,0,0,1.189,1.21h.009a1.207,1.207,0,0,0,1.2-1.188v-.044a11.566,11.566,0,0,0-.005-1.28,1.035,1.035,0,0,1,.849-1.2,7.114,7.114,0,0,0,3.58-2.431,7,7,0,0,0,1.514-4.01,7.194,7.194,0,0,0-1.918-5.27,7.293,7.293,0,0,0-5.215-2.265,4.895,4.895,0,0,1-3.372-1.41,4.677,4.677,0,0,1-1.377-3.335,4.744,4.744,0,0,1,8.044-3.412,4.845,4.845,0,0,1,1.447,3.3,1.223,1.223,0,0,0,1.2,1.3h.045a1.225,1.225,0,0,0,1.152-1.391,7.143,7.143,0,0,0-5.1-6.642,1.011,1.011,0,0,1-.846-1.155,9.176,9.176,0,0,0,.012-1.085q0-.119-.006-.237a1.208,1.208,0,0,0-1.2-1.231h-.012a1.2,1.2,0,0,0-1.184,1.211l0,.1c-.012.465-.023.9.008,1.339a.936.936,0,0,1-.779,1.045,7.058,7.058,0,0,0-4.533,3.889,7.162,7.162,0,0,0,6.48,10.1,4.745,4.745,0,0,1,3.514,7.962,4.642,4.642,0,0,1-3.236,1.532c-.076,0-.152.005-.228.005a4.745,4.745,0,0,1-3.313-1.329,4.793,4.793,0,0,1-1.456-3.285A1.225,1.225,0,0,0,1497.415,624.145Z" transform="translate(-1476.176 -592.212)" fill="#fc4343"/>
  </g>
</svg>
