<svg xmlns="http://www.w3.org/2000/svg" width="47.097" height="47.099" viewBox="0 0 47.097 47.099">
  <g id="gestion-icon" transform="translate(0.5 0.5)">
    <path id="Path_595" data-name="Path 595" d="M-761.5-380.957a5.291,5.291,0,0,0,.244-1.424,23.1,23.1,0,0,1,17.866-19.2,23.116,23.116,0,0,1,4.727-.536,1.745,1.745,0,0,1,1.935,1.631,1.707,1.707,0,0,1-1.818,1.841,21.08,21.08,0,0,0-4.585.573,19.239,19.239,0,0,0-8.125,4.23A18.792,18.792,0,0,0-757.377-384a19.043,19.043,0,0,0,4.368,17.96,18.58,18.58,0,0,0,11.461,6.288,19.034,19.034,0,0,0,15.889-4.54,19.118,19.118,0,0,0,6.143-9.828,18.241,18.241,0,0,0,.617-4.261,8.1,8.1,0,0,1,.055-.9A1.686,1.686,0,0,1-717-380.785a1.712,1.712,0,0,1,1.589,1.747,20.61,20.61,0,0,1-.589,5.124A22.855,22.855,0,0,1-730.4-357.475a20.518,20.518,0,0,1-6.2,1.376c-.081.006-.186-.037-.225.084h-3.422c-.026-.1-.107-.084-.179-.09a22.091,22.091,0,0,1-2.973-.452,23.1,23.1,0,0,1-17.854-19.194,5.29,5.29,0,0,0-.244-1.424Z" transform="translate(761.503 402.114)" fill="#fc4343"/>
    <path id="Trazado_595_-_Contorno" data-name="Trazado 595 - Contorno" d="M-738.638-402.614a2.238,2.238,0,0,1,2.407,2.108,2.232,2.232,0,0,1-.565,1.644,2.391,2.391,0,0,1-1.739.72,20.591,20.591,0,0,0-4.477.558,18.835,18.835,0,0,0-7.917,4.121,18.349,18.349,0,0,0-5.961,9.582,19.671,19.671,0,0,0-.141,9.308,19.3,19.3,0,0,0,4.4,8.2,18.086,18.086,0,0,0,11.16,6.123,21.532,21.532,0,0,0,3.208.248,18.441,18.441,0,0,0,12.28-4.673A18.688,18.688,0,0,0-720-374.247a17.83,17.83,0,0,0,.6-4.144,8.572,8.572,0,0,1,.06-.952,2.167,2.167,0,0,1,2.212-1.945h0c.054,0,.109,0,.164.005a2.208,2.208,0,0,1,2.058,2.245,20.936,20.936,0,0,1-.6,5.248,24.369,24.369,0,0,1-5.222,10.262,24.6,24.6,0,0,1-9.485,6.518,21.042,21.042,0,0,1-6.221,1.4l-.031.1h-4.166l-.029-.108a22.9,22.9,0,0,1-2.848-.445,23.42,23.42,0,0,1-12.177-6.972,23.383,23.383,0,0,1-6.065-12.639c-.022-.154-.035-.3-.048-.45a2.714,2.714,0,0,0-.159-.845l-.042-.1v-3.991l.042-.1A2.717,2.717,0,0,0-761.8-382c.013-.146.026-.3.048-.45a23.376,23.376,0,0,1,6.068-12.643,23.432,23.432,0,0,1,12.186-6.971,23.724,23.724,0,0,1,4.829-.548Zm.373,43.617a22.536,22.536,0,0,1-3.358-.259,19.06,19.06,0,0,1-11.762-6.452,19.548,19.548,0,0,1-4.479-18.408,19.329,19.329,0,0,1,6.275-10.1,19.825,19.825,0,0,1,8.333-4.339,21.571,21.571,0,0,1,4.693-.588,1.419,1.419,0,0,0,1.033-.4,1.226,1.226,0,0,0,.3-.917,1.251,1.251,0,0,0-1.408-1.154h-.023a22.723,22.723,0,0,0-4.625.525,22.622,22.622,0,0,0-17.478,18.779c-.018.125-.029.255-.041.393a3.835,3.835,0,0,1-.2,1.058v3.587a3.83,3.83,0,0,1,.2,1.057c.012.138.023.268.041.393A22.621,22.621,0,0,0-743.3-357.045a21.716,21.716,0,0,0,2.906.442h.013a.718.718,0,0,1,.33.088h3.014a.643.643,0,0,1,.33-.087l.072,0h.007a20.1,20.1,0,0,0,6.038-1.34,23.613,23.613,0,0,0,9.105-6.249,23.38,23.38,0,0,0,5-9.846,19.953,19.953,0,0,0,.574-5,1.218,1.218,0,0,0-1.121-1.25c-.034,0-.068,0-.1,0a1.185,1.185,0,0,0-1.221,1.079,7.625,7.625,0,0,0-.051.842,18.832,18.832,0,0,1-.634,4.377,19.671,19.671,0,0,1-6.3,10.08A19.415,19.415,0,0,1-738.265-359Z" transform="translate(761.503 402.114)" fill="#fc4343"/>
    <path id="Path_596" data-name="Path 596" d="M-674.132-344.241a1.912,1.912,0,0,1,1.431.735c2.334,2.542,4.679,5.073,7.005,7.622.266.292.393.333.7.028q10.12-10.124,20.26-20.228a1.9,1.9,0,0,1,1.752-.7,1.719,1.719,0,0,1,1.055,2.78,4.768,4.768,0,0,1-.369.394q-10.819,10.794-21.64,21.586a1.8,1.8,0,0,1-2.969-.063q-4.209-4.569-8.414-9.14a1.743,1.743,0,0,1,.216-2.729A1.65,1.65,0,0,1-674.132-344.241Z" transform="translate(686.834 362.605)" fill="#fc4343"/>
    <path id="Trazado_596_-_Contorno" data-name="Trazado 596 - Contorno" d="M-643.3-357.308a2.258,2.258,0,0,1,.4.037,2.229,2.229,0,0,1,1.711,1.41,2.213,2.213,0,0,1-.353,2.173,4.7,4.7,0,0,1-.372.4l-.035.035q-10.819,10.794-21.64,21.586a2.624,2.624,0,0,1-1.824.9,2.576,2.576,0,0,1-1.866-.975l-1.682-1.825c-2.208-2.4-4.491-4.874-6.733-7.315a2.444,2.444,0,0,1-.671-1.929,2.165,2.165,0,0,1,.978-1.554,2.147,2.147,0,0,1,1.259-.373,2.425,2.425,0,0,1,1.792.9q1.279,1.393,2.561,2.783c1.457,1.582,2.964,3.217,4.439,4.834,4.4-4.4,8.882-8.874,13.215-13.2q3.514-3.506,7.026-7.012A2.527,2.527,0,0,1-643.3-357.308Zm-22.113,25.539a1.694,1.694,0,0,0,1.118-.6q10.821-10.792,21.64-21.586l.036-.035a3.879,3.879,0,0,0,.3-.316,1.206,1.206,0,0,0,.2-1.2,1.237,1.237,0,0,0-.953-.778,1.253,1.253,0,0,0-.223-.021,1.547,1.547,0,0,0-1.087.579q-3.512,3.507-7.026,7.012c-4.339,4.33-8.826,8.806-13.234,13.216a1.012,1.012,0,0,1-.7.356,1.006,1.006,0,0,1-.722-.4c-1.475-1.617-2.984-3.254-4.442-4.837q-1.282-1.391-2.562-2.784a1.419,1.419,0,0,0-1.064-.574h-.011a1.152,1.152,0,0,0-.685.206,1.18,1.18,0,0,0-.54.842,1.43,1.43,0,0,0,.415,1.133c2.241,2.44,4.524,4.918,6.732,7.314l1.682,1.825A1.65,1.65,0,0,0-665.411-331.769Z" transform="translate(686.834 362.605)" fill="#fc4343"/>
  </g>
</svg>
