<svg xmlns="http://www.w3.org/2000/svg" width="52.003" height="52.107" viewBox="0 0 52.003 52.107">
  <g id="Group_207" data-name="Group 207" transform="translate(-437.35 -1323.348)">
    <text id="_0" data-name="0" transform="translate(447 1357)" fill="#fc4343" stroke="#fc4343" stroke-width="0.5" font-size="24" font-family="Quicksand-Bold, Quicksand" font-weight="700"><tspan x="0" y="0">0</tspan></text>
    <g id="Group_206" data-name="Group 206">
      <g id="cero-comisiones-icon" transform="translate(438.35 1324.348)">
        <path id="Path_597" data-name="Path 597" d="M1203.561-383.926h3.907c.029.107.118.087.195.092a21.5,21.5,0,0,1,3.515.53,25.077,25.077,0,0,1,18.969,29.237,25.084,25.084,0,0,1-20.885,19.981,9.552,9.552,0,0,0-1.793.268h-3.907c-.04-.131-.153-.093-.242-.1a24.444,24.444,0,0,1-13.184-5.307,24.78,24.78,0,0,1-9.255-15.941,6.661,6.661,0,0,0-.272-1.649v-4.11c.13-.041.091-.154.1-.243a29.2,29.2,0,0,1,.473-3.037,25.132,25.132,0,0,1,20.734-19.446A6.246,6.246,0,0,0,1203.561-383.926Zm2.028,2.08a23.014,23.014,0,0,0-22.9,23.019,23.018,23.018,0,0,0,22.95,22.927,23.013,23.013,0,0,0,22.905-23.021A23.01,23.01,0,0,0,1205.589-381.845Z" transform="translate(-1180.607 383.926)" fill="#fc4343"/>
        <path id="Trazado_597_-_Contorno" data-name="Trazado 597 - Contorno" d="M1203.355-384.926h4.876l.037.136a22.766,22.766,0,0,1,3.136.513,25.984,25.984,0,0,1,16,11.21,26.029,26.029,0,0,1,3.722,19.19,25.731,25.731,0,0,1-2.749,7.578,26.186,26.186,0,0,1-4.828,6.266,26.127,26.127,0,0,1-6.469,4.54,25.567,25.567,0,0,1-7.676,2.4c-.224.033-.439.051-.646.069a4.185,4.185,0,0,0-.964.154l-.159.055h-4.818l-.046-.154a25.458,25.458,0,0,1-13.263-5.475,25.843,25.843,0,0,1-9.617-16.564c-.034-.216-.051-.419-.067-.615a2.713,2.713,0,0,0-.137-.8l-.081-.189v-5.05l.154-.048c.107-.91.255-1.818.441-2.7a25.2,25.2,0,0,1,2.818-7.36,26.359,26.359,0,0,1,4.838-6.106,26.317,26.317,0,0,1,6.4-4.433,25.082,25.082,0,0,1,7.515-2.331c.2-.028.381-.043.561-.058a2.8,2.8,0,0,0,.832-.143Zm3.789,2h-3.4a4.923,4.923,0,0,1-1.249.218c-.156.013-.3.025-.439.044a23.087,23.087,0,0,0-6.917,2.146,24.317,24.317,0,0,0-5.914,4.1,24.359,24.359,0,0,0-4.471,5.643,23.2,23.2,0,0,0-2.6,6.777,28.37,28.37,0,0,0-.453,2.9,1.259,1.259,0,0,1-.1.511v3.6a4.831,4.831,0,0,1,.211,1.21c.014.167.027.324.049.465a24.533,24.533,0,0,0,2.971,8.524,24.566,24.566,0,0,0,5.922,6.794,23.543,23.543,0,0,0,12.619,5.088,1.255,1.255,0,0,1,.523.1h3.411a6.409,6.409,0,0,1,1.273-.2c.187-.016.365-.031.531-.056a23.57,23.57,0,0,0,7.076-2.209,24.126,24.126,0,0,0,5.975-4.193,24.185,24.185,0,0,0,4.46-5.788,23.729,23.729,0,0,0,2.536-6.99,24.038,24.038,0,0,0-3.436-17.723,23.994,23.994,0,0,0-14.777-10.35,20.358,20.358,0,0,0-3.338-.506A1.261,1.261,0,0,1,1207.143-382.926Zm-1.508.08a23.554,23.554,0,0,1,9.267,1.886,23.922,23.922,0,0,1,7.59,5.133,24.028,24.028,0,0,1,5.137,7.6,23.819,23.819,0,0,1,1.909,9.3,23.649,23.649,0,0,1-1.861,9.313,23.966,23.966,0,0,1-5.125,7.631,23.988,23.988,0,0,1-7.607,5.166,23.7,23.7,0,0,1-9.309,1.914h-.06a23.5,23.5,0,0,1-9.261-1.888,23.945,23.945,0,0,1-7.588-5.138,24.051,24.051,0,0,1-5.138-7.6,23.759,23.759,0,0,1-1.905-9.293,23.692,23.692,0,0,1,1.866-9.316,23.983,23.983,0,0,1,5.126-7.631,23.974,23.974,0,0,1,7.6-5.164,23.672,23.672,0,0,1,9.3-1.911Zm-.059,45.947h.055a21.714,21.714,0,0,0,8.528-1.753,22,22,0,0,0,6.975-4.737,21.974,21.974,0,0,0,4.7-7,21.66,21.66,0,0,0,1.7-8.53,21.828,21.828,0,0,0-1.749-8.523,22.037,22.037,0,0,0-4.712-6.973,21.931,21.931,0,0,0-6.958-4.707,21.564,21.564,0,0,0-8.485-1.726h-.044a21.682,21.682,0,0,0-8.523,1.75,21.981,21.981,0,0,0-6.973,4.735,21.988,21.988,0,0,0-4.7,7,21.7,21.7,0,0,0-1.709,8.534,21.77,21.77,0,0,0,1.745,8.515,22.058,22.058,0,0,0,4.712,6.975,21.955,21.955,0,0,0,6.957,4.711A21.51,21.51,0,0,0,1205.577-336.9Z" transform="translate(-1180.607 383.926)" fill="#fc4343"/>
        <path id="Path_598" data-name="Path 598" d="M1318.946-287.269a.7.7,0,0,1-.15.407q-4.572,7.2-9.144,14.39a.658.658,0,0,1-.968.279.667.667,0,0,1-.149-.98q4.577-7.21,9.158-14.417a.665.665,0,0,1,.78-.351A.655.655,0,0,1,1318.946-287.269Z" transform="translate(-1280.738 304.213)" fill="#fc4343"/>
        <path id="Trazado_598_-_Contorno" data-name="Trazado 598 - Contorno" d="M1318.284-288.97a1.653,1.653,0,0,1,.478.072,1.644,1.644,0,0,1,1.184,1.61,1.685,1.685,0,0,1-.307.964l-2.2,3.471q-3.469,5.46-6.938,10.919a1.727,1.727,0,0,1-1.452.86,1.65,1.65,0,0,1-.914-.284,1.659,1.659,0,0,1-.44-2.348c2.948-4.644,6.029-9.5,9.158-14.418A1.7,1.7,0,0,1,1318.284-288.97Z" transform="translate(-1280.738 304.213)" fill="#fc4343"/>
        <path id="Path_599" data-name="Path 599" d="M1279.683-297.274a3.308,3.308,0,0,1-3.293-3.321,3.307,3.307,0,0,1,3.328-3.286,3.311,3.311,0,0,1,3.282,3.306A3.312,3.312,0,0,1,1279.683-297.274Zm1.985-3.312a1.976,1.976,0,0,0-1.99-1.977,2,2,0,0,0-1.97,1.977,2,2,0,0,0,1.985,1.994A1.978,1.978,0,0,0,1281.668-300.586Z" transform="translate(-1251.389 318.807)" fill="#fc4343"/>
        <path id="Trazado_599_-_Contorno" data-name="Trazado 599 - Contorno" d="M1279.694-296.274h-.014a4.275,4.275,0,0,1-3.04-1.273,4.279,4.279,0,0,1-1.25-3.053,4.308,4.308,0,0,1,4.3-4.282h.038a4.319,4.319,0,0,1,4.273,4.306A4.311,4.311,0,0,1,1279.694-296.274Zm-.006-5.289h-.005a1,1,0,0,0-.975.983.97.97,0,0,0,.29.692.977.977,0,0,0,.695.3.964.964,0,0,0,.688-.285.986.986,0,0,0,.288-.705A.972.972,0,0,0,1279.688-301.563Z" transform="translate(-1251.389 318.807)" fill="#fc4343"/>
        <path id="Path_600" data-name="Path 600" d="M1391.4-159.934a3.3,3.3,0,0,1,3.287,3.327,3.306,3.306,0,0,1-3.334,3.28,3.315,3.315,0,0,1-3.276-3.312A3.313,3.313,0,0,1,1391.4-159.934Zm-1.991,3.312a1.978,1.978,0,0,0,1.991,1.977,2,2,0,0,0,1.969-1.979,2,2,0,0,0-1.986-1.992A1.976,1.976,0,0,0,1389.413-156.622Z" transform="translate(-1353.833 186.776)" fill="#fc4343"/>
        <path id="Trazado_600_-_Contorno" data-name="Trazado 600 - Contorno" d="M1391.385-160.684h.023a4.029,4.029,0,0,1,2.862,1.2,4.033,4.033,0,0,1,1.17,2.877,4.058,4.058,0,0,1-4.047,4.026h-.045a4.064,4.064,0,0,1-4.018-4.066A4.067,4.067,0,0,1,1391.385-160.684Zm.006,5.289h.008a1.255,1.255,0,0,0,1.224-1.233,1.219,1.219,0,0,0-.362-.87,1.225,1.225,0,0,0-.872-.368,1.214,1.214,0,0,0-.866.359,1.235,1.235,0,0,0-.359.882A1.233,1.233,0,0,0,1391.391-155.394Z" transform="translate(-1353.833 186.776)" fill="#fc4343"/>
      </g>
    </g>
  </g>
</svg>
