<svg xmlns="http://www.w3.org/2000/svg" width="42.939" height="43.082" viewBox="0 0 42.939 43.082">
  <g id="inventario-icon" transform="translate(0.246 0.25)">
    <path id="Path_616" data-name="Path 616" d="M1307.031,613.155q5.9,0,11.8,0a3.378,3.378,0,0,0,.732-.065,1.552,1.552,0,0,0,1.2-1.446,1.42,1.42,0,0,0-1.183-1.389,4.381,4.381,0,0,0-.827-.049q-11.665,0-23.33,0c-.153,0-.358.051-.448-.027a.563.563,0,0,0-.63-.046,1.554,1.554,0,0,0-1.008,1.636,1.409,1.409,0,0,0,1.107,1.309,3.65,3.65,0,0,0,.823.079Q1301.152,613.158,1307.031,613.155Zm-.014,15.049q5.921,0,11.842,0a2.957,2.957,0,0,0,.82-.086,1.44,1.44,0,0,0,.054-2.779,2.66,2.66,0,0,0-.865-.087q-6.382,0-12.763,0c-3.579,0-7.157-.009-10.736.016-.305,0-.528-.224-.84-.149a1.531,1.531,0,0,0-1.182,1.506,1.421,1.421,0,0,0,1.055,1.486,2.884,2.884,0,0,0,.82.094Q1301.118,628.2,1307.016,628.2Zm.026-30.407h10.879c.446,0,.891.014,1.336-.008a1.457,1.457,0,0,0,1.323-1.822,1.5,1.5,0,0,0-1.593-1.121q-11.938,0-23.877,0a2.494,2.494,0,0,0-.276.007,1.479,1.479,0,0,0-1.3,1.13,1.459,1.459,0,0,0,1.572,1.812Q1301.073,597.8,1307.042,597.8ZM1282.9,628.42c-.135-.007-.164-.108-.214-.181-.546-.815-1.077-1.641-1.635-2.447a1.469,1.469,0,0,0-2.146-.322,1.629,1.629,0,0,0-.233,2.274c.94,1.4,1.89,2.794,2.837,4.189a1.548,1.548,0,0,0,2.835,0q2.487-3.758,4.97-7.518c.3-.46.629-.909.906-1.385a1.749,1.749,0,0,0-.558-2.278c-.7-.449-1.425-.235-2,.592-.078.114-.151.23-.229.345Zm-.024-30.209a1.816,1.816,0,0,1-.162-.182c-.521-.777-1.038-1.557-1.559-2.334a1.5,1.5,0,1,0-2.482,1.66q1.429,2.116,2.863,4.229a1.537,1.537,0,0,0,2.787-.008q2.761-4.1,5.519-8.209c.136-.2.283-.4.4-.617a1.748,1.748,0,0,0-.619-2.261c-.7-.422-1.392-.207-1.955.608-.079.114-.152.23-.229.345Zm-.02,15.228c-.583-.872-1.14-1.711-1.7-2.547a1.5,1.5,0,1,0-2.482,1.66q1.441,2.135,2.888,4.265a1.531,1.531,0,0,0,2.738,0c.756-1.136,1.5-2.277,2.255-3.415,1.226-1.855,2.458-3.7,3.674-5.564a1.435,1.435,0,0,0-.405-2.06,1.386,1.386,0,0,0-2.049.375c-.128.172-.244.353-.364.531Z" transform="translate(-1278.325 -590.278)" fill="#fc4343"/>
    <path id="Trazado_616_-_Contorno" data-name="Trazado 616 - Contorno" d="M1282.938,633.11a2.046,2.046,0,0,1-1.633-1.037l-.609-.9c-.733-1.078-1.49-2.193-2.229-3.294a1.887,1.887,0,0,1,.288-2.612,1.771,1.771,0,0,1,1.088-.379,1.708,1.708,0,0,1,1.416.757c.366.529.725,1.073,1.073,1.6q.262.4.525.792l.55-.816,3.826-5.675.1-.147c.044-.067.088-.134.133-.2a1.841,1.841,0,0,1,1.479-.93,1.578,1.578,0,0,1,.857.27,1.988,1.988,0,0,1,.64,2.615c-.2.338-.419.664-.634.98-.094.138-.188.277-.28.416l-.685,1.037c-1.4,2.125-2.855,4.322-4.285,6.482A2.008,2.008,0,0,1,1282.938,633.11Zm-3.094-7.717a1.276,1.276,0,0,0-.783.275,1.384,1.384,0,0,0-.178,1.937c.738,1.1,1.5,2.214,2.228,3.291l.609.9a1.575,1.575,0,0,0,1.219.817,1.536,1.536,0,0,0,1.2-.813c1.429-2.159,2.881-4.356,4.284-6.481l.685-1.037c.093-.141.188-.281.284-.421.21-.309.427-.628.616-.951a1.5,1.5,0,0,0-.478-1.941,1.089,1.089,0,0,0-.587-.191,1.417,1.417,0,0,0-1.067.714c-.043.062-.084.126-.126.19s-.067.1-.1.153l-3.826,5.675-.791,1.173-.141-.007a.464.464,0,0,1-.391-.263l-.017-.029q-.285-.426-.567-.854c-.346-.524-.7-1.066-1.067-1.59A1.214,1.214,0,0,0,1279.844,625.392Zm15.378,3.064h0a3.137,3.137,0,0,1-.89-.1,1.671,1.671,0,0,1-1.235-1.735,1.774,1.774,0,0,1,1.374-1.74.8.8,0,0,1,.187-.022,1.23,1.23,0,0,1,.43.1.847.847,0,0,0,.278.069c2.242-.015,4.457-.018,6.328-.018H1319a2.47,2.47,0,0,1,.812.1,1.662,1.662,0,0,1,1.207,1.65,1.685,1.685,0,0,1-1.272,1.607,3.151,3.151,0,0,1-.868.1h-16.685Q1298.707,628.454,1295.222,628.456Zm-.565-3.1a.3.3,0,0,0-.07.008,1.276,1.276,0,0,0-.991,1.272,1.176,1.176,0,0,0,.876,1.237,2.682,2.682,0,0,0,.749.084q3.486,0,6.972,0h16.685a2.644,2.644,0,0,0,.732-.076,1.19,1.19,0,0,0,.043-2.3,2.054,2.054,0,0,0-.653-.074h-17.307c-1.87,0-4.084,0-6.323.018h-.006a1.272,1.272,0,0,1-.448-.1A.814.814,0,0,0,1294.657,625.354Zm-11.72-7.444a1.937,1.937,0,0,1-1.579-.953c-.977-1.435-1.966-2.9-2.888-4.266a1.931,1.931,0,0,1-.35-1.466,1.8,1.8,0,0,1,1.706-1.387,1.888,1.888,0,0,1,1.541.914c.38.567.76,1.135,1.146,1.714l.349.523,1.889-2.8,2.455-3.645.094-.141c.088-.132.178-.268.276-.4a1.632,1.632,0,0,1,2.394-.431,1.692,1.692,0,0,1,.471,2.4c-.854,1.305-1.729,2.628-2.576,3.906l-1.1,1.659-.793,1.2c-.478.726-.972,1.476-1.462,2.212A1.914,1.914,0,0,1,1282.936,617.91Zm-3.112-7.572a1.2,1.2,0,0,0-.667.213,1.21,1.21,0,0,0-.548.771,1.445,1.445,0,0,0,.274,1.089c.923,1.367,1.911,2.83,2.887,4.264a1.458,1.458,0,0,0,1.166.734,1.435,1.435,0,0,0,1.157-.736c.489-.735.983-1.485,1.461-2.21l.794-1.2,1.1-1.66c.847-1.278,1.722-2.6,2.575-3.9a1.185,1.185,0,0,0-.34-1.718,1.262,1.262,0,0,0-.724-.255,1.24,1.24,0,0,0-.981.575c-.09.121-.173.246-.261.378l-.1.144-2.455,3.645-2.305,3.422-.207-.31-.556-.834c-.386-.579-.765-1.146-1.145-1.713A1.382,1.382,0,0,0,1279.825,610.339Zm31.252,3.066h-7.755c-2.567,0-5.319,0-8.049,0a3.8,3.8,0,0,1-.88-.085,1.653,1.653,0,0,1-1.3-1.541,1.792,1.792,0,0,1,1.178-1.884l.018-.006a1.227,1.227,0,0,1,.39-.082.691.691,0,0,1,.443.163h.027c.035,0,.077,0,.121-.007s.105-.009.159-.009q11.665,0,23.33,0h.09a4.062,4.062,0,0,1,.784.053,1.675,1.675,0,0,1,1.385,1.632,1.806,1.806,0,0,1-1.4,1.692,3.665,3.665,0,0,1-.787.072C1316.172,613.4,1313.532,613.4,1311.077,613.4Zm-4.046-.5h4.046c2.456,0,5.1,0,7.757,0a3.15,3.15,0,0,0,.677-.059,1.308,1.308,0,0,0,1.008-1.2,1.166,1.166,0,0,0-.98-1.146,3.658,3.658,0,0,0-.689-.044h-.091q-11.665,0-23.33,0c-.032,0-.073,0-.116.007s-.108.009-.164.009a.5.5,0,0,1-.331-.1.2.2,0,0,0-.138-.06.848.848,0,0,0-.232.056l-.017.006a1.311,1.311,0,0,0-.836,1.388,1.158,1.158,0,0,0,.914,1.076,3.332,3.332,0,0,0,.766.072c2.729,0,5.481,0,8.048,0Zm-24.1-10.186a1.985,1.985,0,0,1-1.6-.994c-.918-1.353-1.9-2.8-2.864-4.229a1.934,1.934,0,0,1-.354-1.468,1.7,1.7,0,0,1,.766-1.089,1.72,1.72,0,0,1,.946-.3,1.886,1.886,0,0,1,1.538.914q.4.6.8,1.2l.692,1.036,4.375-6.491.093-.141c.045-.069.091-.138.138-.206a1.793,1.793,0,0,1,1.466-.927,1.588,1.588,0,0,1,.824.247,1.994,1.994,0,0,1,.71,2.594,5.513,5.513,0,0,1-.313.492l-.1.145-.543.807q-2.487,3.7-4.976,7.4A1.985,1.985,0,0,1,1282.932,602.718Zm-3.1-7.577a1.315,1.315,0,0,0-1.222.983,1.449,1.449,0,0,0,.278,1.09c.964,1.428,1.946,2.876,2.863,4.228a1.293,1.293,0,0,0,2.373-.007q2.49-3.7,4.976-7.4l.542-.807.1-.15a5.055,5.055,0,0,0,.285-.447,1.5,1.5,0,0,0-.528-1.928,1.1,1.1,0,0,0-.566-.175,1.411,1.411,0,0,0-1.055.711c-.045.065-.088.13-.131.2l-.1.146-4.741,7.033-.214-.236-.055-.058a1.1,1.1,0,0,1-.129-.152q-.38-.567-.758-1.135-.4-.6-.8-1.2A1.38,1.38,0,0,0,1279.828,595.142Zm38.847,2.909-.379,0-.375,0H1300.46q-2.678,0-5.356,0a1.888,1.888,0,0,1-1.521-.667,1.677,1.677,0,0,1-.294-1.451,1.739,1.739,0,0,1,1.518-1.323,1.878,1.878,0,0,1,.207-.009h23.974a1.74,1.74,0,0,1,1.835,1.308,1.707,1.707,0,0,1-.28,1.446,1.676,1.676,0,0,1-1.272.688C1319.1,598.047,1318.906,598.051,1318.675,598.051Zm-.754-.5.379,0,.375,0c.224,0,.4,0,.57-.012a1.178,1.178,0,0,0,.893-.485,1.209,1.209,0,0,0,.2-1.024,1.256,1.256,0,0,0-1.351-.934h-23.973a1.39,1.39,0,0,0-.152.006,1.224,1.224,0,0,0-1.086.938,1.187,1.187,0,0,0,.2,1.028,1.4,1.4,0,0,0,1.13.478q4.323,0,8.647,0h14.17Z" transform="translate(-1278.325 -590.278)" fill="#fc4343"/>
    <path id="Path_617" data-name="Path 617" d="M1320.063,630.316q-5.879,0-11.757,0a3.651,3.651,0,0,1-.823-.079,1.409,1.409,0,0,1-1.107-1.308,1.554,1.554,0,0,1,1.007-1.636.563.563,0,0,1,.63.046c.09.078.295.027.448.027q11.665,0,23.33,0a4.381,4.381,0,0,1,.827.049,1.42,1.42,0,0,1,1.183,1.389,1.552,1.552,0,0,1-1.2,1.446,3.384,3.384,0,0,1-.732.065Q1325.964,630.319,1320.063,630.316Z" transform="translate(-1291.357 -607.439)" fill="#fc4343"/>
    <path id="Trazado_617_-_Contorno" data-name="Trazado 617 - Contorno" d="M1324.34,630.566h-8.128c-2.513,0-5.211,0-7.906,0a3.8,3.8,0,0,1-.88-.085,1.653,1.653,0,0,1-1.3-1.541,1.792,1.792,0,0,1,1.178-1.884l.018-.006a1.227,1.227,0,0,1,.39-.082.691.691,0,0,1,.443.163h.027c.035,0,.077,0,.121-.007s.105-.009.159-.009q11.666,0,23.33,0h.092a4.116,4.116,0,0,1,.782.053,1.675,1.675,0,0,1,1.385,1.632,1.806,1.806,0,0,1-1.4,1.692,3.615,3.615,0,0,1-.787.072C1329.262,630.566,1326.71,630.566,1324.34,630.566Zm-4.277-.5h4.277c2.37,0,4.922,0,7.526,0a3.158,3.158,0,0,0,.677-.059,1.308,1.308,0,0,0,1.008-1.2,1.166,1.166,0,0,0-.98-1.146,3.653,3.653,0,0,0-.687-.044h-.092q-11.665,0-23.33,0c-.032,0-.073,0-.116.007s-.108.009-.163.009a.5.5,0,0,1-.331-.1.2.2,0,0,0-.138-.06.849.849,0,0,0-.233.056l-.017.006a1.311,1.311,0,0,0-.836,1.388,1.158,1.158,0,0,0,.914,1.076,3.332,3.332,0,0,0,.766.072c2.7,0,5.392,0,7.906,0Z" transform="translate(-1291.357 -607.439)" fill="#fc4343"/>
    <path id="Path_618" data-name="Path 618" d="M1320.051,658.426q-5.9,0-11.8,0a2.885,2.885,0,0,1-.82-.094,1.421,1.421,0,0,1-1.055-1.486,1.531,1.531,0,0,1,1.182-1.506c.312-.075.535.151.84.149,3.579-.025,7.157-.016,10.736-.016q6.381,0,12.763,0a2.663,2.663,0,0,1,.865.087,1.44,1.44,0,0,1-.054,2.779,2.955,2.955,0,0,1-.82.086Q1325.972,658.424,1320.051,658.426Z" transform="translate(-1291.359 -620.5)" fill="#fc4343"/>
    <path id="Trazado_618_-_Contorno" data-name="Trazado 618 - Contorno" d="M1308.256,658.678h0a3.136,3.136,0,0,1-.89-.1,1.671,1.671,0,0,1-1.235-1.735,1.774,1.774,0,0,1,1.374-1.74.8.8,0,0,1,.187-.022,1.23,1.23,0,0,1,.43.1.847.847,0,0,0,.278.069c2.243-.015,4.458-.018,6.329-.018h17.306a2.477,2.477,0,0,1,.813.1,1.663,1.663,0,0,1,1.207,1.65,1.685,1.685,0,0,1-1.272,1.607,3.142,3.142,0,0,1-.866.1h-16.634Q1311.768,658.676,1308.256,658.678Zm-.565-3.1a.3.3,0,0,0-.07.008,1.276,1.276,0,0,0-.991,1.272,1.176,1.176,0,0,0,.876,1.237,2.679,2.679,0,0,0,.749.084q3.513,0,7.025,0h16.634a2.7,2.7,0,0,0,.73-.076,1.19,1.19,0,0,0,.043-2.3,2.032,2.032,0,0,0-.654-.074h-17.306c-1.87,0-4.084,0-6.323.018h-.006a1.272,1.272,0,0,1-.448-.1A.814.814,0,0,0,1307.691,655.577Z" transform="translate(-1291.359 -620.5)" fill="#fc4343"/>
    <path id="Path_619" data-name="Path 619" d="M1320.2,601.76q-5.969,0-11.938,0a1.459,1.459,0,0,1-1.572-1.812,1.478,1.478,0,0,1,1.3-1.13,2.478,2.478,0,0,1,.276-.008q11.938,0,23.877,0a1.5,1.5,0,0,1,1.593,1.121,1.458,1.458,0,0,1-1.322,1.822c-.445.021-.891.007-1.337.007Z" transform="translate(-1291.483 -594.241)" fill="#fc4343"/>
    <path id="Trazado_619_-_Contorno" data-name="Trazado 619 - Contorno" d="M1331.835,602.014l-.38,0-.376,0h-17.527q-2.645,0-5.29,0a1.887,1.887,0,0,1-1.521-.667,1.677,1.677,0,0,1-.294-1.451,1.739,1.739,0,0,1,1.518-1.322,1.849,1.849,0,0,1,.208-.009h23.972a1.74,1.74,0,0,1,1.835,1.308,1.707,1.707,0,0,1-.28,1.446,1.676,1.676,0,0,1-1.272.688C1332.254,602.01,1332.066,602.014,1331.835,602.014Zm-.756-.5.38,0,.376,0c.223,0,.4,0,.568-.012a1.178,1.178,0,0,0,.893-.485,1.209,1.209,0,0,0,.2-1.024,1.257,1.257,0,0,0-1.351-.934h-23.972a1.4,1.4,0,0,0-.153.006,1.223,1.223,0,0,0-1.086.938,1.188,1.188,0,0,0,.2,1.028,1.4,1.4,0,0,0,1.13.478q4.307,0,8.613,0h14.2Z" transform="translate(-1291.483 -594.241)" fill="#fc4343"/>
    <path id="Path_620" data-name="Path 620" d="M1282.9,654.667l4.537-6.73c.077-.115.151-.231.229-.345.57-.826,1.295-1.041,2-.592a1.749,1.749,0,0,1,.558,2.278c-.278.475-.6.924-.906,1.385q-2.484,3.76-4.97,7.518a1.548,1.548,0,0,1-2.835,0c-.947-1.4-1.9-2.789-2.837-4.189a1.629,1.629,0,0,1,.233-2.274,1.469,1.469,0,0,1,2.146.322c.558.807,1.089,1.632,1.635,2.447C1282.739,654.56,1282.769,654.66,1282.9,654.667Z" transform="translate(-1278.325 -616.525)" fill="#fc4343"/>
    <path id="Trazado_620_-_Contorno" data-name="Trazado 620 - Contorno" d="M1282.938,659.357a2.046,2.046,0,0,1-1.633-1.037l-.606-.892c-.733-1.079-1.492-2.2-2.232-3.3a1.887,1.887,0,0,1,.288-2.612,1.771,1.771,0,0,1,1.088-.379,1.708,1.708,0,0,1,1.416.757c.365.528.724,1.072,1.072,1.6q.262.4.526.793l1.148-1.7,3.228-4.788.1-.146c.044-.068.088-.135.134-.2a1.841,1.841,0,0,1,1.479-.93,1.578,1.578,0,0,1,.857.27,1.988,1.988,0,0,1,.639,2.615c-.2.338-.419.665-.634.981-.094.138-.188.276-.28.416l-.722,1.093c-1.391,2.106-2.83,4.284-4.247,6.425A2.008,2.008,0,0,1,1282.938,659.357Zm-3.094-7.717a1.276,1.276,0,0,0-.783.275,1.384,1.384,0,0,0-.178,1.937c.739,1.1,1.5,2.217,2.23,3.3l.606.893a1.574,1.574,0,0,0,1.219.817,1.536,1.536,0,0,0,1.2-.813c1.417-2.141,2.856-4.319,4.247-6.425l.722-1.093c.093-.141.188-.281.283-.421.21-.309.427-.628.616-.952a1.5,1.5,0,0,0-.478-1.941,1.089,1.089,0,0,0-.587-.19,1.418,1.418,0,0,0-1.068.714c-.043.063-.085.127-.127.191s-.066.1-.1.151l-3.228,4.788-1.389,2.06-.141-.007a.464.464,0,0,1-.391-.263c-.006-.01-.011-.02-.017-.029q-.285-.427-.567-.855c-.346-.524-.7-1.065-1.066-1.589A1.214,1.214,0,0,0,1279.844,651.639Z" transform="translate(-1278.325 -616.525)" fill="#fc4343"/>
    <path id="Path_621" data-name="Path 621" d="M1282.888,598.211l4.563-6.769c.077-.115.151-.231.229-.345.563-.815,1.256-1.03,1.955-.608a1.748,1.748,0,0,1,.619,2.261c-.116.215-.263.414-.4.617q-2.758,4.1-5.519,8.209a1.537,1.537,0,0,1-2.787.008q-1.433-2.113-2.863-4.229a1.5,1.5,0,1,1,2.482-1.66c.521.777,1.037,1.556,1.558,2.334A1.8,1.8,0,0,0,1282.888,598.211Z" transform="translate(-1278.333 -590.278)" fill="#fc4343"/>
    <path id="Trazado_621_-_Contorno" data-name="Trazado 621 - Contorno" d="M1282.94,602.718a1.985,1.985,0,0,1-1.6-.994c-.918-1.354-1.9-2.8-2.864-4.229a1.934,1.934,0,0,1-.354-1.467,1.7,1.7,0,0,1,.767-1.089,1.72,1.72,0,0,1,.946-.3,1.886,1.886,0,0,1,1.538.914q.4.593.793,1.188.35.525.7,1.049l4.375-6.491.093-.141c.045-.069.091-.138.138-.207a1.793,1.793,0,0,1,1.466-.927,1.589,1.589,0,0,1,.824.247,1.994,1.994,0,0,1,.71,2.594,5.515,5.515,0,0,1-.314.494l-.1.144-.529.788q-2.494,3.711-4.99,7.421A1.985,1.985,0,0,1,1282.94,602.718Zm-3.1-7.577a1.315,1.315,0,0,0-1.222.983,1.448,1.448,0,0,0,.278,1.09c.963,1.426,1.945,2.875,2.863,4.228a1.294,1.294,0,0,0,2.373-.007q2.5-3.709,4.99-7.421l.529-.787.1-.148a5.057,5.057,0,0,0,.286-.449,1.5,1.5,0,0,0-.528-1.928,1.1,1.1,0,0,0-.566-.175,1.411,1.411,0,0,0-1.055.711c-.045.065-.088.13-.131.2-.032.049-.064.1-.1.146l-4.452,6.605-.288.428-.214-.235-.055-.058a1.084,1.084,0,0,1-.13-.152q-.384-.573-.766-1.147-.4-.594-.792-1.187A1.38,1.38,0,0,0,1279.836,595.142Z" transform="translate(-1278.333 -590.278)" fill="#fc4343"/>
    <path id="Path_622" data-name="Path 622" d="M1282.87,626.625l4.553-6.758c.12-.178.236-.359.364-.531a1.386,1.386,0,0,1,2.049-.375,1.435,1.435,0,0,1,.405,2.06c-1.216,1.86-2.448,3.71-3.674,5.564-.752,1.138-1.5,2.279-2.255,3.415a1.531,1.531,0,0,1-2.738,0q-1.449-2.129-2.888-4.265a1.5,1.5,0,1,1,2.482-1.66C1281.73,624.914,1282.288,625.753,1282.87,626.625Z" transform="translate(-1278.336 -603.465)" fill="#fc4343"/>
    <path id="Trazado_622_-_Contorno" data-name="Trazado 622 - Contorno" d="M1282.947,631.1a1.937,1.937,0,0,1-1.58-.953c-1.007-1.48-2.025-2.987-2.888-4.266a1.93,1.93,0,0,1-.35-1.466,1.8,1.8,0,0,1,1.706-1.387,1.887,1.887,0,0,1,1.54.914c.381.568.761,1.137,1.148,1.717l.347.52,1.825-2.709,2.52-3.74.094-.141c.088-.132.178-.268.276-.4a1.631,1.631,0,0,1,2.393-.431,1.692,1.692,0,0,1,.471,2.4c-.851,1.3-1.724,2.619-2.568,3.893q-.554.836-1.107,1.672l-.788,1.195c-.48.729-.976,1.482-1.468,2.221A1.914,1.914,0,0,1,1282.947,631.1Zm-3.111-7.572a1.3,1.3,0,0,0-1.216.984,1.444,1.444,0,0,0,.274,1.089c.863,1.279,1.881,2.785,2.887,4.264a1.458,1.458,0,0,0,1.166.734,1.435,1.435,0,0,0,1.157-.736c.491-.738.987-1.491,1.466-2.219l.788-1.2,1.107-1.672c.844-1.274,1.716-2.591,2.566-3.891a1.185,1.185,0,0,0-.34-1.718,1.262,1.262,0,0,0-.724-.255,1.24,1.24,0,0,0-.981.575c-.09.121-.173.246-.261.378l-.1.144-2.52,3.74-2.241,3.327-.207-.31-.554-.831c-.387-.58-.766-1.148-1.147-1.716A1.382,1.382,0,0,0,1279.836,623.526Z" transform="translate(-1278.336 -603.465)" fill="#fc4343"/>
  </g>
</svg>
