<svg xmlns="http://www.w3.org/2000/svg" width="55.379" height="39.236" viewBox="0 0 55.379 39.236">
  <g id="marketing-icon" transform="translate(0.5 0.5)">
    <path id="Path_629" data-name="Path 629" d="M1649.712,555.7c-.195.091-.163.292-.212.449a4.807,4.807,0,0,1-4.426,3.37c-.124,0-.248,0-.372,0q-22.191,0-44.381,0a4.787,4.787,0,0,1-4.818-3.551,5.154,5.154,0,0,1-.17-1.363q0-14.2,0-28.4a4.764,4.764,0,0,1,4.926-4.916q22.244-.006,44.488,0a4.785,4.785,0,0,1,4.836,3.673c.025.091-.024.224.125.256Zm-5.457-31.19h-43.416c.194.174.315.274.425.384q9.876,9.9,19.75,19.808a1.878,1.878,0,0,0,3.03-.009q8.134-8.155,16.268-16.309C1641.583,527.109,1642.877,525.86,1644.255,524.507ZM1600.8,556.3h43.36c-.089-.1-.133-.147-.178-.194q-6.558-6.578-13.109-13.163c-.266-.268-.391-.205-.615.022-1.327,1.35-2.67,2.684-4,4.027a5.037,5.037,0,0,1-7.449,0c-1.321-1.332-2.658-2.647-3.963-3.994-.3-.308-.448-.273-.731.012q-4.8,4.845-9.627,9.664C1603.3,553.867,1602.091,555.033,1600.8,556.3Zm-2.237-29.477v27.3c.438-.443.821-.833,1.207-1.22q6.055-6.073,12.117-12.139c.292-.292.308-.448,0-.732-.612-.563-1.179-1.173-1.77-1.758Q1604.327,532.54,1598.56,526.826Zm47.939-.079c-.19.052-.289.224-.411.347q-6.45,6.463-12.9,12.923c-.314.314-.311.461,0,.772q6.333,6.317,12.638,12.662c.207.208.407.422.675.7Z" transform="translate(-1595.333 -521.285)" fill="#fc4343"/>
    <path id="Trazado_629_-_Contorno" data-name="Trazado 629 - Contorno" d="M1619.693,560.02h-19.372a5.622,5.622,0,0,1-3.37-1.058,5.212,5.212,0,0,1-1.93-2.861,5.623,5.623,0,0,1-.188-1.495q0-5.789,0-11.578c0-5.514,0-11.217,0-16.825a5.263,5.263,0,0,1,5.426-5.415q22.244-.005,44.488,0a5.273,5.273,0,0,1,5.3,3.991l.157.034v31.2l-.192.089a1.378,1.378,0,0,1-.042.189,5.307,5.307,0,0,1-4.889,3.722c-.131,0-.261,0-.386,0Zm2.814-38.235-22.244,0a4.265,4.265,0,0,0-4.426,4.416c0,5.608,0,11.31,0,16.824q0,5.789,0,11.578a4.642,4.642,0,0,0,.153,1.232,4.285,4.285,0,0,0,4.335,3.182H1644.7c.124,0,.24,0,.357,0a4.307,4.307,0,0,0,3.963-3.018c0-.011.008-.042.012-.064a1,1,0,0,1,.178-.463V525.446a.73.73,0,0,1-.115-.381,4.269,4.269,0,0,0-4.346-3.278Zm22.788,35.018h-45.721l.873-.857c.413-.405.817-.8,1.214-1.188.855-.836,1.662-1.625,2.468-2.43,3.719-3.718,6.777-6.788,9.625-9.663a1.06,1.06,0,0,1,.727-.377,1.015,1.015,0,0,1,.717.369c.859.887,1.748,1.776,2.608,2.636.443.443.9.9,1.351,1.354a4.539,4.539,0,0,0,6.739,0q.736-.741,1.474-1.479c.831-.833,1.69-1.694,2.529-2.546a.955.955,0,0,1,.671-.348.94.94,0,0,1,.654.323c3.454,3.48,6.974,7.01,10.378,10.424l2.731,2.739c.039.039.072.076.115.123l.078.085Zm-43.273-1h40.945l-2.073-2.079c-3.385-3.395-6.885-6.9-10.32-10.366-.829.842-1.676,1.691-2.5,2.513q-.737.738-1.472,1.478a5.536,5.536,0,0,1-8.158,0c-.448-.451-.905-.909-1.348-1.351-.863-.862-1.755-1.754-2.619-2.647h0l-.016.016c-2.849,2.875-5.908,5.947-9.628,9.666-.81.809-1.619,1.6-2.476,2.438ZM1647,555.39l-.86-.893-.243-.254c-.155-.162-.289-.3-.425-.439l-2.018-2.025c-3.477-3.49-7.073-7.1-10.62-10.636a.908.908,0,0,1,0-1.48c3.009-3,6.06-6.062,9.011-9.021l3.891-3.9c.018-.018.041-.045.065-.073a1.138,1.138,0,0,1,.567-.4l.633-.175ZM1633.507,540.4l.032.033c3.548,3.539,7.144,7.148,10.622,10.638l1.838,1.844V527.891l-3.448,3.457c-2.951,2.96-6,6.02-9.012,9.023Zm-35.447,14.942V525.626l4.486,4.446,7.92,7.85c.2.2.407.409.6.609.373.381.76.774,1.153,1.137a1.01,1.01,0,0,1,.386.712,1.028,1.028,0,0,1-.372.742c-3.3,3.3-6.655,6.66-9.9,9.911l-2.22,2.227c-.255.256-.509.513-.778.786l-.427.433Zm1-27.319v24.884l.353-.355,2.22-2.227c3.241-3.252,6.592-6.615,9.9-9.913l.012-.012c-.411-.379-.806-.781-1.187-1.17-.194-.2-.395-.4-.594-.6l-7.919-7.85Zm23.463,17.938h0a2.662,2.662,0,0,1-1.862-.911l-7.666-7.689-12.084-12.119c-.06-.06-.127-.119-.22-.2-.054-.048-.116-.1-.186-.165l-.967-.871h45.941l-.873.857q-.648.636-1.273,1.245c-.924.9-1.8,1.754-2.667,2.626-3.74,3.745-7.54,7.556-11.214,11.241l-5.053,5.068A2.684,2.684,0,0,1,1622.523,545.963Zm-20.437-20.956,11.617,11.651,7.666,7.689a1.727,1.727,0,0,0,1.154.617h0a1.75,1.75,0,0,0,1.167-.625l5.053-5.067c3.675-3.686,7.474-7.5,11.215-11.242.875-.876,1.75-1.731,2.676-2.635l.4-.386Z" transform="translate(-1595.333 -521.285)" fill="#fc4343"/>
  </g>
</svg>
