<svg xmlns="http://www.w3.org/2000/svg" width="60.591" height="44.086" viewBox="0 0 60.591 44.086">
  <g id="pedidos-icon" transform="translate(0.649 0.65)">
    <path id="Path_613" data-name="Path 613" d="M1250.768,419.139c-.9,2.437-1.92,3.152-4.483,3.152-2.166,0-4.332.005-6.5,0-1.166,0-1.592-.426-1.592-1.577q-.005-11.6,0-23.194c0-1.174.416-1.6,1.565-1.6,2.33-.005,4.661.012,6.991-.007a3.716,3.716,0,0,1,3.6,2.116.6.6,0,0,0,.622.389c1.453-.013,2.907-.029,4.359.014.552.016.461-.3.461-.616q0-5.141,0-10.281c0-2.7,1.525-4.209,4.239-4.209q14.64,0,29.28,0c2.669,0,4.179,1.5,4.182,4.168,0,4.167.012,8.335-.011,12.5,0,.541.11.71.687.78a3.554,3.554,0,0,1,3.1,2.678,3.434,3.434,0,0,1-.954,3.83c-5.44,4.935-10.8,9.972-16.37,14.752-5.277,4.525-11.286,5.211-17.639,2.4C1258.436,422.73,1254.614,420.911,1250.768,419.139Zm21.948-8.8c.259.16.416.016.583-.065q8.623-4.2,17.251-8.393a.753.753,0,0,0,.453-.831c-.01-4.551,0-9.1-.009-13.653,0-1.1-.436-1.527-1.552-1.529-3.016-.006-6.032.021-9.047-.02-.664-.009-.746.229-.738.8q.045,3.289,0,6.58a1.248,1.248,0,0,1-2.089,1.092c-.8-.521-1.6-1.059-2.369-1.626a.758.758,0,0,0-1.063-.018c-.7.529-1.445.988-2.16,1.493a1.469,1.469,0,0,1-1.664.309,1.507,1.507,0,0,1-.7-1.546c.007-2.112-.028-4.223.022-6.333.015-.648-.191-.75-.777-.744-2.933.031-5.867.013-8.8.015-1.385,0-1.759.37-1.76,1.746,0,3.18.024,6.361-.011,9.541a9,9,0,0,0,.767,4.53c.2.378.352.52.765.517,2.331-.017,4.661-.014,6.991-.005a11.939,11.939,0,0,1,1.884.08A5.762,5.762,0,0,1,1272.716,410.338Zm-21.954-1.639c0,2.329.018,4.659-.014,6.989a.907.907,0,0,0,.633.976c4,1.823,7.971,3.721,11.991,5.5,5.618,2.486,10.784,1.658,15.4-2.392,2.676-2.351,5.29-4.774,7.93-7.165q3.839-3.477,7.674-6.958a1.3,1.3,0,0,0-.033-2.207,1.492,1.492,0,0,0-1.55.123c-5.4,2.637-10.857,5.166-16.18,7.951a15.474,15.474,0,0,1-8.764,2.027c-1.877-.164-3.78-.015-5.671-.038a1.261,1.261,0,1,1-.027-2.517c.218-.016.438-.007.657-.007,1.59,0,3.179.009,4.769,0a3.029,3.029,0,0,0,3.012-2,3.136,3.136,0,0,0-3.069-4.282c-2.932-.026-5.866-.035-8.8.011a1.57,1.57,0,0,1-1.708-1.2c-.163-.493-.3-.993-.456-1.49a1.431,1.431,0,0,0-1.529-1.1c-1.179.012-2.359.032-3.535-.01-.567-.02-.75.134-.742.723C1250.781,403.984,1250.762,406.341,1250.762,408.7Zm-10.064.4c0,3.342.013,6.684-.012,10.025,0,.541.146.691.685.68,1.78-.034,3.56-.007,5.341-.015,1.063,0,1.526-.443,1.527-1.476q.009-9.2,0-18.407c0-1.038-.46-1.481-1.517-1.487-1.726-.009-3.452.031-5.176-.019-.667-.019-.875.134-.866.838C1240.721,402.521,1240.7,405.808,1240.7,409.095ZM1277.173,391c0-1.674-.007-3.2.006-4.728,0-.329-.117-.42-.429-.417-1.4.012-2.794.007-4.191,0-.237,0-.436.023-.435.34,0,1.547,0,3.094,0,4.811.607-.42,1.07-.739,1.531-1.06a1.506,1.506,0,0,1,2.022.031C1276.1,390.328,1276.577,390.6,1277.173,391Z" transform="translate(-1238.193 -383.325)" fill="#fc4343"/>
    <path id="Trazado_613_-_Contorno" data-name="Trazado 613 - Contorno" d="M1269.633,426.76a18.806,18.806,0,0,1-7.589-1.725c-2.684-1.186-5.387-2.444-8-3.661-.959-.446-1.945-.9-2.925-1.358a4.782,4.782,0,0,1-1.593,2.145,5.349,5.349,0,0,1-3.239.781l-3.715,0c-1.075,0-1.96,0-2.785,0a1.951,1.951,0,0,1-2.24-2.227c0-8.24,0-16.349,0-23.194,0-1.532.7-2.247,2.214-2.25q1.356,0,2.716,0l1.663,0c1.02,0,1.849,0,2.607-.009h.049a4.335,4.335,0,0,1,4.136,2.469l.02.037h.012l.244,0c.655-.006,1.333-.012,2-.012.729,0,1.351.007,1.937.022v-1.534c0-2.854,0-5.805,0-8.707a4.842,4.842,0,0,1,1.294-3.576,4.9,4.9,0,0,1,3.594-1.283q14.64,0,29.28,0a4.438,4.438,0,0,1,4.832,4.817v.96c0,3.784.009,7.7-.013,11.546,0,.048,0,.085,0,.115.029.005.066.011.113.017a4.19,4.19,0,0,1,2.323,1,4.627,4.627,0,0,1,1.319,2.126,4.068,4.068,0,0,1-1.137,4.506c-1.53,1.388-3.078,2.807-4.577,4.18-3.831,3.511-7.793,7.142-11.807,10.584A16.236,16.236,0,0,1,1269.633,426.76Zm-19.232-8.505.639.294c1.186.546,2.388,1.106,3.551,1.647,2.609,1.214,5.306,2.469,7.979,3.65a17.519,17.519,0,0,0,7.063,1.614,14.974,14.974,0,0,0,9.889-3.918c4-3.428,7.951-7.051,11.775-10.556,1.5-1.374,3.05-2.795,4.582-4.185a2.778,2.778,0,0,0,.771-3.153,2.917,2.917,0,0,0-2.558-2.228,1.239,1.239,0,0,1-1.258-1.43c.022-3.844.017-7.755.013-11.536v-.96c0-2.3-1.224-3.518-3.533-3.519q-14.641,0-29.279,0c-2.346,0-3.587,1.232-3.589,3.56,0,2.9,0,5.852,0,8.706v1.574c0,.033,0,.065,0,.1a1.11,1.11,0,0,1-.26.87,1.082,1.082,0,0,1-.813.3h-.06c-.634-.019-1.3-.027-2.107-.027-.662,0-1.336.006-1.989.012l-.256,0a1.232,1.232,0,0,1-1.188-.742,3.046,3.046,0,0,0-2.98-1.764h-.039c-.762.006-1.594.009-2.617.009-1.109,0-2.219,0-3.328,0h-1.049a1.157,1.157,0,0,0-.75.165c-.076.077-.166.277-.167.785,0,6.844,0,14.952,0,23.193a1.168,1.168,0,0,0,.166.757,1.223,1.223,0,0,0,.778.17c.823,0,1.707,0,2.781,0l3.715,0a4.212,4.212,0,0,0,2.492-.544,4.319,4.319,0,0,0,1.381-2.183Zm19.129,5.961h0a15.885,15.885,0,0,1-6.42-1.459c-2.476-1.1-4.97-2.253-7.383-3.373-1.511-.7-3.074-1.427-4.615-2.129a1.543,1.543,0,0,1-1.013-1.576c.023-1.707.019-3.445.016-5.126q0-.927,0-1.855,0-.952,0-1.9c0-1.692.007-3.441-.016-5.158a1.418,1.418,0,0,1,.334-1.046,1.305,1.305,0,0,1,.967-.337l.115,0c.473.017.973.024,1.573.024.5,0,1-.005,1.489-.011l.476,0a2.08,2.08,0,0,1,2.124,1.56c.054.176.106.352.159.527.094.314.19.638.293.95a.925.925,0,0,0,1.043.756h.038c1.39-.022,2.846-.033,4.452-.033,1.3,0,2.69.007,4.362.022a4.016,4.016,0,0,1,3.33,1.731,3.8,3.8,0,0,1-3.274,5.85c-.575,0-1.2.007-1.963.007l-2.645,0h-.166l-.354,0c-.1,0-.183,0-.255.008-.725.054-.72.462-.718.615,0,.379.261.6.7.6l.419,0c.523,0,1.059-.011,1.577-.021s1.066-.021,1.6-.021c.819,0,1.494.026,2.122.08.381.033.766.05,1.142.05a15.371,15.371,0,0,0,7.264-2.005c3.749-1.962,7.623-3.825,11.37-5.627,1.584-.762,3.222-1.549,4.826-2.333a2.821,2.821,0,0,1,1.244-.362,1.763,1.763,0,0,1,.93.268,1.857,1.857,0,0,1,.926,1.419,2.218,2.218,0,0,1-.794,1.823c-1.927,1.757-3.893,3.536-5.794,5.257l-1.882,1.7c-.805.729-1.622,1.474-2.412,2.194-1.8,1.642-3.662,3.34-5.526,4.977A14.478,14.478,0,0,1,1269.53,424.216ZM1251.4,401.553c0,.019,0,.041,0,.065.024,1.728.02,3.482.016,5.179q0,.951,0,1.9,0,.926,0,1.852c0,1.686.007,3.429-.016,5.145,0,.233.005.263.253.376,1.545.7,3.11,1.43,4.623,2.133,2.407,1.117,4.9,2.273,7.361,3.363a14.6,14.6,0,0,0,5.894,1.348h0a13.219,13.219,0,0,0,8.809-3.634c1.854-1.629,3.712-3.323,5.508-4.961.791-.721,1.608-1.467,2.415-2.2l1.882-1.7c1.9-1.719,3.865-3.5,5.79-5.253a.952.952,0,0,0,.375-.738A.575.575,0,0,0,1294,404a.464.464,0,0,0-.252-.078,1.775,1.775,0,0,0-.673.23c-1.609.786-3.248,1.574-4.834,2.337-3.737,1.8-7.6,3.655-11.331,5.607a16.612,16.612,0,0,1-7.866,2.153c-.415,0-.837-.019-1.255-.055-.59-.051-1.229-.075-2.009-.075-.522,0-1.058.011-1.576.021s-1.067.021-1.6.021l-.434,0a1.909,1.909,0,1,1-.067-3.815c.1-.008.215-.011.351-.011l.354,0h.166l2.645,0c.761,0,1.382,0,1.953-.007a2.5,2.5,0,0,0,2.2-3.827,2.683,2.683,0,0,0-2.261-1.154c-1.668-.015-3.051-.022-4.35-.022-1.6,0-3.049.011-4.432.032h-.058a2.207,2.207,0,0,1-2.277-1.648c-.109-.33-.209-.664-.3-.987-.051-.172-.1-.345-.156-.516a.793.793,0,0,0-.882-.642h-.02l-.442,0c-.492.005-1,.011-1.5.011-.616,0-1.13-.008-1.619-.025h-.069Zm-10.08,18.9a1.3,1.3,0,0,1-.957-.327,1.354,1.354,0,0,1-.326-1.008c.019-2.491.016-5.026.014-7.477q0-1.271,0-2.543,0-1.311,0-2.622c0-2.371.009-4.822-.021-7.23a1.537,1.537,0,0,1,.353-1.142,1.423,1.423,0,0,1,1.062-.356l.119,0c.6.017,1.261.025,2.079.025q.628,0,1.257,0c.608,0,1.217-.006,1.825,0a1.929,1.929,0,0,1,2.163,2.136c.006,6.107.006,12.3,0,18.408a1.938,1.938,0,0,1-2.174,2.125c-.653,0-1.306,0-1.96,0l-1.189,0c-.876,0-1.549.005-2.183.017Zm.017-21.4c0,.041-.006.1-.005.178.03,2.417.025,4.873.021,7.249q0,1.31,0,2.62,0,1.271,0,2.542c0,2.454.005,4.992-.014,7.488,0,.009,0,.017,0,.025h.022c.643-.012,1.323-.018,2.208-.018l1.192,0c.65,0,1.3,0,1.95,0,.752,0,.879-.209.88-.827.006-6.106.006-12.3,0-18.405,0-.669-.171-.834-.87-.837-.6,0-1.209,0-1.813,0q-.632,0-1.263,0c-.83,0-1.5-.008-2.116-.026C1241.45,399.044,1241.38,399.045,1241.335,399.048Zm31.606,12.012h0a1.069,1.069,0,0,1-.567-.169l-.492-.3.245-.524a5.072,5.072,0,0,0-.119-4.548,4.864,4.864,0,0,0-3.419-2.6,7.7,7.7,0,0,0-1.223-.072h-.558c-1.312,0-2.377-.007-3.351-.007-1.324,0-2.513,0-3.633.012h-.016a1.36,1.36,0,0,1-1.327-.861,9.683,9.683,0,0,1-.843-4.843c.024-2.148.019-4.334.014-6.449,0-1.011,0-2.056,0-3.085a2.523,2.523,0,0,1,.554-1.85,2.56,2.56,0,0,1,1.856-.546h.5q2.052,0,4.1,0c1.695,0,2.988-.006,4.192-.018h.053a1.4,1.4,0,0,1,1.055.343,1.416,1.416,0,0,1,.326,1.066c-.033,1.394-.028,2.817-.024,4.193,0,.7,0,1.418,0,2.128,0,.667.108.838.356.971a.559.559,0,0,0,.263.076,1.462,1.462,0,0,0,.719-.343c.289-.2.584-.4.87-.592.445-.3.866-.579,1.272-.887a1.478,1.478,0,0,1,.906-.341,1.589,1.589,0,0,1,.936.354c.683.5,1.448,1.028,2.337,1.6a1.085,1.085,0,0,0,.58.207c.447,0,.5-.533.505-.763.028-2.135.027-4.342,0-6.562a1.454,1.454,0,0,1,.33-1.111,1.384,1.384,0,0,1,1.02-.346h.047c1.173.016,2.433.023,4.087.023l1.98,0q1.486,0,2.973,0a1.929,1.929,0,0,1,2.2,2.179q0,2.908,0,5.816c0,2.568,0,5.224.006,7.837a1.4,1.4,0,0,1-.82,1.418c-4.56,2.206-9.191,4.463-13.669,6.647l-3.58,1.745-.051.027A1.181,1.181,0,0,1,1272.941,411.06Zm-5.576-9.518a8.815,8.815,0,0,1,1.435.09,6.169,6.169,0,0,1,4.358,3.277,6.373,6.373,0,0,1,.589,4.422l2.846-1.387c4.479-2.184,9.111-4.441,13.673-6.648a.449.449,0,0,0,.074-.043,1.05,1.05,0,0,0,.012-.2c-.005-2.613-.006-5.27-.006-7.839q0-2.907,0-5.815a.7.7,0,0,0-.9-.88q-1.483,0-2.968,0l-1.982,0c-1.659,0-2.925-.007-4.1-.023h-.078c0,.036,0,.081,0,.138.031,2.231.031,4.451,0,6.6a1.871,1.871,0,0,1-1.8,2.045,2.392,2.392,0,0,1-1.288-.416c-.911-.591-1.7-1.13-2.4-1.648a.706.706,0,0,0-.164-.1.542.542,0,0,0-.121.075c-.437.332-.894.637-1.336.932-.279.186-.568.379-.843.574a2.55,2.55,0,0,1-1.469.581,1.849,1.849,0,0,1-.876-.229,2.156,2.156,0,0,1-1.044-2.122c0-.706,0-1.424,0-2.119,0-1.384-.009-2.816.024-4.227,0-.03,0-.056,0-.078h-.121c-1.209.013-2.506.018-4.206.018q-2.052,0-4.1,0h-.5c-.638,0-.864.092-.942.169s-.168.3-.169.927c0,1.027,0,2.071,0,3.081,0,2.119.01,4.31-.015,6.466a8.374,8.374,0,0,0,.69,4.217,1.243,1.243,0,0,0,.1.169.629.629,0,0,0,.077,0h.007c1.123-.008,2.314-.012,3.642-.012.975,0,2.042,0,3.356.007h.553Zm4.11-9.29v-2.578c0-1.2,0-2.337,0-3.471a.967.967,0,0,1,.268-.712,1.092,1.092,0,0,1,.817-.28h.68l1.464,0c.792,0,1.441,0,2.042-.008h.019a.975.975,0,0,1,1.065,1.074c-.01,1.116-.008,2.23-.007,3.411,0,.428,0,.864,0,1.31v1.223l-1.014-.685c-.191-.129-.37-.244-.543-.356a10.306,10.306,0,0,1-1-.7.933.933,0,0,0-.584-.256,1.2,1.2,0,0,0-.653.258c-.339.236-.679.471-1.076.745Zm3.206-3.324a2.2,2.2,0,0,1,1.412.554c.131.109.274.212.428.317q0-.053,0-.105c0-1.1,0-2.142.005-3.184-.541,0-1.127.006-1.824.006l-1.466,0h-.462c0,1.034,0,2.071,0,3.163v.1l.51-.354A2.415,2.415,0,0,1,1274.682,388.928Z" transform="translate(-1238.193 -383.325)" fill="#fc4343"/>
    <path id="Path_614" data-name="Path 614" d="M1300.659,409.935c-.628,0-1.257.022-1.883,0a1.168,1.168,0,0,1-1.228-1.242,1.122,1.122,0,0,1,1.207-1.243c1.254-.031,2.511-.029,3.766,0a1.183,1.183,0,0,1,1.248,1.226,1.2,1.2,0,0,1-1.227,1.259C1301.916,409.958,1301.287,409.935,1300.659,409.935Z" transform="translate(-1257.275 -391.072)" fill="#fc4343"/>
    <path id="Trazado_614_-_Contorno" data-name="Trazado 614 - Contorno" d="M1301.816,410.594c-.2,0-.395,0-.586,0s-.382,0-.571,0-.373,0-.56,0-.4,0-.6,0c-.286,0-.524,0-.748-.014a1.812,1.812,0,0,1-1.849-1.887,1.772,1.772,0,0,1,1.841-1.9c.616-.015,1.255-.023,1.9-.023.614,0,1.253.007,1.9.021a1.893,1.893,0,0,1,.039,3.784C1302.347,410.589,1302.106,410.594,1301.816,410.594Zm-1.158-1.309c.2,0,.4,0,.587,0s.382,0,.571,0c.269,0,.49,0,.695-.014a.561.561,0,0,0,.608-.605c0-.376-.209-.572-.612-.581-.635-.014-1.264-.021-1.869-.021-.633,0-1.261.008-1.866.023-.421.01-.576.17-.573.589,0,.4.184.578.606.6.2.009.424.013.691.013.2,0,.393,0,.589,0S1300.468,409.285,1300.659,409.285Z" transform="translate(-1257.275 -391.072)" fill="#fc4343"/>
    <path id="Path_615" data-name="Path 615" d="M1248.143,430.895a1.3,1.3,0,0,1-1.229,1.278,1.258,1.258,0,0,1-1.271-1.3,1.24,1.24,0,0,1,1.25-1.232A1.3,1.3,0,0,1,1248.143,430.895Z" transform="translate(-1240.588 -398.214)" fill="#fc4343"/>
    <path id="Trazado_615_-_Contorno" data-name="Trazado 615 - Contorno" d="M1246.873,428.988h.03a1.918,1.918,0,0,1,.033,3.834h-.065a1.838,1.838,0,0,1-1.311-.55,1.963,1.963,0,0,1-.568-1.408A1.89,1.89,0,0,1,1246.873,428.988Zm0,2.536h.019a.649.649,0,0,0,.6-.623.656.656,0,0,0-.611-.612h-.009a.594.594,0,0,0-.58.586.672.672,0,0,0,.19.484A.547.547,0,0,0,1246.872,431.524Z" transform="translate(-1240.588 -398.214)" fill="#fc4343"/>
  </g>
</svg>
