<svg xmlns="http://www.w3.org/2000/svg" width="52.758" height="51.974" viewBox="0 0 52.758 51.974">
  <g id="propias-reglas-icon" transform="translate(0.75 0.75)">
    <path id="Path_602" data-name="Path 602" d="M-274.3-177.685a2.394,2.394,0,0,1,1.6-1.051c.513-.132,1.01-.325,1.516-.484a1.358,1.358,0,0,1,1.83.8,1.344,1.344,0,0,1-.959,1.748c-.548.191-1.1.366-1.653.547-1.282.421-1.54.348-2.336-.659Z" transform="translate(274.297 208.726)" fill="#fc4343"/>
    <path id="Trazado_602_-_Contorno" data-name="Trazado 602 - Contorno" d="M-270.607-180.064a2.033,2.033,0,0,1,1.966,1.4,2.092,2.092,0,0,1-1.42,2.7c-.4.141-.815.274-1.211.4l-.455.148a4.293,4.293,0,0,1-1.307.279,2.357,2.357,0,0,1-1.851-1.186l-.162-.2v-1.367l.1-.177a3.169,3.169,0,0,1,2.06-1.4c.3-.078.606-.181.926-.29.179-.061.364-.124.552-.183A2.655,2.655,0,0,1-270.607-180.064Zm-2.427,3.432a3.5,3.5,0,0,0,.839-.2l.46-.15c.389-.126.791-.257,1.18-.393.207-.072.671-.295.5-.794a.531.531,0,0,0-.55-.391,1.162,1.162,0,0,0-.347.058c-.171.054-.34.112-.519.173-.333.113-.677.23-1.036.323a1.839,1.839,0,0,0-1.039.556v.4C-273.2-176.632-273.115-176.632-273.034-176.632Z" transform="translate(274.297 208.726)" fill="#fc4343"/>
    <path id="Path_603" data-name="Path 603" d="M-206.874-381.73a3.37,3.37,0,0,1-1.1,2.484q-3.91,3.8-7.816,7.61a1.067,1.067,0,0,0-.372,1.056c.641,3.641,1.257,7.287,1.87,10.933a3.192,3.192,0,0,1-1.293,3.257,3.138,3.138,0,0,1-3.482.345c-1.607-.8-3.187-1.657-4.777-2.491-1.694-.889-3.391-1.77-5.075-2.676a1.152,1.152,0,0,0-1.212-.006q-4.824,2.564-9.671,5.086a3.374,3.374,0,0,1-5.018-2.6,8.639,8.639,0,0,1,.3-2.472c.529-3.17,1.083-6.336,1.639-9.5a1.006,1.006,0,0,0-.421-.949c-2.569-2.5-5.128-5.015-7.709-7.5a3.328,3.328,0,0,1-1.018-3.629,3.339,3.339,0,0,1,3-2.346c3.564-.492,7.12-1.041,10.683-1.548a1.078,1.078,0,0,0,.9-.67c1.589-3.24,3.2-6.47,4.783-9.71a3.3,3.3,0,0,1,3.145-2.066,3.293,3.293,0,0,1,3.105,2.049c1.583,3.224,3.187,6.437,4.764,9.665a1.181,1.181,0,0,0,1.009.74c3.613.5,7.221,1.044,10.831,1.568A3.374,3.374,0,0,1-206.874-381.73Zm-10.063,22.595c-.006-.035-.018-.1-.029-.166-.611-3.545-1.2-7.094-1.843-10.633a3.782,3.782,0,0,1,1.192-3.7c1.436-1.345,2.826-2.74,4.235-4.114,1.17-1.141,2.336-2.287,3.512-3.422a.735.735,0,0,0,.248-.806.667.667,0,0,0-.655-.452c-.1-.007-.2-.041-.295-.055-3.314-.479-6.621-1.016-9.945-1.412a4.4,4.4,0,0,1-3.8-2.761c-1.431-3.093-3-6.123-4.5-9.182-.153-.311-.312-.592-.72-.589s-.565.286-.714.6c-.251.525-.516,1.043-.774,1.565-1.339,2.714-2.688,5.423-4.012,8.144a3.5,3.5,0,0,1-2.735,2.087c-1.68.257-3.364.486-5.045.731-2.011.293-4.023.582-6.032.888a.656.656,0,0,0-.534,1.02,1.987,1.987,0,0,0,.3.329q3.869,3.774,7.741,7.544a3.5,3.5,0,0,1,1.111,3.3c-.625,3.593-1.224,7.191-1.847,10.785-.061.354-.085.665.229.9s.625.105.931-.056c3.179-1.673,6.366-3.33,9.535-5.022a3.629,3.629,0,0,1,3.661-.021c2.082,1.114,4.178,2.2,6.269,3.3,1.148.6,2.292,1.216,3.445,1.81A.687.687,0,0,0-216.937-359.135Z" transform="translate(255.166 399.131)" fill="#fc4343"/>
    <path id="Trazado_603_-_Contorno" data-name="Trazado 603 - Contorno" d="M-229.535-399.881h.017a4.051,4.051,0,0,1,3.776,2.468c.679,1.382,1.373,2.785,2.044,4.142.895,1.809,1.82,3.679,2.721,5.524a.454.454,0,0,0,.439.327c2.554.357,5.148.737,7.656,1.1l3.179.465a4.128,4.128,0,0,1,3.579,4.125,4.118,4.118,0,0,1-1.329,3.018q-1.572,1.529-3.141,3.06c-1.531,1.493-3.114,3.036-4.675,4.551-.183.177-.183.234-.156.388.637,3.62,1.249,7.239,1.871,10.938a3.922,3.922,0,0,1-1.579,3.979,3.987,3.987,0,0,1-2.44.871,4.087,4.087,0,0,1-1.83-.452c-1.163-.579-2.326-1.2-3.451-1.791q-.67-.355-1.34-.708l-1.136-.595c-1.3-.678-2.635-1.379-3.946-2.085a.527.527,0,0,0-.256-.086.565.565,0,0,0-.248.082c-3.271,1.738-6.527,3.45-9.676,5.089a4.37,4.37,0,0,1-2.033.509,4.1,4.1,0,0,1-4.075-3.684,6.221,6.221,0,0,1,.187-2.08c.044-.21.085-.409.118-.606.528-3.167,1.078-6.3,1.641-9.508.008-.045.012-.07-.205-.282q-1.277-1.244-2.552-2.49c-1.686-1.647-3.43-3.349-5.154-5.012a4.077,4.077,0,0,1-1.211-4.4,4.1,4.1,0,0,1,3.608-2.858c2.038-.281,4.11-.587,6.113-.882,1.5-.221,3.043-.449,4.566-.665.177-.025.234-.058.332-.258.76-1.551,1.538-3.124,2.289-4.647.819-1.659,1.666-3.374,2.494-5.063A4.063,4.063,0,0,1-229.535-399.881Zm11.962,43.46a2.524,2.524,0,0,0,1.534-.566,2.441,2.441,0,0,0,1.006-2.535c-.622-3.7-1.234-7.313-1.87-10.927a1.815,1.815,0,0,1,.589-1.724c1.56-1.514,3.142-3.057,4.673-4.549q1.57-1.531,3.142-3.061a2.637,2.637,0,0,0,.875-1.949,2.63,2.63,0,0,0-.637-1.745,2.707,2.707,0,0,0-1.658-.889l-3.181-.465c-2.506-.367-5.1-.747-7.646-1.1a1.93,1.93,0,0,1-1.579-1.154c-.9-1.842-1.824-3.71-2.718-5.518-.672-1.358-1.366-2.762-2.045-4.146a2.544,2.544,0,0,0-2.435-1.63h-.012a2.557,2.557,0,0,0-2.456,1.646c-.828,1.692-1.676,3.408-2.5,5.068-.751,1.521-1.528,3.094-2.288,4.643a1.829,1.829,0,0,1-1.468,1.082c-1.52.216-3.065.444-4.559.664-2.007.3-4.082.6-6.127.884a2.6,2.6,0,0,0-2.386,1.834,2.571,2.571,0,0,0,.825,2.858c1.727,1.666,3.473,3.371,5.16,5.019q1.275,1.245,2.551,2.488a1.749,1.749,0,0,1,.636,1.617c-.562,3.2-1.111,6.334-1.638,9.5-.038.227-.084.45-.129.666a5.019,5.019,0,0,0-.167,1.592,2.691,2.691,0,0,0,.882,1.729,2.575,2.575,0,0,0,1.7.638,2.886,2.886,0,0,0,1.341-.34c3.146-1.637,6.4-3.347,9.665-5.083a2,2,0,0,1,.952-.257,2.013,2.013,0,0,1,.967.265c1.3.7,2.639,1.4,3.931,2.077l1.137.6q.674.353,1.345.71c1.117.591,2.272,1.2,3.418,1.774A2.6,2.6,0,0,0-217.573-356.421Zm-11.962-40.761a1.527,1.527,0,0,1,1.388,1.008c.462.939.938,1.892,1.4,2.814,1.039,2.081,2.114,4.233,3.11,6.384a3.668,3.668,0,0,0,3.211,2.331c2.366.281,4.757.639,7.069.986.949.142,1.93.289,2.895.428.072.01.135.025.185.036l.062.013a1.406,1.406,0,0,1,1.308.966,1.47,1.47,0,0,1-.439,1.579c-.815.787-1.64,1.593-2.438,2.373l-1.072,1.047c-.414.4-.833.816-1.238,1.214-.977.961-1.988,1.955-3.008,2.91a3.035,3.035,0,0,0-.966,3.024c.457,2.522.895,5.089,1.318,7.571q.262,1.535.525,3.069c.01.058.02.115.026.15l.014.077v.066a1.408,1.408,0,0,1-1.414,1.465,1.631,1.631,0,0,1-.751-.188c-.8-.412-1.61-.84-2.392-1.254l-1.059-.559-1.9-1c-1.435-.752-2.919-1.529-4.373-2.307a3.028,3.028,0,0,0-1.447-.4,3.169,3.169,0,0,0-1.507.418c-2.18,1.165-4.405,2.331-6.557,3.459q-1.492.782-2.982,1.565a1.929,1.929,0,0,1-.91.274,1.341,1.341,0,0,1-.822-.283,1.544,1.544,0,0,1-.516-1.628c.3-1.706.591-3.442.876-5.121.316-1.857.642-3.776.971-5.664a2.763,2.763,0,0,0-.895-2.635c-2.037-1.979-4.1-3.995-6.1-5.945l-1.64-1.6-.054-.052a2.176,2.176,0,0,1-.358-.41,1.376,1.376,0,0,1-.113-1.328,1.5,1.5,0,0,1,1.166-.837c1.686-.256,3.4-.505,5.058-.746l.979-.142q.9-.131,1.8-.258c1.062-.151,2.16-.307,3.237-.472a2.744,2.744,0,0,0,2.174-1.674c.958-1.969,1.945-3.964,2.9-5.893q.558-1.127,1.115-2.255.138-.28.278-.559c.163-.327.332-.665.492-1a1.527,1.527,0,0,1,1.386-1.024Zm19.123,15.488c-.08-.011-.148-.026-.2-.039l-.065-.014c-.968-.14-1.951-.287-2.9-.429-2.3-.345-4.681-.7-7.024-.98a5.137,5.137,0,0,1-4.395-3.19c-.986-2.131-2.056-4.272-3.09-6.343-.461-.924-.939-1.879-1.4-2.822-.009-.018-.025-.05-.043-.085-.018.035-.034.068-.042.086-.165.344-.336.688-.5,1.02q-.138.276-.275.552-.557,1.129-1.115,2.256c-.953,1.927-1.939,3.92-2.9,5.885a4.235,4.235,0,0,1-3.3,2.5c-1.084.166-2.187.323-3.253.474q-.9.128-1.8.258l-.98.142c-1.625.236-3.3.48-4.956.73l.021.02.068.065,1.641,1.6c2,1.949,4.063,3.965,6.1,5.942a4.254,4.254,0,0,1,1.327,3.968c-.328,1.885-.654,3.8-.97,5.658-.286,1.68-.581,3.418-.877,5.126-.007.038-.012.071-.016.1l.087-.045q1.492-.785,2.985-1.567c2.149-1.127,4.371-2.291,6.546-3.453a4.689,4.689,0,0,1,2.214-.595,4.548,4.548,0,0,1,2.154.574c1.448.775,2.929,1.551,4.361,2.3l1.9,1,1.062.561c.763.4,1.551.82,2.33,1.221q-.261-1.513-.518-3.028c-.423-2.479-.86-5.042-1.316-7.556a4.511,4.511,0,0,1,1.417-4.386c1.007-.943,2.011-1.93,2.981-2.885.407-.4.827-.813,1.243-1.219l1.071-1.046C-212.043-380.111-211.224-380.911-210.412-381.695Z" transform="translate(255.166 399.131)" fill="#fc4343"/>
    <path id="Path_604" data-name="Path 604" d="M-90.329-57.618c0,.45.035.9-.008,1.349a1.287,1.287,0,0,1-1.321,1.177,1.282,1.282,0,0,1-1.321-1.177,16.893,16.893,0,0,1,0-2.8,1.276,1.276,0,0,1,1.294-1.15,1.278,1.278,0,0,1,1.341,1.152c.048.478.009.966.009,1.449Z" transform="translate(117.289 105.567)" fill="#fc4343"/>
    <path id="Trazado_604_-_Contorno" data-name="Trazado 604 - Contorno" d="M-91.658-54.343h0a2.04,2.04,0,0,1-2.068-1.868,17.7,17.7,0,0,1,0-2.923,2.035,2.035,0,0,1,2.031-1.835h.031a2.024,2.024,0,0,1,2.066,1.828,8.717,8.717,0,0,1,.02,1.093c0,.075,0,.148,0,.219v.211c0,.13,0,.261.007.4A8.322,8.322,0,0,1-89.59-56.2,2.034,2.034,0,0,1-91.658-54.343Zm0-5.126h-.011a.532.532,0,0,0-.557.465,16.192,16.192,0,0,0,0,2.674.535.535,0,0,0,.573.487.539.539,0,0,0,.575-.5,5.148,5.148,0,0,0,.017-.559h-.013l0-.717c0-.159,0-.315.008-.467a7.481,7.481,0,0,0-.013-.907A.534.534,0,0,0-91.661-59.469Z" transform="translate(117.289 105.567)" fill="#fc4343"/>
    <path id="Path_605" data-name="Path 605" d="M76.25-177.322a1.34,1.34,0,0,1-1.7,1.314c-.813-.231-1.619-.495-2.414-.781a1.342,1.342,0,0,1-.855-1.649,1.307,1.307,0,0,1,1.6-.92c.88.233,1.746.53,2.6.847A1.259,1.259,0,0,1,76.25-177.322Z" transform="translate(-24.992 208.804)" fill="#fc4343"/>
    <path id="Trazado_605_-_Contorno" data-name="Trazado 605 - Contorno" d="M74.916-175.206a2.1,2.1,0,0,1-.573-.08c-.794-.226-1.6-.486-2.463-.8a2.083,2.083,0,0,1-1.321-2.565,2.056,2.056,0,0,1,1.975-1.506,2.113,2.113,0,0,1,.54.071c.785.208,1.633.484,2.669.869A2.014,2.014,0,0,1,77-177.331a2.088,2.088,0,0,1-.606,1.5A2.064,2.064,0,0,1,74.916-175.206Zm-2.382-3.448a.567.567,0,0,0-.535.427.592.592,0,0,0,.389.733c.83.3,1.6.549,2.365.765a.574.574,0,0,0,.573-.152.6.6,0,0,0,.173-.432.528.528,0,0,0-.279-.494c-.99-.368-1.794-.63-2.531-.825A.612.612,0,0,0,72.534-178.654Z" transform="translate(-24.992 208.804)" fill="#fc4343"/>
    <path id="Path_606" data-name="Path 606" d="M12.685-385.719a1.3,1.3,0,0,1-.295.826c-.438.607-.871,1.216-1.32,1.814a1.341,1.341,0,0,1-1.957.382,1.344,1.344,0,0,1-.218-1.985c.463-.65.924-1.3,1.418-1.928a1.258,1.258,0,0,1,1.478-.414A1.327,1.327,0,0,1,12.685-385.719Z" transform="translate(29.286 388.72)" fill="#fc4343"/>
    <path id="Trazado_606_-_Contorno" data-name="Trazado 606 - Contorno" d="M11.307-387.861a2.18,2.18,0,0,1,.737.132,2.061,2.061,0,0,1,1.39,1.983A2.018,2.018,0,0,1,13-384.454l-.28.388c-.34.472-.691.961-1.048,1.437a2.239,2.239,0,0,1-1.771.957,2.054,2.054,0,0,1-1.237-.426,2.1,2.1,0,0,1-.379-3.02l.091-.127c.431-.6.876-1.23,1.349-1.83A1.989,1.989,0,0,1,11.307-387.861ZM9.9-383.172a.759.759,0,0,0,.571-.357c.348-.464.695-.947,1.03-1.413l.281-.391a.654.654,0,0,0,.155-.335l0-.045a.58.58,0,0,0-.4-.606.687.687,0,0,0-.231-.044.5.5,0,0,0-.405.217c-.45.571-.885,1.181-1.3,1.771l-.091.127c-.279.392-.26.711.057.949A.561.561,0,0,0,9.9-383.172Z" transform="translate(29.286 388.72)" fill="#fc4343"/>
    <path id="Path_607" data-name="Path 607" d="M-204.927-385.837a1.325,1.325,0,0,1,.837-1.243,1.239,1.239,0,0,1,1.458.319,27.617,27.617,0,0,1,1.666,2.3,1.277,1.277,0,0,1-.42,1.717,1.27,1.27,0,0,1-1.721-.175c-.6-.734-1.126-1.521-1.675-2.292A1.051,1.051,0,0,1-204.927-385.837Z" transform="translate(214.209 388.786)" fill="#fc4343"/>
    <path id="Trazado_607_-_Contorno" data-name="Trazado 607 - Contorno" d="M-203.549-387.937a1.906,1.906,0,0,1,1.5.709,27.967,27.967,0,0,1,1.711,2.361,2.024,2.024,0,0,1-.621,2.735,2.157,2.157,0,0,1-1.226.39,1.928,1.928,0,0,1-1.508-.707c-.483-.595-.924-1.223-1.351-1.831q-.176-.25-.353-.5a1.769,1.769,0,0,1-.285-1.056,2.086,2.086,0,0,1,1.307-1.94A2.186,2.186,0,0,1-203.549-387.937Zm1.368,4.7a.644.644,0,0,0,.365-.118.538.538,0,0,0,.219-.7,26.523,26.523,0,0,0-1.621-2.235.4.4,0,0,0-.331-.144.7.7,0,0,0-.26.053.576.576,0,0,0-.368.55.8.8,0,0,0,.015.2q.176.247.35.5c.412.587.838,1.193,1.288,1.748A.428.428,0,0,0-202.181-383.242Z" transform="translate(214.209 388.786)" fill="#fc4343"/>
  </g>
</svg>
