<svg xmlns="http://www.w3.org/2000/svg" width="54.818" height="49.642" viewBox="0 0 54.818 49.642">
  <g id="rapida-icon" transform="translate(5.259)">
    <path id="Path_640" data-name="Path 640" d="M1820.359,342.864a20.178,20.178,0,0,1,7.683,1.464,20.633,20.633,0,0,1-4.2,39.518c-.667.111-1.348.15-2.007.292a2.058,2.058,0,0,0,.715,4.04,19.514,19.514,0,0,0,2.443-.313,24.7,24.7,0,0,0,19.83-28.387,23.536,23.536,0,0,0-9.891-16A24.792,24.792,0,0,0,1797.1,355.06a21.956,21.956,0,0,0-1.374,6.3,2.025,2.025,0,0,0,1.865,2.143,2.047,2.047,0,0,0,2.212-1.725c.1-.587.154-1.182.255-1.769A20.609,20.609,0,0,1,1820.359,342.864Zm-2.014,15.49h0c0,1.676.006,3.353,0,5.03a2.062,2.062,0,0,0,.567,1.543q3.123,3.135,6.26,6.256a1.894,1.894,0,0,0,1.876.5,2.049,2.049,0,0,0,.94-3.5c-1.729-1.758-3.481-3.495-5.233-5.231a.913.913,0,0,1-.3-.716c.011-2.918.007-5.836.005-8.754a2.931,2.931,0,0,0-.075-.863,2.075,2.075,0,0,0-2.22-1.48,2.031,2.031,0,0,0-1.808,2C1818.331,354.872,1818.345,356.613,1818.345,358.354Z" transform="translate(-1795.624 -338.642)" fill="#fc4343"/>
    <path id="Path_641" data-name="Path 641" d="M1795.561,413.97c.122-.026.114-.146.15-.226a2.032,2.032,0,0,1,1.974-1.294q8.212-.014,16.424,0a2.055,2.055,0,0,1,2.046,1.591,2.112,2.112,0,0,1-1.077,2.322c-.178.094-.407.045-.548.218h-17.42a2.8,2.8,0,0,1-1.548-1.548Z" transform="translate(-1800.82 -366.941)" fill="#fc4343"/>
    <path id="Path_642" data-name="Path 642" d="M1795.561,400.614a2.336,2.336,0,0,1,1.481-1.456,2.528,2.528,0,0,1,.617-.089q6.162-.007,12.324,0a2.062,2.062,0,0,1,.691,4.014,2.942,2.942,0,0,1-.953.122q-5.9,0-11.792,0a2.171,2.171,0,0,1-2.271-1.438c-.015-.037-.064-.061-.1-.091Z" transform="translate(-1792.561 -361.811)" fill="#fc4343"/>
    <path id="Path_643" data-name="Path 643" d="M1795.561,387.256c.13-.052.1-.19.149-.287a1.974,1.974,0,0,1,1.88-1.279q4.161-.018,8.321,0a2.049,2.049,0,0,1,0,4.1c-2.773.017-5.547.011-8.321,0a2.166,2.166,0,0,1-2.029-1.567Z" transform="translate(-1797.561 -355.679)" fill="#fc4343"/>
    <path id="Path_644" data-name="Path 644" d="M1820.359,342.864a20.609,20.609,0,0,0-20.3,17.145c-.1.587-.153,1.182-.255,1.769a2.047,2.047,0,0,1-2.212,1.725,2.025,2.025,0,0,1-1.865-2.143,21.956,21.956,0,0,1,1.374-6.3,24.792,24.792,0,0,1,37.832-11.585,23.536,23.536,0,0,1,9.891,16A24.7,24.7,0,0,1,1825,387.865a19.514,19.514,0,0,1-2.443.313,2.058,2.058,0,0,1-.715-4.04c.66-.142,1.34-.181,2.007-.292a20.633,20.633,0,0,0,4.2-39.518A20.178,20.178,0,0,0,1820.359,342.864Z" transform="translate(-1795.624 -338.642)" fill="#fc4343"/>
    <path id="Path_645" data-name="Path 645" d="M1832.409,366.113c0-1.741-.015-3.482.006-5.223a2.031,2.031,0,0,1,1.808-2,2.075,2.075,0,0,1,2.22,1.48,2.935,2.935,0,0,1,.075.863c0,2.918.006,5.836-.005,8.754a.913.913,0,0,0,.3.716c1.752,1.737,3.5,3.473,5.233,5.231a2.049,2.049,0,0,1-.94,3.5,1.894,1.894,0,0,1-1.876-.5q-3.145-3.112-6.26-6.256a2.062,2.062,0,0,1-.567-1.543c.009-1.676,0-3.353,0-5.03Z" transform="translate(-1809.688 -346.401)" fill="#fc4343"/>
  </g>
</svg>
