<svg xmlns="http://www.w3.org/2000/svg" width="52.708" height="57.43" viewBox="0 0 52.708 57.43">
  <g id="soporte-icon" transform="translate(0.65 0.65)">
    <path id="Path_639" data-name="Path 639" d="M1821.116,492.451c-.1-.2-.315-.153-.475-.193a6.846,6.846,0,1,1,8.147-8.52c.114.406.268.534.695.507a10.967,10.967,0,0,0,8.252-4.342.872.872,0,0,0,.076-.184,5.6,5.6,0,0,0-1.292-.053,1.334,1.334,0,0,1-1.478-1.494q0-8.384,0-16.768a2.7,2.7,0,0,1,.147-.968,1.258,1.258,0,0,1,1.283-.9c.433-.014,1,.194,1.264-.088s.074-.837.08-1.271a20.817,20.817,0,0,0-.67-6.778c-2.126-6.579-6.544-10.71-13.344-11.984a16.9,16.9,0,0,0-19.512,12.6,23.493,23.493,0,0,0-.493,6.094c.006.455-.15,1.041.075,1.328.24.308.854.08,1.3.1a1.342,1.342,0,0,1,1.356,1.3,6.122,6.122,0,0,1,.028.82q0,8.22,0,16.44c0,1.108-.449,1.568-1.556,1.567-1.717,0-3.436.044-5.15-.033a5.311,5.311,0,0,1-5.055-5.1c-.075-3.195-.055-6.393,0-9.588a5.507,5.507,0,0,1,5.669-5.39c.485.024.556-.157.556-.587a31.519,31.519,0,0,1,.241-5.958c1.556-8.095,6.232-13.548,14.133-15.874a19.625,19.625,0,0,1,24.277,13.029,20.719,20.719,0,0,1,.933,6.581c-.006.8,0,1.607,0,2.411,0,.2-.033.378.285.4,2.4.162,3.725,1.7,4.657,3.705a7.289,7.289,0,0,1,.606,3.144c-.009,2.667,0,5.334,0,8a4.665,4.665,0,0,1-4.42,5.081.89.89,0,0,0-.723.465,14.406,14.406,0,0,1-5.064,5.125,13.607,13.607,0,0,1-6.552,1.876c-.356.01-.477.107-.561.456a6.647,6.647,0,0,1-5.531,4.94c-.086.012-.186-.015-.215.108Zm-17.323-22.815q0-2.873,0-5.747c0-.507.176-1.191-.082-1.476-.3-.331-.993-.082-1.516-.1s-1.021,0-1.532,0a2.86,2.86,0,0,0-3.115,3.124q-.014,4.352,0,8.7a2.677,2.677,0,0,0,2.769,2.754c1,.008,2.007-.018,3.009.011.384.011.482-.092.479-.477C1803.783,474.161,1803.793,471.9,1803.793,469.636Zm34.023-.058q0,3.421,0,6.843c0,.214-.1.485.31.476.985-.023,1.972.024,2.955-.026,1.4-.073,2.273-.846,2.28-2.021.019-3.01.028-6.021-.008-9.031a4.178,4.178,0,0,0-1.142-2.772,2.085,2.085,0,0,0-1.69-.743c-.747.023-1.5.03-2.244-.005-.4-.018-.474.124-.471.493C1837.825,465.053,1837.816,467.316,1837.816,469.579Zm-11.533,16.115a4.092,4.092,0,1,0-8.182-.162,4.258,4.258,0,0,0,4.172,4.147A4.026,4.026,0,0,0,1826.284,485.693Z" transform="translate(-1794.75 -436.321)" fill="#fc4343"/>
    <path id="Trazado_639_-_Contorno" data-name="Trazado 639 - Contorno" d="M1823.606,493.1h-2.891l-.093-.186a1.249,1.249,0,0,1-.136-.025,7.491,7.491,0,0,1,1.755-14.791c.129,0,.259,0,.389.009a7.516,7.516,0,0,1,6.786,5.456l.01.034h.017a10.713,10.713,0,0,0,4.351-1.177,10.454,10.454,0,0,0,2.73-2.1h-.018a1.968,1.968,0,0,1-2.113-2.143q0-3.19,0-6.378,0-5.2,0-10.39a3.384,3.384,0,0,1,.188-1.2,1.891,1.891,0,0,1,1.869-1.32h.068a4,4,0,0,1,.462.035c.089.01.175.02.248.024,0-.087-.016-.2-.026-.279a3.9,3.9,0,0,1-.035-.5,20.523,20.523,0,0,0-.638-6.57,17.412,17.412,0,0,0-4.737-7.7,16.472,16.472,0,0,0-26.87,8.276,22.977,22.977,0,0,0-.474,5.927c0,.167-.012.332-.026.492-.009.1-.021.244-.021.354.072,0,.156-.015.242-.025a4.039,4.039,0,0,1,.482-.038h.078a1.985,1.985,0,0,1,1.975,1.861,5.536,5.536,0,0,1,.035.783q0,.062,0,.124,0,6.914,0,13.829v2.611a1.959,1.959,0,0,1-2.2,2.217h-.038c-.452,0-.914,0-1.36.006s-.912.006-1.369.006c-.964,0-1.709-.014-2.415-.046a5.956,5.956,0,0,1-3.958-1.763,5.809,5.809,0,0,1-1.718-3.972c-.066-2.827-.065-5.882,0-9.615a6.346,6.346,0,0,1,1.674-4.091,5.851,5.851,0,0,1,4.361-1.944l.191,0c0-.4-.006-.815-.012-1.214a23.445,23.445,0,0,1,.264-4.8,21.617,21.617,0,0,1,4.838-10.407,20.531,20.531,0,0,1,34.828,7.485,21.251,21.251,0,0,1,.964,6.785c0,.534,0,1.079,0,1.606q0,.29,0,.581c2.835.335,4.141,2.457,4.881,4.05a7.913,7.913,0,0,1,.667,3.42c-.006,1.567,0,3.16,0,4.7,0,1.081,0,2.2,0,3.3a5.313,5.313,0,0,1-4.979,5.724c-.17.024-.192.05-.258.159a14.947,14.947,0,0,1-5.293,5.35,14.3,14.3,0,0,1-6.818,1.963,7.13,7.13,0,0,1-2.2,3.6,7.254,7.254,0,0,1-3.618,1.752Zm-2.222-1.3h1.443a.884.884,0,0,1,.394-.1h.007a5.952,5.952,0,0,0,3.166-1.471,5.834,5.834,0,0,0,1.809-2.977,1.115,1.115,0,0,1,1.174-.952,13.015,13.015,0,0,0,6.243-1.788,13.683,13.683,0,0,0,4.836-4.9,1.526,1.526,0,0,1,1.189-.772,4.025,4.025,0,0,0,3.859-4.438c0-1.1,0-2.215,0-3.3,0-1.542,0-3.137,0-4.706a6.562,6.562,0,0,0-.546-2.868c-1.013-2.179-2.281-3.207-4.111-3.331a.9.9,0,0,1-.773-.439,1.053,1.053,0,0,1-.119-.566c0-.014,0-.028,0-.043q0-.4,0-.8c0-.53,0-1.078,0-1.619a19.972,19.972,0,0,0-.9-6.376,18.91,18.91,0,0,0-23.475-12.6c-7.542,2.22-12.144,7.393-13.678,15.373a22.131,22.131,0,0,0-.241,4.535c.006.426.012.866.012,1.3a1.38,1.38,0,0,1-.2.816,1.052,1.052,0,0,1-.925.422l-.115,0c-.084,0-.169-.006-.252-.006a4.882,4.882,0,0,0-4.734,4.759c-.068,3.715-.07,6.753,0,9.561a4.516,4.516,0,0,0,1.339,3.085,4.66,4.66,0,0,0,3.1,1.382c.686.031,1.413.044,2.357.044.453,0,.914,0,1.36-.006s.912-.006,1.369-.006H1805c.736,0,.905-.171.905-.917v-2.611q0-6.914,0-13.829c0-.043,0-.087,0-.13a4.479,4.479,0,0,0-.023-.6c-.084-.627-.42-.724-.737-.736h-.027a3.085,3.085,0,0,0-.328.028,4.006,4.006,0,0,1-.477.037,1.146,1.146,0,0,1-.959-.413,1.867,1.867,0,0,1-.233-1.355c.012-.135.022-.262.021-.365a24.045,24.045,0,0,1,.513-6.261,17.833,17.833,0,0,1,29-8.921,18.691,18.691,0,0,1,5.1,8.263,21.528,21.528,0,0,1,.7,6.987,2.959,2.959,0,0,0,.027.333,1.608,1.608,0,0,1-.286,1.379,1.215,1.215,0,0,1-.919.349,3.911,3.911,0,0,1-.459-.035,2.522,2.522,0,0,0-.335-.026.626.626,0,0,0-.7.478,2.053,2.053,0,0,0-.105.739q0,5.2,0,10.392,0,3.189,0,6.378c0,.616.213.829.843.844.114,0,.228,0,.352-.005.1,0,.209-.007.319-.007a3.125,3.125,0,0,1,.765.084l.722.183-.279.691c-.007.017-.012.033-.017.047a.946.946,0,0,1-.152.3,11.646,11.646,0,0,1-8.721,4.588c-.05,0-.1,0-.145,0a1.191,1.191,0,0,1-1.217-.986,6.2,6.2,0,0,0-5.595-4.507c-.109-.005-.219-.008-.327-.008a6.11,6.11,0,0,0-4.128,1.537,6.565,6.565,0,0,0-2.1,4.034,5.679,5.679,0,0,0,1.084,4.113,6.513,6.513,0,0,0,3.7,2.542l.047,0A1.165,1.165,0,0,1,1821.383,491.8Zm.9-1.472h-.007a4.908,4.908,0,0,1-4.821-4.8,4.618,4.618,0,0,1,1.366-3.29,4.742,4.742,0,0,1,3.376-1.41h.007a4.648,4.648,0,0,1,3.37,1.4,4.955,4.955,0,0,1,1.363,3.453,4.555,4.555,0,0,1-1.351,3.252A4.635,4.635,0,0,1,1822.279,490.329Zm-.084-8.2a3.451,3.451,0,0,0-2.456,1.027,3.327,3.327,0,0,0-.988,2.369,3.616,3.616,0,0,0,3.523,3.5,3.346,3.346,0,0,0,2.386-1,3.264,3.264,0,0,0,.973-2.328,3.437,3.437,0,0,0-3.434-3.563Zm-18.821-4.583h-.069c-.328-.009-.689-.014-1.136-.014l-.7,0c-.387,0-.775,0-1.161,0a3.321,3.321,0,0,1-3.414-3.4c-.007-3.244-.007-6.092,0-8.706a3.5,3.5,0,0,1,3.765-3.772l.465,0,.476,0c.236,0,.431,0,.615.01h.036a3.787,3.787,0,0,0,.4-.033,4.708,4.708,0,0,1,.539-.041,1.308,1.308,0,0,1,1,.388,1.885,1.885,0,0,1,.275,1.5c-.014.151-.026.293-.026.409,0,1.453,0,2.93,0,4.358v1.389q0,.864,0,1.729c0,1.657,0,3.37.011,5.052a1.134,1.134,0,0,1-.283.85A1.072,1.072,0,0,1,1803.374,477.551Zm-1.2-1.315c.375,0,.692,0,.981.009-.013-1.63-.011-3.282-.009-4.882q0-.864,0-1.727v-1.389c0-1.428,0-2.9,0-4.356,0-.177.016-.355.032-.529a4.6,4.6,0,0,0,.026-.472h-.01a3.735,3.735,0,0,0-.391.032,4.765,4.765,0,0,1-.546.041h-.083c-.167-.006-.348-.009-.568-.009l-.464,0-.476,0a2.484,2.484,0,0,0-1.827.631,2.52,2.52,0,0,0-.637,1.844c-.008,2.612-.009,5.457,0,8.7a2.039,2.039,0,0,0,2.125,2.105c.381,0,.763,0,1.144,0Zm35.939,1.311h0a.941.941,0,0,1-.722-.283.978.978,0,0,1-.221-.782c0-.021,0-.05,0-.06,0-1.72,0-3.469,0-5.161v-1.683q0-.833,0-1.666c0-1.677,0-3.412-.01-5.116a1.145,1.145,0,0,1,.285-.867,1.059,1.059,0,0,1,.772-.282l.094,0c.646.03,1.328.032,2.194,0l.1,0a2.726,2.726,0,0,1,2.1.959,4.842,4.842,0,0,1,1.308,3.2c.038,3.105.026,6.181.008,9.043a2.724,2.724,0,0,1-2.9,2.666c-.34.018-.7.025-1.174.025l-.581,0-.573,0c-.248,0-.453,0-.646.007Zm.68-1.307.581,0,.573,0c.448,0,.79-.007,1.107-.024.5-.026,1.656-.212,1.664-1.376.018-2.855.029-5.924-.008-9.019a3.516,3.516,0,0,0-.975-2.346,1.444,1.444,0,0,0-1.186-.528c-.81.025-1.466.026-2.084,0,.011,1.655.01,3.333.009,4.957q0,.832,0,1.665v1.683c0,1.632,0,3.319,0,4.98Z" transform="translate(-1794.75 -436.321)" fill="#fc4343"/>
  </g>
</svg>
