<svg xmlns="http://www.w3.org/2000/svg" width="55.684" height="52.386" viewBox="0 0 55.684 52.386">
  <g id="tiempo-real-icon" transform="translate(0.65 0.65)">
    <path id="Path_630" data-name="Path 630" d="M1564.518,386.366c0,2.494.01,4.989-.006,7.482a2.049,2.049,0,0,0,.906,1.8c1.655,1.209,3.286,2.453,4.925,3.683s3.273,2.471,4.922,3.688a1.7,1.7,0,0,0,2.7-.835,1.785,1.785,0,0,0-.83-2.008q-4.418-3.344-8.841-6.678a.87.87,0,0,1-.387-.789q.019-6.819.006-13.638a3.171,3.171,0,0,0-.043-.686,1.695,1.695,0,0,0-3.35.391C1564.512,381.306,1564.518,383.836,1564.518,386.366Z" transform="translate(-1538.171 -367.629)" fill="#fc4343"/>
    <path id="Trazado_630_-_Contorno" data-name="Trazado 630 - Contorno" d="M1566.212,376.4a2.372,2.372,0,0,1,2.294,1.839,3.346,3.346,0,0,1,.059.757v1.031c0,4.156,0,8.453-.007,12.68,0,.16.017.185.128.268,2.608,1.96,5.253,3.962,7.811,5.9l1.033.782a2.428,2.428,0,0,1,1.061,2.711,2.316,2.316,0,0,1-2.231,1.671,2.484,2.484,0,0,1-1.481-.5c-1.161-.857-2.332-1.739-3.464-2.592l-1.462-1.1q-.689-.517-1.377-1.037c-1.157-.872-2.353-1.774-3.541-2.642a2.694,2.694,0,0,1-1.172-2.329c.012-1.8.01-3.636.008-5.409q0-1.035,0-2.069,0-1.054,0-2.108c0-1.8,0-3.656,0-5.484a2.342,2.342,0,0,1,2.341-2.37Zm10.147,26.338a1.012,1.012,0,0,0,.985-.742c.089-.3.123-.757-.6-1.3l-1.033-.782c-2.557-1.936-5.2-3.937-7.807-5.9a1.519,1.519,0,0,1-.647-1.311c.012-4.225.009-8.521.007-12.676V379a2.318,2.318,0,0,0-.027-.468,1.062,1.062,0,0,0-1.026-.824,1.029,1.029,0,0,0-.119.007,1.05,1.05,0,0,0-.921,1.068c-.007,1.826-.006,3.683,0,5.478q0,1.054,0,2.109,0,1.034,0,2.068c0,1.776,0,3.612-.008,5.419a1.4,1.4,0,0,0,.639,1.272c1.2.873,2.4,1.778,3.556,2.653q.687.518,1.375,1.035l1.464,1.1c1.13.851,2.3,1.731,3.454,2.584A1.194,1.194,0,0,0,1576.36,402.742Z" transform="translate(-1538.171 -367.629)" fill="#fc4343"/>
    <path id="Path_631" data-name="Path 631" d="M1576.173,389.567a5.17,5.17,0,0,0-.29,1.626,25.148,25.148,0,0,1-12.072,17.975,24.707,24.707,0,0,1-16.066,3.512,23.839,23.839,0,0,1-17.043-9.8,1.7,1.7,0,0,1,1.913-2.686,1.934,1.934,0,0,1,.847.7,20.372,20.372,0,0,0,12.965,8.154,22.1,22.1,0,1,0-17.47-25.773c-.018.087-.077.182.024.221a.282.282,0,0,0,.24-.053c.235-.215.449-.451.679-.671a1.7,1.7,0,0,1,2.425-.055,1.674,1.674,0,0,1,0,2.424q-2.1,2.14-4.244,4.242a1.628,1.628,0,0,1-2.576-.243q-1.751-2.558-3.44-5.159a1.662,1.662,0,0,1,.507-2.329,1.694,1.694,0,0,1,2.308.445c.21.281.4.578.654.95.144-.637.252-1.195.4-1.742,2.337-8.777,7.713-14.908,16.264-17.948,8.371-2.976,16.334-1.751,23.539,3.448a24.743,24.743,0,0,1,10.136,16.614,10.519,10.519,0,0,0,.3,1.9Z" transform="translate(-1521.789 -361.767)" fill="#fc4343"/>
    <path id="Trazado_631_-_Contorno" data-name="Trazado 631 - Contorno" d="M1550.806,413.5a28.514,28.514,0,0,1-3.133-.176,24.518,24.518,0,0,1-17.491-10.052,2.346,2.346,0,0,1,1.807-3.842,2.4,2.4,0,0,1,.857.159,2.6,2.6,0,0,1,1.135.917,19.774,19.774,0,0,0,12.563,7.9,22.612,22.612,0,0,0,4.089.376,21.473,21.473,0,0,0,12.121-3.7,21.243,21.243,0,0,0,7.9-9.99,21.792,21.792,0,0,0,1.476-7.579,21.034,21.034,0,0,0-1.208-7.314,21.25,21.25,0,0,0-3.667-6.46,22.269,22.269,0,0,0-5.91-5.013,20.912,20.912,0,0,0-10.6-2.824,21.287,21.287,0,0,0-13.677,4.868,21.438,21.438,0,0,0-7.135,11.156,2.391,2.391,0,0,1,1.224-.345,2.364,2.364,0,0,1,2.329,2.315,2.382,2.382,0,0,1-.7,1.7c-1.607,1.636-2.959,2.986-4.253,4.251a2.383,2.383,0,0,1-1.662.707,2.3,2.3,0,0,1-1.9-1.047c-1.15-1.68-2.31-3.42-3.449-5.172a2.348,2.348,0,0,1,1.969-3.61,2.361,2.361,0,0,1,1.727.76c.028-.117.057-.233.088-.349,2.433-9.137,8.043-15.325,16.675-18.393a26.954,26.954,0,0,1,9.027-1.629,26.445,26.445,0,0,1,25.507,22.2c.041.243.063.48.084.71a4.414,4.414,0,0,0,.186,1.075l.039.107v4.52l-.073.141a2.211,2.211,0,0,0-.163.844c-.014.19-.028.386-.063.591a26.949,26.949,0,0,1-4.109,10.616,26.648,26.648,0,0,1-8.263,7.8A25.07,25.07,0,0,1,1550.806,413.5Zm-18.817-12.771a1.047,1.047,0,0,0-.824.4,1.057,1.057,0,0,0,.057,1.361,24.338,24.338,0,0,0,7.279,6.569,23.761,23.761,0,0,0,9.316,2.971,27.209,27.209,0,0,0,2.99.168,23.788,23.788,0,0,0,12.664-3.587,25.359,25.359,0,0,0,7.865-7.423,25.66,25.66,0,0,0,3.906-10.108c.024-.144.036-.3.048-.47a3.6,3.6,0,0,1,.233-1.193v-4a5.85,5.85,0,0,1-.219-1.282c-.02-.216-.039-.421-.072-.617a25.146,25.146,0,0,0-24.225-21.111,25.66,25.66,0,0,0-8.591,1.554c-8.2,2.916-13.538,8.8-15.854,17.5-.093.352-.172.717-.256,1.1-.043.2-.087.4-.135.614l-.329,1.451-.841-1.227c-.086-.125-.164-.242-.238-.352-.145-.215-.27-.4-.4-.576a1.1,1.1,0,0,0-.872-.46,1.029,1.029,0,0,0-.562.171,1.014,1.014,0,0,0-.317,1.43c1.133,1.743,2.288,3.475,3.432,5.146a1.008,1.008,0,0,0,.831.482,1.08,1.08,0,0,0,.754-.337c1.288-1.258,2.633-2.6,4.234-4.233a1.092,1.092,0,0,0,.332-.774,1.035,1.035,0,0,0-.324-.729,1,1,0,0,0-.705-.3,1.189,1.189,0,0,0-.814.357c-.091.087-.179.177-.273.272-.133.135-.27.275-.418.41a.936.936,0,0,1-.62.233.816.816,0,0,1-.286-.05l-.005,0a.741.741,0,0,1-.429-.958l0-.01a23.7,23.7,0,0,1,2.785-7.364,23.284,23.284,0,0,1,5.133-6,22.589,22.589,0,0,1,14.511-5.171,22.214,22.214,0,0,1,11.255,3,23.566,23.566,0,0,1,6.253,5.305,22.453,22.453,0,0,1,5.174,14.618,23.09,23.09,0,0,1-1.563,8.03,22.538,22.538,0,0,1-8.386,10.6,22.767,22.767,0,0,1-12.852,3.928,23.913,23.913,0,0,1-4.325-.4,21.037,21.037,0,0,1-13.368-8.4,1.291,1.291,0,0,0-.558-.482A1.1,1.1,0,0,0,1531.989,400.732Z" transform="translate(-1521.789 -361.767)" fill="#fc4343"/>
  </g>
</svg>
