<svg xmlns="http://www.w3.org/2000/svg" width="1080" height="1080" viewBox="0 0 1080 1080">
  <g id="Group_48" data-name="Group 48" transform="translate(-3.857 -1604.571)">
    <circle id="Ellipse_4" data-name="Ellipse 4" cx="540" cy="540" r="540" transform="translate(3.857 1604.571)" fill="#fc4343"/>
    <g id="Group_47" data-name="Group 47">
      <g id="Group_46" data-name="Group 46">
        <g id="Group_44" data-name="Group 44">
          <path id="Path_21" data-name="Path 21" d="M716.387,2409.79h0c26.626,0,51.245-21.585,54.987-48.211l13.583-96.65c103.025-51.106,163.68-177.252,105.609-292.4-14.4-28.559-39.881-49.379-70.828-59.656-36.736-12.2-74.63-16.3-111.351-9.5-30.754-39.927-78.816-62.825-134.136-62.825-54.358,0-108.4,22.417-150.247,61.382a183.434,183.434,0,0,0-26.393-1.828c-106.888,0-206.085,86.973-221.107,193.861-10.087,71.773,19.9,136.329,76.372,169.906l-15.738,111.981c-5.646,40.173,22.344,72.741,62.517,72.741H459.933c26.568,0,51.132-21.538,54.866-48.1h0c3.733-26.568-14.777-48.1-41.344-48.1H336.645l16.848-119.876c2.92-20.782-7.856-39.254-26.769-45.7-38.269-13.18-59.96-50.509-54.011-92.842,7.572-53.877,57.5-97.652,111.377-97.652a91.782,91.782,0,0,1,30,4.906c19.834,6.735,43.663-1.25,58.175-19.626,22.037-28.093,55.08-44.833,88.464-44.833,34.348,0,63.059,17.51,76.828,46.853,9.393,20.108,33.245,28.382,56.219,19.627a103.743,103.743,0,0,1,37.245-6.927c53.779,0,91.5,43.775,83.927,97.652-6.044,43.006-38.834,80.527-81.521,93.323-20.985,6.254-37.256,24.823-40.217,45.892l-18.251,128.337C671.18,2388.167,689.736,2409.79,716.387,2409.79Z" fill="#fabc3c"/>
        </g>
        <g id="Group_45" data-name="Group 45">
          <path id="Path_22" data-name="Path 22" d="M665.05,2156.982c-1.974,14.047-14.938,25.5-29.08,25.5-14.046,0-23.886-11.449-21.911-25.5,4.908-34.923-19.485-63.3-54.314-63.3-14.142,0-23.885-11.449-21.911-25.5s14.935-25.495,29.078-25.495C629.929,2042.686,673.906,2093.965,665.05,2156.982Z" fill="#fabc3c"/>
        </g>
      </g>
    </g>
  </g>
</svg>
